<svg id="Layer_1" data-name="Layer 1" xmlns="http://www.w3.org/2000/svg" viewBox="0 0 308.95 24.07"><title>logo</title><path d="M11.23,3.4H9.38V1.85h5.43V3.4H13V18.52H11.17l-7.53-13H3.58V17H5.43v1.54H0V17H1.85V3.4H0V1.85H3.7l7.47,12.84h.06Z"/><path d="M16.82,12.56A7.06,7.06,0,0,1,18.26,7.9a4.5,4.5,0,0,1,3.62-1.73,4.32,4.32,0,0,1,3.51,1.61,7,7,0,0,1,1.31,4.5A7.61,7.61,0,0,1,25.31,17a4.4,4.4,0,0,1-3.64,1.79,4.23,4.23,0,0,1-3.54-1.72A7.3,7.3,0,0,1,16.82,12.56Zm1.95-.28A7.21,7.21,0,0,0,19.55,16a2.5,2.5,0,0,0,2.27,1.28A2.42,2.42,0,0,0,24,16.1a6.76,6.76,0,0,0,.77-3.63q0-4.75-3-4.75a2.52,2.52,0,0,0-2.21,1.09A6.27,6.27,0,0,0,18.77,12.28Z"/><path d="M28.7,17h1.55V8H28.7V6.48H32l.09,1.61h0a5,5,0,0,1,3.83-1.92,2.75,2.75,0,0,1,2.25.88,3.91,3.91,0,0,1,.71,2.49V17h1.54v1.54H35.8V17H37V9.78a2.31,2.31,0,0,0-.44-1.65,1.62,1.62,0,0,0-1.2-.41,4.24,4.24,0,0,0-3.3,1.91V17h1.23v1.54H28.7Z"/><path d="M41.67,11.42H46.3V13H41.67Z"/><path d="M51.85,17H53.7v1.54H48.15V17H50V3.4H48.36V1.85h5.37a6.75,6.75,0,0,1,4.2,1A3.72,3.72,0,0,1,59.26,6q0,3.68-3.89,4.5v.07a4.13,4.13,0,0,1,.93.75,9.27,9.27,0,0,1,1.23,1.9l2,3.74h1.54v1.54h-3c-.25-.56-.49-1.05-.71-1.48s-.45-.84-.65-1.21L55.65,13.7c-.41-.72-.74-1.26-1-1.63a4.44,4.44,0,0,0-.83-.93,2,2,0,0,0-1.21-.34h-.77Zm1.48-7.72a5,5,0,0,0,3-.73,2.67,2.67,0,0,0,1-2.33A2.44,2.44,0,0,0,56.4,4a5.18,5.18,0,0,0-2.85-.61h-1.7V9.26Z"/><path d="M71,16.2v1.67a6.71,6.71,0,0,1-3.61,1,4.73,4.73,0,0,1-3.82-1.64,6.92,6.92,0,0,1-1.37-4.57,7.08,7.08,0,0,1,1.45-4.73,4.56,4.56,0,0,1,3.64-1.72,3.52,3.52,0,0,1,2.9,1.42,6.46,6.46,0,0,1,1.11,4.05v.95H64.1A6.54,6.54,0,0,0,65,16a2.94,2.94,0,0,0,2.52,1.26A6.45,6.45,0,0,0,71,16.2Zm-1.55-5.09a4.11,4.11,0,0,0-.65-2.58A2.18,2.18,0,0,0,67,7.72a2.48,2.48,0,0,0-1.91.84,4.39,4.39,0,0,0-.93,2.55Z"/><path d="M76.3,6.48l.09,1h.06a4.44,4.44,0,0,1,3.12-1.3,3.79,3.79,0,0,1,3.18,1.62A7,7,0,0,1,84,12.07,7.68,7.68,0,0,1,82.48,17a4.5,4.5,0,0,1-3.72,1.87,5.24,5.24,0,0,1-2.31-.56l-.06,0v4.23h1.85v1.54H73V22.53h1.55V8H73V6.48Zm.09,10.34a4.77,4.77,0,0,0,2.16.46,3,3,0,0,0,2.54-1.2,6.11,6.11,0,0,0,.92-3.7,6.13,6.13,0,0,0-.81-3.54A2.5,2.5,0,0,0,79,7.72,3.47,3.47,0,0,0,76.39,9Z"/><path d="M95.06,16.2v1.67a6.69,6.69,0,0,1-3.61,1,4.69,4.69,0,0,1-3.81-1.64,6.87,6.87,0,0,1-1.38-4.57,7.13,7.13,0,0,1,1.45-4.73,4.58,4.58,0,0,1,3.65-1.72,3.53,3.53,0,0,1,2.9,1.42,6.46,6.46,0,0,1,1.11,4.05v.95H88.18A6.45,6.45,0,0,0,89,16a2.91,2.91,0,0,0,2.51,1.26A6.42,6.42,0,0,0,95.06,16.2Zm-1.54-5.09a4.18,4.18,0,0,0-.65-2.58,2.2,2.2,0,0,0-1.82-.81,2.52,2.52,0,0,0-1.92.84,4.32,4.32,0,0,0-.92,2.55Z"/><path d="M101.33,18.83a3,3,0,0,1-2.1-.7,2.58,2.58,0,0,1-.77-2.05V8H96.91V6.48h1.55V3.7l1.85-.34V6.48h2.77V8h-2.77v7.75a1.62,1.62,0,0,0,.35,1.21,1.41,1.41,0,0,0,.94.3,3.21,3.21,0,0,0,1.48-.37v1.52A4.08,4.08,0,0,1,101.33,18.83Z"/><path d="M104.63,17h1.54V8h-1.54V6.48H108V17h1.55v1.54h-4.94Zm1-13.77a1.33,1.33,0,0,1,.35-1,1.31,1.31,0,0,1,1-.36,1.33,1.33,0,0,1,1,.36,1.22,1.22,0,0,1,.37.94,1.27,1.27,0,0,1-.37,1,1.37,1.37,0,0,1-1,.36,1.27,1.27,0,0,1-.94-.36A1.22,1.22,0,0,1,105.65,3.21Z"/><path d="M115.21,18.83a3,3,0,0,1-2.09-.7,2.59,2.59,0,0,1-.78-2.05V8H110.8V6.48h1.54V3.7l1.86-.34V6.48H117V8H114.2v7.75a1.58,1.58,0,0,0,.35,1.21,1.41,1.41,0,0,0,.94.3,3.21,3.21,0,0,0,1.48-.37v1.52A4.09,4.09,0,0,1,115.21,18.83Z"/><path d="M118.52,17h1.54V8h-1.54V6.48h3.39V17h1.55v1.54h-4.94Zm1-13.77a1.33,1.33,0,0,1,.35-1,1.31,1.31,0,0,1,1-.36,1.33,1.33,0,0,1,1,.36,1.22,1.22,0,0,1,.37.94,1.27,1.27,0,0,1-.37,1,1.37,1.37,0,0,1-1,.36,1.27,1.27,0,0,1-.94-.36A1.22,1.22,0,0,1,119.54,3.21Z"/><path d="M130.8,18.67H129L125.46,8h-1.39V6.48h4.63V8h-1.36L130,16.3h.06L132.87,8h-1.39V6.48h4.63V8h-1.54Z"/><path d="M146,16.2v1.67a6.73,6.73,0,0,1-3.62,1,4.72,4.72,0,0,1-3.81-1.64,6.92,6.92,0,0,1-1.37-4.57,7.08,7.08,0,0,1,1.45-4.73,4.56,4.56,0,0,1,3.64-1.72,3.53,3.53,0,0,1,2.9,1.42,6.46,6.46,0,0,1,1.11,4.05v.95H139.1A6.54,6.54,0,0,0,140,16a2.92,2.92,0,0,0,2.52,1.26A6.45,6.45,0,0,0,146,16.2Zm-1.55-5.09a4.11,4.11,0,0,0-.65-2.58A2.2,2.2,0,0,0,142,7.72a2.48,2.48,0,0,0-1.91.84,4.32,4.32,0,0,0-.93,2.55Z"/><path d="M156.48,11.73V17h2.16v1.54h-5.86V17h1.85V3.4h-1.85V1.85h5.58a5.79,5.79,0,0,1,4,1.19,4.41,4.41,0,0,1,1.3,3.44,5,5,0,0,1-1.47,3.91,6.12,6.12,0,0,1-4.27,1.34ZM158,10.19a4.14,4.14,0,0,0,2.75-.82,3.34,3.34,0,0,0,1-2.67,3.23,3.23,0,0,0-.87-2.6,4.19,4.19,0,0,0-2.68-.7h-1.7v6.79Z"/><path d="M165.74,7.38a8.68,8.68,0,0,1,4.35-1.21,4.46,4.46,0,0,1,2.95.88,3.48,3.48,0,0,1,1,2.8V17h1.54v1.54H172.4l-.09-1.39-.06,0a4.63,4.63,0,0,1-3.64,1.73,3.48,3.48,0,0,1-2.55-.94,3.25,3.25,0,0,1-.94-2.4,3.13,3.13,0,0,1,1.68-2.9,10.15,10.15,0,0,1,4.89-.95h.53V9.81a2.08,2.08,0,0,0-.54-1.62,2.77,2.77,0,0,0-1.81-.47,5.79,5.79,0,0,0-2.53.49V9.88h-1.6ZM171.48,13a7.86,7.86,0,0,0-3.27.54,1.93,1.93,0,0,0-1.14,1.9,1.74,1.74,0,0,0,.55,1.44,2.23,2.23,0,0,0,1.42.44,4.1,4.1,0,0,0,3.18-1.51V13Z"/><path d="M176.85,17h1.54V8h-1.54V6.48h3.3l.09,1.73h.07a4.32,4.32,0,0,1,1.29-1.45,3,3,0,0,1,1.7-.46,3.13,3.13,0,0,1,.65.06V8.3a5,5,0,0,0-1-.09,2.87,2.87,0,0,0-1.56.42A3.6,3.6,0,0,0,180.24,10v7h1.86v1.54h-5.25Z"/><path d="M189.29,18.83a3,3,0,0,1-2.1-.7,2.58,2.58,0,0,1-.77-2.05V8h-1.55V6.48h1.55V3.7l1.85-.34V6.48h2.78V8h-2.78v7.75a1.62,1.62,0,0,0,.35,1.21,1.41,1.41,0,0,0,.94.3,3.28,3.28,0,0,0,1.49-.37v1.52A4.15,4.15,0,0,1,189.29,18.83Z"/><path d="M196.42,18.83a8.06,8.06,0,0,1-3.52-.76V15.4h1.6V17a7.3,7.3,0,0,0,2,.27,3.08,3.08,0,0,0,2-.47,1.64,1.64,0,0,0,.57-1.33,1.48,1.48,0,0,0-.68-1.27,9.33,9.33,0,0,0-2.13-1,6.8,6.8,0,0,1-2.78-1.59,3,3,0,0,1-.74-2A3,3,0,0,1,194,7.15a4.74,4.74,0,0,1,3.08-1,7.53,7.53,0,0,1,3.28.74V9.57H198.7V7.93a5,5,0,0,0-1.76-.28,2.74,2.74,0,0,0-1.76.48,1.53,1.53,0,0,0-.58,1.25,1.41,1.41,0,0,0,.63,1.21,8.69,8.69,0,0,0,2,.94A7.9,7.9,0,0,1,200,13a2.92,2.92,0,0,1,.88,2.23,3.13,3.13,0,0,1-1.23,2.58A5.14,5.14,0,0,1,196.42,18.83Z"/><path d="M219.44,17.59a9.55,9.55,0,0,1-4.63,1.24,6.4,6.4,0,0,1-5.2-2.3,9.71,9.71,0,0,1-1.9-6.34,9.51,9.51,0,0,1,1.95-6.33,6.4,6.4,0,0,1,5.18-2.32,11.77,11.77,0,0,1,4.6,1V6.17h-1.7V3.73a8.15,8.15,0,0,0-3-.49A4.56,4.56,0,0,0,211,4.92a8.27,8.27,0,0,0-1.32,5.14q0,3.62,1.39,5.34a4.67,4.67,0,0,0,3.85,1.73,10.31,10.31,0,0,0,4.54-1.23Z" style="fill:#ff1d25"/><path d="M222.22,7.38a8.68,8.68,0,0,1,4.35-1.21,4.46,4.46,0,0,1,3,.88,3.48,3.48,0,0,1,1,2.8V17h1.55v1.54h-3.21l-.1-1.39-.06,0a4.63,4.63,0,0,1-3.64,1.73,3.48,3.48,0,0,1-2.55-.94,3.25,3.25,0,0,1-.94-2.4,3.13,3.13,0,0,1,1.68-2.9,10.2,10.2,0,0,1,4.9-.95h.52V9.81a2.08,2.08,0,0,0-.54-1.62,2.77,2.77,0,0,0-1.81-.47,5.79,5.79,0,0,0-2.53.49V9.88h-1.6ZM228,13a7.86,7.86,0,0,0-3.27.54,1.93,1.93,0,0,0-1.14,1.9,1.74,1.74,0,0,0,.55,1.44,2.23,2.23,0,0,0,1.42.44,4.08,4.08,0,0,0,3.18-1.51V13Z" style="fill:#ff1d25"/><path d="M233.33,17h1.54V1.54h-1.54V0h3.39V17h1.55v1.54h-4.94Z" style="fill:#ff1d25"/><path d="M248.76,18.06a7,7,0,0,1-3.24.77,5.06,5.06,0,0,1-4-1.61,6.61,6.61,0,0,1-1.45-4.6,6.85,6.85,0,0,1,1.53-4.73,5,5,0,0,1,4-1.72,7.13,7.13,0,0,1,3.15.71v3h-1.63V8a4.57,4.57,0,0,0-1.67-.27,3,3,0,0,0-2.56,1.09,5.73,5.73,0,0,0-.84,3.47A6.26,6.26,0,0,0,243,16a3,3,0,0,0,2.59,1.2,6.73,6.73,0,0,0,3.21-.83Z" style="fill:#ff1d25"/><path d="M259,8H257.4V6.48h3.4V17h1.54v1.54H259.1L259,17.19H259a4.28,4.28,0,0,1-3.43,1.64A3.38,3.38,0,0,1,253,18a3.36,3.36,0,0,1-.86-2.5V8h-1.55V6.48H254v8.67a2.12,2.12,0,0,0,.54,1.69,2.27,2.27,0,0,0,1.46.44A3.58,3.58,0,0,0,259,15.83Z" style="fill:#ff1d25"/><path d="M263.88,17h1.55V1.54h-1.55V0h3.4V17h1.54v1.54h-4.94Z" style="fill:#ff1d25"/><path d="M271.29,7.38a8.68,8.68,0,0,1,4.35-1.21,4.46,4.46,0,0,1,2.95.88,3.49,3.49,0,0,1,1,2.8V17h1.54v1.54H278l-.09-1.39-.07,0a4.61,4.61,0,0,1-3.64,1.73,3.44,3.44,0,0,1-2.54-.94,3.26,3.26,0,0,1-.95-2.4,3.13,3.13,0,0,1,1.69-2.9,10.15,10.15,0,0,1,4.89-.95h.52V9.81a2.08,2.08,0,0,0-.54-1.62,2.76,2.76,0,0,0-1.8-.47,5.76,5.76,0,0,0-2.53.49V9.88h-1.61ZM277,13a7.86,7.86,0,0,0-3.27.54,1.93,1.93,0,0,0-1.14,1.9,1.74,1.74,0,0,0,.55,1.44,2.25,2.25,0,0,0,1.42.44,4.07,4.07,0,0,0,3.18-1.51V13Z" style="fill:#ff1d25"/><path d="M286.51,18.83a3,3,0,0,1-2.1-.7,2.58,2.58,0,0,1-.77-2.05V8h-1.55V6.48h1.55V3.7l1.85-.34V6.48h2.78V8h-2.78v7.75a1.62,1.62,0,0,0,.35,1.21,1.42,1.42,0,0,0,1,.3,3.27,3.27,0,0,0,1.48-.37v1.52A4.15,4.15,0,0,1,286.51,18.83Z" style="fill:#ff1d25"/><path d="M290,12.56A7.06,7.06,0,0,1,291.4,7.9,4.52,4.52,0,0,1,295,6.17a4.3,4.3,0,0,1,3.5,1.61,7,7,0,0,1,1.31,4.5A7.55,7.55,0,0,1,298.45,17a4.39,4.39,0,0,1-3.64,1.79,4.19,4.19,0,0,1-3.53-1.72A7.24,7.24,0,0,1,290,12.56Zm2-.28A7.1,7.1,0,0,0,292.7,16,2.49,2.49,0,0,0,295,17.28a2.45,2.45,0,0,0,2.17-1.18,6.85,6.85,0,0,0,.77-3.63q0-4.75-3-4.75a2.49,2.49,0,0,0-2.2,1.09A6.18,6.18,0,0,0,291.91,12.28Z" style="fill:#ff1d25"/><path d="M301.85,17h1.54V8h-1.54V6.48h3.3l.09,1.73h.06a4.34,4.34,0,0,1,1.3-1.45,3,3,0,0,1,1.7-.46,3.2,3.2,0,0,1,.65.06V8.3a5,5,0,0,0-1-.09,2.84,2.84,0,0,0-1.56.42A3.6,3.6,0,0,0,305.24,10v7h1.85v1.54h-5.24Z" style="fill:#ff1d25"/></svg>