<svg id="Layer_1" data-name="Layer 1" xmlns="http://www.w3.org/2000/svg" viewBox="0 0 500.51 99.61"><title>Fig1</title><rect x="2.22" y="27.62" width="82.56" height="7.98" rx="3.06" style="fill:#e6e7e8"/><text transform="translate(2.75 10.95)" style="font-size:10px;fill:#231f20;font-family:ArialMT, Arial">specify constraints</text><text transform="translate(234.21 8.58)" style="font-size:10px;fill:#231f20;font-family:ArialMT, Arial">an extremely large<tspan x="-6.68" y="12">non-repetitive toolbox</tspan></text><text transform="translate(241.54 86.96)" style="font-size:8px;fill:#231f20;font-family:Arial-ItalicMT, Arial;font-style:italic">many thousands of <tspan x="-0.44" y="9.6">non-repetitive parts</tspan></text><text transform="translate(109.94 86.96)" style="font-size:8px;fill:#231f20;font-family:Arial-ItalicMT, Arial;font-style:italic">advanced path generation <tspan x="12.91" y="9.6">in constraint space</tspan></text><text transform="translate(123.27 8.58)" style="font-size:10px;fill:#231f20;font-family:ArialMT, Arial">rapid design of<tspan x="-27.51" y="12">non-repetitive genetic parts</tspan></text><rect x="109.3" y="33.38" width="93.54" height="42.52" style="fill:#ffdd15"/><rect x="109.3" y="33.38" width="93.54" height="42.52" style="fill:#e6e7e8;opacity:0.25"/><text transform="translate(120.79 46.14)" style="font-size:10px;fill:#231f20;font-family:Arial-BoldItalicMT, Arial;font-weight:700;font-style:italic">Non-Repetitive<tspan x="-3.07" y="12">Parts Calculator</tspan><tspan x="6.38" y="24">Maker Mode</tspan></text><line x1="89.55" y1="54.82" x2="99.67" y2="54.82" style="fill:none;stroke:#231f20;stroke-miterlimit:10;stroke-width:1.5px"/><polygon points="97.56 57.6 98.74 54.82 97.56 52.04 104.14 54.82 97.56 57.6" style="fill:#231f20"/><line x1="209.4" y1="54.82" x2="219.52" y2="54.82" style="fill:none;stroke:#231f20;stroke-miterlimit:10;stroke-width:1.5px"/><polygon points="217.41 57.6 218.59 54.82 217.41 52.04 223.99 54.82 217.41 57.6" style="fill:#231f20"/><line x1="315.29" y1="54.82" x2="325.4" y2="54.82" style="fill:none;stroke:#231f20;stroke-miterlimit:10;stroke-width:1.5px"/><polygon points="323.3 57.6 324.48 54.82 323.3 52.04 329.88 54.82 323.3 57.6" style="fill:#231f20"/><line x1="401.66" y1="54.82" x2="411.77" y2="54.82" style="fill:none;stroke:#231f20;stroke-miterlimit:10;stroke-width:1.5px"/><polygon points="409.67 57.6 410.85 54.82 409.67 52.04 416.25 54.82 409.67 57.6" style="fill:#231f20"/><rect x="243.46" y="41.24" width="9.11" height="3.6" style="fill:#9fdcf2"/><rect x="252.57" y="41.24" width="9.11" height="3.6" style="fill:#9fdcf2"/><rect x="261.68" y="41.24" width="9.11" height="3.6" style="fill:#9fdcf2"/><rect x="270.78" y="41.24" width="9.11" height="3.6" style="fill:#9fdcf2"/><rect x="279.89" y="41.24" width="9.11" height="3.6" style="fill:#9fdcf2"/><rect x="289" y="41.24" width="9.11" height="3.6" style="fill:#9fdcf2"/><rect x="298.11" y="41.24" width="9.11" height="3.6" style="fill:#9fdcf2"/><rect x="243.46" y="33.64" width="9.11" height="3.6" style="fill:#9fdcf2"/><rect x="252.57" y="33.64" width="9.11" height="3.6" style="fill:#9fdcf2"/><rect x="261.68" y="33.64" width="9.11" height="3.6" style="fill:#9fdcf2"/><rect x="270.78" y="33.64" width="9.11" height="3.6" style="fill:#9fdcf2"/><rect x="279.89" y="33.64" width="9.11" height="3.6" style="fill:#9fdcf2"/><rect x="289" y="33.64" width="9.11" height="3.6" style="fill:#9fdcf2"/><rect x="298.11" y="33.64" width="9.11" height="3.6" style="fill:#9fdcf2"/><rect x="243.46" y="71.36" width="9.11" height="3.6" style="fill:#9fdcf2"/><rect x="252.57" y="71.36" width="9.11" height="3.6" style="fill:#9fdcf2"/><rect x="261.68" y="71.36" width="9.11" height="3.6" style="fill:#9fdcf2"/><rect x="270.78" y="71.36" width="9.11" height="3.6" style="fill:#9fdcf2"/><rect x="279.89" y="71.36" width="9.11" height="3.6" style="fill:#9fdcf2"/><rect x="289" y="71.36" width="9.11" height="3.6" style="fill:#9fdcf2"/><rect x="298.11" y="71.36" width="9.11" height="3.6" style="fill:#9fdcf2"/><rect x="243.46" y="56.35" width="9.11" height="3.6" style="fill:#9fdcf2"/><rect x="252.57" y="56.35" width="9.11" height="3.6" style="fill:#9fdcf2"/><rect x="261.68" y="56.35" width="9.11" height="3.6" style="fill:#9fdcf2"/><rect x="270.78" y="56.35" width="9.11" height="3.6" style="fill:#9fdcf2"/><rect x="279.89" y="56.35" width="9.11" height="3.6" style="fill:#9fdcf2"/><rect x="289" y="56.35" width="9.11" height="3.6" style="fill:#9fdcf2"/><rect x="298.11" y="56.35" width="9.11" height="3.6" style="fill:#9fdcf2"/><rect x="243.46" y="48.84" width="9.11" height="3.6" style="fill:#9fdcf2"/><rect x="252.57" y="48.84" width="9.11" height="3.6" style="fill:#9fdcf2"/><rect x="261.68" y="48.84" width="9.11" height="3.6" style="fill:#9fdcf2"/><rect x="270.78" y="48.84" width="9.11" height="3.6" style="fill:#9fdcf2"/><rect x="279.89" y="48.84" width="9.11" height="3.6" style="fill:#9fdcf2"/><rect x="289" y="48.84" width="9.11" height="3.6" style="fill:#9fdcf2"/><rect x="298.11" y="48.84" width="9.11" height="3.6" style="fill:#9fdcf2"/><circle cx="275.34" cy="62.44" r="0.69" style="fill:#231f20"/><circle cx="275.34" cy="68.88" r="0.69" style="fill:#231f20"/><circle cx="275.34" cy="65.66" r="0.69" style="fill:#231f20"/><text transform="translate(237.76 37.72)" style="font-size:7px;fill:#231f20;font-family:ArialMT, Arial">1</text><text transform="translate(237.76 45.32)" style="font-size:7px;fill:#231f20;font-family:ArialMT, Arial">2</text><text transform="translate(237.76 52.92)" style="font-size:7px;fill:#231f20;font-family:ArialMT, Arial">3</text><text transform="translate(237.76 60.52)" style="font-size:7px;fill:#231f20;font-family:ArialMT, Arial">4</text><text transform="translate(220.28 75.44)" style="font-size:7px;fill:#231f20;font-family:ArialMT, Arial">10,000 </text><rect x="7.42" y="66.02" width="72.17" height="8.51" rx="3.06" style="fill:#e6e7e8"/><text transform="translate(7.65 34.25)" style="font-size:7px;fill:#231f20;font-family:LucidaConsole, Lucida Console">SSSGRRWKWKAKKCBBB</text><text transform="translate(9.94 72.53)" style="font-size:7px;fill:#231f20;font-family:ArialMT, Arial">prediction &gt; threshold</text><text transform="translate(20.6 63.68)" style="font-size:8px;fill:#231f20;font-family:ArialMT, Arial">model based</text><text transform="translate(11.48 83.71)" style="font-size:8px;fill:#231f20;font-family:ArialMT, Arial">max repeat length</text><text transform="translate(14.14 24.43)" style="font-size:8px;fill:#231f20;font-family:ArialMT, Arial">sequence based</text><rect x="2.22" y="47.75" width="82.56" height="7.98" rx="3.06" style="fill:#e6e7e8"/><text transform="translate(7.65 54.05)" style="font-size:7px;fill:#231f20;font-family:LucidaConsole, Lucida Console">((((((xxxxx))))))</text><text transform="translate(15.93 44.23)" style="font-size:8px;fill:#231f20;font-family:ArialMT, Arial">structure based</text><text transform="translate(434.58 10)" style="font-size:10px;fill:#231f20;font-family:ArialMT, Arial">use all parts<tspan x="-6.11" y="12">simultaneously</tspan></text><text transform="translate(342.28 10)" style="font-size:10px;fill:#231f20;font-family:ArialMT, Arial">characterize<tspan x="11.11" y="12">toolbox</tspan></text><text transform="translate(434.92 87.42)" style="font-size:8px;fill:#231f20;font-family:Arial-ItalicMT, Arial;font-style:italic">stable systems<tspan x="-7.56" y="9.6">readily synthesized</tspan></text><text transform="translate(340.65 68.24) rotate(-90)" style="font-size:8px;fill:#231f20;font-family:Arial-ItalicMT, Arial;font-style:italic">activities</text><text transform="translate(336.75 86.99)" style="font-size:8px;fill:#231f20;font-family:Arial-ItalicMT, Arial;font-style:italic">non-repetitive parts</text><rect x="348.58" y="60.51" width="5.68" height="17.03" style="fill:#2e3191"/><rect x="355.38" y="54.83" width="5.68" height="22.7" style="fill:#2e3191"/><rect x="362.18" y="49.16" width="5.68" height="28.38" style="fill:#2e3191"/><rect x="368.98" y="43.48" width="5.68" height="34.06" style="fill:#2e3191"/><rect x="375.78" y="37.8" width="5.68" height="39.73" style="fill:#2e3191"/><rect x="389.8" y="29.29" width="5.68" height="48.24" style="fill:#2e3191"/><polyline points="383.81 77.53 346.94 77.53 346.94 26.45" style="fill:none;stroke:#8bc53f;stroke-miterlimit:10"/><path d="M383.81,77.53" style="fill:#fff;stroke:#a6a8ab;stroke-miterlimit:10"/><line x1="398.03" y1="77.53" x2="387.44" y2="77.53" style="fill:none;stroke:#8bc53f;stroke-miterlimit:10"/><line x1="346.8" y1="27.73" x2="343.96" y2="27.73" style="fill:none;stroke:#8bc53f;stroke-miterlimit:10"/><line x1="346.8" y1="37.01" x2="343.96" y2="37.01" style="fill:none;stroke:#8bc53f;stroke-miterlimit:10"/><line x1="346.8" y1="47.14" x2="343.96" y2="47.14" style="fill:none;stroke:#8bc53f;stroke-miterlimit:10"/><line x1="346.8" y1="57.27" x2="343.96" y2="57.27" style="fill:none;stroke:#8bc53f;stroke-miterlimit:10"/><line x1="346.8" y1="67.4" x2="343.96" y2="67.4" style="fill:none;stroke:#8bc53f;stroke-miterlimit:10"/><line x1="346.8" y1="77.53" x2="343.96" y2="77.53" style="fill:none;stroke:#8bc53f;stroke-miterlimit:10"/><polyline points="383.81 77.53 385.63 75.72 385.63 79.35 387.44 77.53" style="fill:none;stroke:#8bc53f;stroke-miterlimit:10"/><polygon points="384.17 77.88 383.81 78.04 383.81 77.53 384.17 77.88" style="fill:#8bc53f"/><polygon points="387.08 77.18 387.44 77.03 387.44 77.53 387.08 77.18" style="fill:#8bc53f"/><path d="M383.33,67.75v-.7h.7v.7Z" style="fill:#2e3191"/><path d="M385.27,67.75v-.7H386v.7Z" style="fill:#2e3191"/><path d="M387.22,67.75v-.7h.7v.7Z" style="fill:#2e3191"/><polyline points="455.98 56.27 449.28 56.27 449.28 49.56 455.98 49.56" style="fill:none;stroke:#00adee;stroke-miterlimit:10"/><polyline points="453.55 52 455.98 49.56 453.55 47.13" style="fill:none;stroke:#00adee;stroke-miterlimit:10"/><path d="M466.32,50.83" style="fill:none;stroke:#231f20;stroke-miterlimit:10;stroke-width:2px"/><polyline points="463.38 58.93 456.72 58.93 456.72 53.5 463.38 53.5" style="fill:none;stroke:#8bc53f;stroke-miterlimit:10"/><polyline points="463.02 53.42 466.17 56.27 463.02 59.11" style="fill:none;stroke:#8bc53f;stroke-miterlimit:10"/><polyline points="467.09 56.27 473.79 56.27 470.44 56.27 470.44 49.56 473.79 49.56 467.09 49.56" style="fill:none;stroke:#ee4036;stroke-miterlimit:10"/><circle cx="434.81" cy="63.47" r="1.24" style="fill:#231f20"/><circle cx="434.81" cy="67.91" r="1.24" style="fill:#231f20"/><circle cx="439.31" cy="67.91" r="1.24" style="fill:#231f20"/><circle cx="443.81" cy="67.91" r="1.24" style="fill:#231f20"/><circle cx="434.87" cy="72.35" r="1.24" style="fill:#231f20"/><polyline points="455.98 41.47 449.28 41.47 449.28 34.77 455.98 34.77" style="fill:none;stroke:#2e3191;stroke-miterlimit:10"/><polyline points="453.55 37.21 455.98 34.77 453.55 32.34" style="fill:none;stroke:#2e3191;stroke-miterlimit:10"/><path d="M466.32,36" style="fill:none;stroke:#231f20;stroke-miterlimit:10;stroke-width:2px"/><polyline points="463.38 44.14 456.72 44.14 456.72 38.7 463.38 38.7" style="fill:none;stroke:#009345;stroke-miterlimit:10"/><polyline points="463.02 38.63 466.17 41.47 463.02 44.32" style="fill:none;stroke:#009345;stroke-miterlimit:10"/><polyline points="467.09 41.47 473.79 41.47 470.44 41.47 470.44 34.77 473.79 34.77 467.09 34.77" style="fill:none;stroke:#eb008b;stroke-miterlimit:10"/><g style="opacity:0.9"><polyline points="482.71 56.27 476.01 56.27 476.01 49.56 482.71 49.56" style="fill:none;stroke:#009345;stroke-miterlimit:10"/><polyline points="480.28 52 482.71 49.56 480.28 47.13" style="fill:none;stroke:#009345;stroke-miterlimit:10"/></g><path d="M493,50.83" style="fill:none;stroke:#231f20;stroke-miterlimit:10;stroke-width:2px"/><g style="opacity:0.9"><polyline points="490.1 58.93 483.45 58.93 483.45 53.5 490.1 53.5" style="fill:none;stroke:#eb008b;stroke-miterlimit:10"/><polyline points="489.75 53.42 492.9 56.27 489.75 59.11" style="fill:none;stroke:#eb008b;stroke-miterlimit:10"/></g><polyline points="493.81 56.27 500.51 56.27 497.17 56.27 497.17 49.56 500.51 49.56 493.81 49.56" style="fill:none;stroke:#2e3191;stroke-miterlimit:10;opacity:0.9"/><polyline points="455.98 71.06 449.28 71.06 449.28 64.36 455.98 64.36" style="fill:none;stroke:#eb008b;stroke-miterlimit:10"/><polyline points="453.55 66.79 455.98 64.36 453.55 61.92" style="fill:none;stroke:#eb008b;stroke-miterlimit:10"/><path d="M466.32,65.63" style="fill:none;stroke:#231f20;stroke-miterlimit:10;stroke-width:2px"/><polyline points="463.38 73.72 456.72 73.72 456.72 68.29 463.38 68.29" style="fill:none;stroke:#2e3191;stroke-miterlimit:10"/><polyline points="463.02 68.21 466.17 71.06 463.02 73.9" style="fill:none;stroke:#2e3191;stroke-miterlimit:10"/><polyline points="467.09 71.06 473.79 71.06 470.44 71.06 470.44 64.36 473.79 64.36 467.09 64.36" style="fill:none;stroke:#009345;stroke-miterlimit:10"/><polyline points="429.26 41.47 422.56 41.47 422.56 34.77 429.26 34.77" style="fill:none;stroke:#ee4036;stroke-miterlimit:10"/><polyline points="426.82 37.21 429.26 34.77 426.82 32.34" style="fill:none;stroke:#ee4036;stroke-miterlimit:10"/><path d="M439.59,36" style="fill:none;stroke:#231f20;stroke-miterlimit:10;stroke-width:2px"/><polyline points="436.65 44.14 429.99 44.14 429.99 38.7 436.65 38.7" style="fill:none;stroke:#00adee;stroke-miterlimit:10"/><polyline points="436.29 38.63 439.44 41.47 436.29 44.32" style="fill:none;stroke:#00adee;stroke-miterlimit:10"/><polyline points="440.36 41.47 447.06 41.47 443.71 41.47 443.71 34.77 447.06 34.77 440.36 34.77" style="fill:none;stroke:#8bc53f;stroke-miterlimit:10"/><polyline points="482.71 41.47 476.01 41.47 476.01 34.77 482.71 34.77" style="fill:none;stroke:#8bc53f;stroke-miterlimit:10"/><polyline points="480.28 37.21 482.71 34.77 480.28 32.34" style="fill:none;stroke:#8bc53f;stroke-miterlimit:10"/><path d="M493,36" style="fill:none;stroke:#231f20;stroke-miterlimit:10;stroke-width:2px"/><polyline points="490.1 44.14 483.45 44.14 483.45 38.7 490.1 38.7" style="fill:none;stroke:#ee4036;stroke-miterlimit:10"/><polyline points="489.75 38.63 492.9 41.47 489.75 44.32" style="fill:none;stroke:#ee4036;stroke-miterlimit:10"/><polyline points="493.81 41.47 500.51 41.47 497.17 41.47 497.17 34.77 500.51 34.77 493.81 34.77" style="fill:none;stroke:#00adee;stroke-miterlimit:10"/><polyline points="482.71 71.06 476.01 71.06 476.01 64.36 482.71 64.36" style="fill:none;stroke:#90278e;stroke-miterlimit:10"/><polyline points="480.28 66.79 482.71 64.36 480.28 61.92" style="fill:none;stroke:#90278e;stroke-miterlimit:10"/><path d="M493,65.63" style="fill:none;stroke:#231f20;stroke-miterlimit:10;stroke-width:2px"/><polyline points="490.1 73.72 483.45 73.72 483.45 68.29 490.1 68.29" style="fill:none;stroke:#603813;stroke-miterlimit:10"/><polyline points="489.75 68.21 492.9 71.06 489.75 73.9" style="fill:none;stroke:#603813;stroke-miterlimit:10"/><polyline points="493.81 71.06 500.51 71.06 497.17 71.06 497.17 64.36 500.51 64.36 493.81 64.36" style="fill:none;stroke:#587445;stroke-miterlimit:10"/><polyline points="429.26 56.27 422.56 56.27 422.56 49.56 429.26 49.56" style="fill:none;stroke:#603813;stroke-miterlimit:10"/><polyline points="426.82 52 429.26 49.56 426.82 47.13" style="fill:none;stroke:#603813;stroke-miterlimit:10"/><path d="M439.59,50.83" style="fill:none;stroke:#231f20;stroke-miterlimit:10;stroke-width:2px"/><polyline points="436.65 58.93 429.99 58.93 429.99 53.5 436.65 53.5" style="fill:none;stroke:#587445;stroke-miterlimit:10"/><polyline points="436.29 53.42 439.44 56.27 436.29 59.11" style="fill:none;stroke:#587445;stroke-miterlimit:10"/><polyline points="440.36 56.27 447.06 56.27 443.71 56.27 443.71 49.56 447.06 49.56 440.36 49.56" style="fill:none;stroke:#90278e;stroke-miterlimit:10"/><rect x="33.69" y="87.76" width="19.62" height="8.51" rx="3.06" style="fill:#e6e7e8"/><path d="M35.74,93.52l1-5h.67L36.53,93h2.6l-.12.57Z"/><path d="M39.58,95.52l.79-3.76H41l.37,2.43a7.82,7.82,0,0,1,.1.92c.11-.25.28-.59.52-1l1.32-2.33h.63l-.78,3.76h-.5L43,93.69c.09-.42.22-.89.39-1.42-.11.24-.24.51-.4.79l-1.4,2.46h-.48l-.38-2.41a7.56,7.56,0,0,1-.07-.77c0,.33-.09.59-.13.78l-.5,2.4Z"/><path d="M43.62,95.52l2.13-3.76h.59L47,95.52h-.49l-.18-1.08H44.77l-.6,1.08ZM45,94.05h1.24l-.15-.94c0-.38-.09-.69-.1-.94a6.71,6.71,0,0,1-.38.77Z"/><path d="M47.06,95.52l1.79-1.9-1.06-1.86h.55l.49.85c.12.23.2.36.22.39l.14.3a8,8,0,0,1,.59-.67l.82-.87h.66L49.44,93.7l1,1.82h-.54l-.61-1.1q-.09-.17-.21-.42a3.82,3.82,0,0,1-.34.4l-1.05,1.12Z"/></svg>