<svg id="Layer_1" data-name="Layer 1" xmlns="http://www.w3.org/2000/svg" viewBox="0 0 513.24 113.14"><title>Fig2</title><rect x="115" y="0.06" width="284.05" height="15.98" style="fill:#ffdd15"/><rect x="114.76" width="284.28" height="111.64" style="fill:#e6e7e8;opacity:0.25"/><line x1="88.91" y1="59.96" x2="99.02" y2="59.96" style="fill:none;stroke:#231f20;stroke-miterlimit:10;stroke-width:1.5px"/><polygon points="96.92 62.74 98.1 59.96 96.92 57.19 103.5 59.96 96.92 62.74" style="fill:#231f20"/><path d="M8.19,99.81V94.62H9v.73a1.81,1.81,0,0,1,.65-.61,1.77,1.77,0,0,1,.92-.23,1.81,1.81,0,0,1,1,.23,1.34,1.34,0,0,1,.52.67,1.86,1.86,0,0,1,1.6-.9,1.61,1.61,0,0,1,1.19.42,1.88,1.88,0,0,1,.41,1.32v3.56h-.87V96.54a2.32,2.32,0,0,0-.09-.76.74.74,0,0,0-.31-.37.91.91,0,0,0-.53-.14,1.22,1.22,0,0,0-.9.36,1.61,1.61,0,0,0-.36,1.17v3h-.88V96.44a1.52,1.52,0,0,0-.22-.88.8.8,0,0,0-.7-.29,1.28,1.28,0,0,0-.69.19,1.07,1.07,0,0,0-.45.57,3.09,3.09,0,0,0-.15,1.09v2.69Z" style="fill:#231f20"/><path d="M19.9,99.17a3.16,3.16,0,0,1-.94.58,2.61,2.61,0,0,1-1,.18,1.86,1.86,0,0,1-1.31-.42,1.38,1.38,0,0,1-.46-1.07,1.36,1.36,0,0,1,.17-.69,1.59,1.59,0,0,1,.45-.51,2.2,2.2,0,0,1,.64-.29,6.85,6.85,0,0,1,.78-.13,8.39,8.39,0,0,0,1.57-.3v-.23a1,1,0,0,0-.25-.76,1.46,1.46,0,0,0-1-.3,1.49,1.49,0,0,0-.91.22,1.3,1.3,0,0,0-.44.77l-.86-.12a2.28,2.28,0,0,1,.38-.89,1.65,1.65,0,0,1,.78-.52,3.53,3.53,0,0,1,1.18-.18,3.26,3.26,0,0,1,1.08.15,1.61,1.61,0,0,1,.61.39,1.38,1.38,0,0,1,.27.6,5,5,0,0,1,0,.81v1.18a11.75,11.75,0,0,0,.06,1.55,2.09,2.09,0,0,0,.22.62h-.92A1.77,1.77,0,0,1,19.9,99.17Zm-.07-2a6.45,6.45,0,0,1-1.44.33,3.64,3.64,0,0,0-.77.17.8.8,0,0,0-.47.71.73.73,0,0,0,.27.58,1.14,1.14,0,0,0,.78.24,1.77,1.77,0,0,0,.9-.23,1.29,1.29,0,0,0,.58-.6,2,2,0,0,0,.15-.88Z" style="fill:#231f20"/><path d="M21.49,99.81l1.9-2.7-1.76-2.49h1.1l.8,1.22c.15.23.27.42.36.58q.21-.33.39-.57l.88-1.23h1.05l-1.79,2.44,1.92,2.75H25.27L24.2,98.2l-.28-.44-1.36,2Z" style="fill:#231f20"/><path d="M29.85,99.81V94.62h.79v.79a2,2,0,0,1,.56-.73.93.93,0,0,1,.56-.17,1.66,1.66,0,0,1,.9.28l-.3.81a1.31,1.31,0,0,0-.64-.19.8.8,0,0,0-.52.18.89.89,0,0,0-.33.48,3.31,3.31,0,0,0-.15,1v2.72Z" style="fill:#231f20"/><path d="M36.73,98.14l.91.11a2.27,2.27,0,0,1-.79,1.24,2.44,2.44,0,0,1-1.49.44,2.35,2.35,0,0,1-1.8-.71,2.69,2.69,0,0,1-.67-2,2.86,2.86,0,0,1,.68-2,2.28,2.28,0,0,1,1.74-.72,2.21,2.21,0,0,1,1.7.7,2.84,2.84,0,0,1,.66,2v.23H33.8a2,2,0,0,0,.48,1.31,1.45,1.45,0,0,0,1.09.45,1.33,1.33,0,0,0,.82-.25A1.65,1.65,0,0,0,36.73,98.14Zm-2.88-1.42h2.89a1.67,1.67,0,0,0-.33-1,1.34,1.34,0,0,0-1.09-.51,1.37,1.37,0,0,0-1,.4A1.59,1.59,0,0,0,33.85,96.72Z" style="fill:#231f20"/><path d="M38.75,101.8V94.62h.8v.68a2,2,0,0,1,.64-.6,1.74,1.74,0,0,1,.86-.19,2,2,0,0,1,1.17.34,2.1,2.1,0,0,1,.77,1,3.59,3.59,0,0,1,.26,1.37A3.48,3.48,0,0,1,43,98.61a2.17,2.17,0,0,1-2,1.32,1.68,1.68,0,0,1-.79-.19,1.75,1.75,0,0,1-.57-.47v2.53Zm.79-4.56A2.24,2.24,0,0,0,40,98.72a1.23,1.23,0,0,0,1,.48,1.26,1.26,0,0,0,1-.49,2.36,2.36,0,0,0,.42-1.54,2.29,2.29,0,0,0-.41-1.48,1.22,1.22,0,0,0-1-.5,1.28,1.28,0,0,0-1,.53A2.39,2.39,0,0,0,39.54,97.24Z" style="fill:#231f20"/><path d="M47.86,98.14l.91.11a2.28,2.28,0,0,1-.8,1.24,2.68,2.68,0,0,1-3.29-.27,2.73,2.73,0,0,1-.66-2,2.86,2.86,0,0,1,.67-2,2.28,2.28,0,0,1,1.75-.72,2.23,2.23,0,0,1,1.7.7,2.84,2.84,0,0,1,.66,2c0,.05,0,.13,0,.23H44.92a2,2,0,0,0,.49,1.31,1.44,1.44,0,0,0,1.08.45,1.36,1.36,0,0,0,.83-.25A1.8,1.8,0,0,0,47.86,98.14ZM45,96.72h2.9a1.74,1.74,0,0,0-.33-1,1.36,1.36,0,0,0-1.09-.51,1.38,1.38,0,0,0-1,.4A1.59,1.59,0,0,0,45,96.72Z" style="fill:#231f20"/><path d="M53.25,99.17a3,3,0,0,1-.94.58,2.58,2.58,0,0,1-1,.18A1.87,1.87,0,0,1,50,99.51a1.48,1.48,0,0,1,.17-2.27,2.26,2.26,0,0,1,.63-.29,6.85,6.85,0,0,1,.78-.13,8.39,8.39,0,0,0,1.57-.3c0-.12,0-.2,0-.23a1,1,0,0,0-.25-.76,1.48,1.48,0,0,0-1-.3,1.52,1.52,0,0,0-.92.22,1.36,1.36,0,0,0-.44.77l-.86-.12a2.15,2.15,0,0,1,.39-.89,1.65,1.65,0,0,1,.78-.52,3.47,3.47,0,0,1,1.17-.18,3.26,3.26,0,0,1,1.08.15,1.53,1.53,0,0,1,.61.39,1.38,1.38,0,0,1,.27.6,4.68,4.68,0,0,1,0,.81v1.18a11.75,11.75,0,0,0,.06,1.55,1.85,1.85,0,0,0,.22.62h-.92A2,2,0,0,1,53.25,99.17Zm-.07-2a6.45,6.45,0,0,1-1.44.33,3.51,3.51,0,0,0-.76.17.77.77,0,0,0-.35.29.74.74,0,0,0-.12.42.73.73,0,0,0,.27.58,1.09,1.09,0,0,0,.77.24,1.84,1.84,0,0,0,.91-.23,1.34,1.34,0,0,0,.58-.6,2.2,2.2,0,0,0,.14-.88Z" style="fill:#231f20"/><path d="M57.35,99l.13.78a3.47,3.47,0,0,1-.67.08,1.4,1.4,0,0,1-.74-.16.87.87,0,0,1-.37-.39,3.2,3.2,0,0,1-.11-1v-3H55v-.69h.64V93.34l.88-.53v1.81h.88v.69h-.88v3a1.6,1.6,0,0,0,0,.48.35.35,0,0,0,.15.17.51.51,0,0,0,.3.07A2.13,2.13,0,0,0,57.35,99Z" style="fill:#231f20"/><path d="M61,99.81V92.65h.88v7.16Z" style="fill:#231f20"/><path d="M66.76,98.14l.91.11a2.28,2.28,0,0,1-.8,1.24,2.68,2.68,0,0,1-3.29-.27,2.73,2.73,0,0,1-.66-2,2.86,2.86,0,0,1,.67-2,2.28,2.28,0,0,1,1.75-.72,2.23,2.23,0,0,1,1.7.7,2.84,2.84,0,0,1,.66,2,2.2,2.2,0,0,1,0,.23H63.82a2,2,0,0,0,.49,1.31,1.44,1.44,0,0,0,1.08.45,1.36,1.36,0,0,0,.83-.25A1.65,1.65,0,0,0,66.76,98.14Zm-2.89-1.42h2.9a1.74,1.74,0,0,0-.33-1,1.36,1.36,0,0,0-1.09-.51,1.38,1.38,0,0,0-1,.4A1.63,1.63,0,0,0,63.87,96.72Z" style="fill:#231f20"/><path d="M68.77,99.81V94.62h.79v.74a1.86,1.86,0,0,1,1.65-.85,2.2,2.2,0,0,1,.86.16,1.33,1.33,0,0,1,.59.45,1.78,1.78,0,0,1,.28.64,5.76,5.76,0,0,1,0,.86v3.19h-.87V96.65a2.32,2.32,0,0,0-.11-.8.78.78,0,0,0-.36-.42,1.11,1.11,0,0,0-.61-.16,1.44,1.44,0,0,0-1,.35A1.78,1.78,0,0,0,69.65,97v2.83Z" style="fill:#231f20"/><path d="M74.17,100.24l.86.12a.79.79,0,0,0,.29.58,1.5,1.5,0,0,0,.9.24,1.59,1.59,0,0,0,.94-.24,1.21,1.21,0,0,0,.45-.68,5.66,5.66,0,0,0,.06-1.13,1.8,1.8,0,0,1-1.43.68A2,2,0,0,1,74.58,99,3,3,0,0,1,74,97.19a3.38,3.38,0,0,1,.26-1.37,2.16,2.16,0,0,1,.78-1,2.09,2.09,0,0,1,1.2-.34,1.86,1.86,0,0,1,1.52.74v-.63h.81V99.1a4.34,4.34,0,0,1-.25,1.72,1.88,1.88,0,0,1-.78.8,2.8,2.8,0,0,1-1.32.29,2.54,2.54,0,0,1-1.5-.41A1.43,1.43,0,0,1,74.17,100.24Zm.73-3.12a2.25,2.25,0,0,0,.4,1.49,1.34,1.34,0,0,0,2,0,2.18,2.18,0,0,0,.41-1.46,2.12,2.12,0,0,0-.43-1.43,1.28,1.28,0,0,0-1-.49,1.25,1.25,0,0,0-1,.48A2.14,2.14,0,0,0,74.9,97.12Z" style="fill:#231f20"/><path d="M81.81,99l.13.78a3.46,3.46,0,0,1-.66.08,1.44,1.44,0,0,1-.75-.16.87.87,0,0,1-.37-.39,3.29,3.29,0,0,1-.1-1v-3h-.65v-.69h.65V93.34l.87-.53v1.81h.88v.69h-.88v3a1.24,1.24,0,0,0,0,.48.35.35,0,0,0,.15.17.51.51,0,0,0,.3.07A2.12,2.12,0,0,0,81.81,99Z" style="fill:#231f20"/><path d="M82.67,99.81V92.65h.88v2.57a2,2,0,0,1,1.55-.71,2.08,2.08,0,0,1,1,.22,1.28,1.28,0,0,1,.61.63,2.9,2.9,0,0,1,.19,1.16v3.29H86V96.52a1.36,1.36,0,0,0-.29-1,1.06,1.06,0,0,0-.81-.3,1.37,1.37,0,0,0-.73.21,1.11,1.11,0,0,0-.49.54,2.51,2.51,0,0,0-.15,1v2.84Z" style="fill:#231f20"/><path d="M46.79,90.81V88.57H44.54V87h2.25V84.8h1.5V87h2.26v1.54H48.29v2.24Z" style="fill:#231f20"/><path d="M26.29,12l.86.12a2.23,2.23,0,0,1-.72,1.39,2.11,2.11,0,0,1-1.44.51,2.2,2.2,0,0,1-1.71-.7,2.8,2.8,0,0,1-.65-2,3.71,3.71,0,0,1,.28-1.47A2,2,0,0,1,23.76,9,2.52,2.52,0,0,1,25,8.63a2.13,2.13,0,0,1,1.38.43,1.94,1.94,0,0,1,.69,1.21l-.86.13a1.35,1.35,0,0,0-.43-.78A1.11,1.11,0,0,0,25,9.35,1.37,1.37,0,0,0,24,9.83a2.31,2.31,0,0,0-.41,1.51,2.29,2.29,0,0,0,.4,1.51,1.29,1.29,0,0,0,1,.48,1.24,1.24,0,0,0,.87-.32A1.63,1.63,0,0,0,26.29,12Z" style="fill:#231f20"/><path d="M31.29,13.29a3.21,3.21,0,0,1-.94.59,2.83,2.83,0,0,1-1,.17,1.9,1.9,0,0,1-1.32-.42,1.39,1.39,0,0,1-.46-1.06,1.38,1.38,0,0,1,.18-.7,1.48,1.48,0,0,1,.45-.51,2.24,2.24,0,0,1,.63-.28,7.06,7.06,0,0,1,.79-.14,7.37,7.37,0,0,0,1.56-.3c0-.12,0-.19,0-.23A.93.93,0,0,0,31,9.66a1.48,1.48,0,0,0-1-.3,1.6,1.6,0,0,0-.92.21,1.39,1.39,0,0,0-.43.77l-.86-.11a2,2,0,0,1,.38-.89,1.74,1.74,0,0,1,.78-.53,3.53,3.53,0,0,1,1.18-.18,2.91,2.91,0,0,1,1.07.16,1.34,1.34,0,0,1,.61.39,1.29,1.29,0,0,1,.28.6,5,5,0,0,1,0,.81v1.17a11.65,11.65,0,0,0,.06,1.55,2,2,0,0,0,.22.62h-.92A1.72,1.72,0,0,1,31.29,13.29Zm-.08-2a6.34,6.34,0,0,1-1.43.33,3,3,0,0,0-.77.18.81.81,0,0,0-.35.28.79.79,0,0,0-.12.42.75.75,0,0,0,.27.59,1.19,1.19,0,0,0,.78.23,1.77,1.77,0,0,0,.9-.22,1.37,1.37,0,0,0,.58-.61,2,2,0,0,0,.14-.88Z" style="fill:#231f20"/><path d="M33.46,13.93V8.75h.8v.73a1.86,1.86,0,0,1,1.65-.85,2.2,2.2,0,0,1,.86.17,1.37,1.37,0,0,1,.59.44,1.66,1.66,0,0,1,.27.65,5.26,5.26,0,0,1,0,.85v3.19H36.8V10.78a2.28,2.28,0,0,0-.1-.8.85.85,0,0,0-.37-.43,1.11,1.11,0,0,0-.61-.16,1.42,1.42,0,0,0-1,.36,1.77,1.77,0,0,0-.41,1.35v2.83Z" style="fill:#231f20"/><path d="M42.39,13.93v-.65a1.62,1.62,0,0,1-1.45.77,2,2,0,0,1-1.14-.34,2.25,2.25,0,0,1-.81-1,3.24,3.24,0,0,1-.28-1.4A3.54,3.54,0,0,1,39,9.94a2,2,0,0,1,.77-1,2,2,0,0,1,1.16-.34,1.8,1.8,0,0,1,.84.2,1.72,1.72,0,0,1,.59.51V6.77h.88v7.16Zm-2.78-2.58A2.22,2.22,0,0,0,40,12.83a1.27,1.27,0,0,0,1,.5,1.25,1.25,0,0,0,1-.47,2.19,2.19,0,0,0,.4-1.44A2.39,2.39,0,0,0,42,9.86a1.26,1.26,0,0,0-2,0A2.38,2.38,0,0,0,39.61,11.35Z" style="fill:#231f20"/><path d="M44.59,7.79v-1h.88v1Zm0,6.14V8.75h.88v5.18Z" style="fill:#231f20"/><path d="M50.17,13.93v-.65a1.62,1.62,0,0,1-1.45.77,2,2,0,0,1-1.14-.34,2.3,2.3,0,0,1-.8-1,3.24,3.24,0,0,1-.29-1.4,3.73,3.73,0,0,1,.26-1.41,2,2,0,0,1,.78-1,2,2,0,0,1,1.15-.34,1.77,1.77,0,0,1,.84.2,1.72,1.72,0,0,1,.59.51V6.77H51v7.16ZM47.4,11.35a2.27,2.27,0,0,0,.41,1.48,1.29,1.29,0,0,0,1,.5,1.26,1.26,0,0,0,1-.47,2.25,2.25,0,0,0,.4-1.44,2.45,2.45,0,0,0-.41-1.56,1.25,1.25,0,0,0-1-.5,1.22,1.22,0,0,0-1,.48A2.38,2.38,0,0,0,47.4,11.35Z" style="fill:#231f20"/><path d="M55.75,13.29a3,3,0,0,1-.94.59,2.77,2.77,0,0,1-1,.17,1.9,1.9,0,0,1-1.32-.42,1.39,1.39,0,0,1-.46-1.06,1.5,1.5,0,0,1,.63-1.21,2.24,2.24,0,0,1,.63-.28,6.8,6.8,0,0,1,.78-.14,7.49,7.49,0,0,0,1.57-.3c0-.12,0-.19,0-.23a1,1,0,0,0-.25-.75,1.48,1.48,0,0,0-1-.3,1.6,1.6,0,0,0-.92.21,1.39,1.39,0,0,0-.44.77l-.86-.11a2.09,2.09,0,0,1,.39-.89,1.74,1.74,0,0,1,.78-.53,3.47,3.47,0,0,1,1.17-.18,2.93,2.93,0,0,1,1.08.16,1.34,1.34,0,0,1,.61.39,1.52,1.52,0,0,1,.28.6,5,5,0,0,1,0,.81v1.17a11.65,11.65,0,0,0,.06,1.55,1.77,1.77,0,0,0,.22.62h-.92A1.93,1.93,0,0,1,55.75,13.29Zm-.07-2a6.48,6.48,0,0,1-1.43.33,2.89,2.89,0,0,0-.77.18.76.76,0,0,0-.35.28.79.79,0,0,0-.12.42.75.75,0,0,0,.27.59,1.15,1.15,0,0,0,.78.23,1.82,1.82,0,0,0,.9-.22,1.37,1.37,0,0,0,.58-.61,2.2,2.2,0,0,0,.14-.88Z" style="fill:#231f20"/><path d="M59.85,13.15l.13.77a2.83,2.83,0,0,1-.67.08,1.54,1.54,0,0,1-.74-.15.84.84,0,0,1-.37-.4,3.16,3.16,0,0,1-.11-1v-3h-.64V8.75h.64V7.46L59,6.94V8.75h.88v.68H59v3A1.73,1.73,0,0,0,59,13a.43.43,0,0,0,.16.17.56.56,0,0,0,.3.06Z" style="fill:#231f20"/><path d="M64.26,12.26l.91.12a2.17,2.17,0,0,1-.8,1.23,2.7,2.7,0,0,1-3.29-.26,2.76,2.76,0,0,1-.66-2,2.86,2.86,0,0,1,.67-2,2.28,2.28,0,0,1,1.75-.72,2.23,2.23,0,0,1,1.7.71,2.8,2.8,0,0,1,.66,2,2.2,2.2,0,0,1,0,.23H61.33a2,2,0,0,0,.48,1.31,1.41,1.41,0,0,0,1.08.46,1.35,1.35,0,0,0,.83-.26A1.65,1.65,0,0,0,64.26,12.26Zm-2.89-1.42h2.9a1.8,1.8,0,0,0-.33-1,1.36,1.36,0,0,0-1.09-.51,1.42,1.42,0,0,0-1,.41A1.63,1.63,0,0,0,61.37,10.84Z" style="fill:#231f20"/><path d="M8.3,26.36l.85.13a.86.86,0,0,0,.3.58,1.49,1.49,0,0,0,.89.24,1.61,1.61,0,0,0,.95-.24,1.24,1.24,0,0,0,.45-.69,6.51,6.51,0,0,0,.06-1.13,1.78,1.78,0,0,1-1.44.68,1.93,1.93,0,0,1-1.65-.77,3,3,0,0,1-.59-1.85,3.45,3.45,0,0,1,.27-1.37,2.16,2.16,0,0,1,.78-1,2.09,2.09,0,0,1,1.2-.34,1.86,1.86,0,0,1,1.51.74v-.62h.81v4.48A4.38,4.38,0,0,1,12.45,27a1.86,1.86,0,0,1-.78.79,2.68,2.68,0,0,1-1.32.3,2.47,2.47,0,0,1-1.5-.42A1.43,1.43,0,0,1,8.3,26.36ZM9,23.25a2.27,2.27,0,0,0,.4,1.49,1.33,1.33,0,0,0,2,0,2.14,2.14,0,0,0,.41-1.46,2.13,2.13,0,0,0-.42-1.44,1.31,1.31,0,0,0-1-.48,1.27,1.27,0,0,0-1,.47A2.09,2.09,0,0,0,9,23.25Z" style="fill:#231f20"/><path d="M17.57,24.26l.91.12a2.17,2.17,0,0,1-.8,1.23,2.39,2.39,0,0,1-1.48.44,2.38,2.38,0,0,1-1.81-.7,2.76,2.76,0,0,1-.66-2,2.86,2.86,0,0,1,.67-2,2.28,2.28,0,0,1,1.75-.72,2.23,2.23,0,0,1,1.7.71,2.8,2.8,0,0,1,.66,2,2.2,2.2,0,0,1,0,.23H14.64a2,2,0,0,0,.48,1.31,1.41,1.41,0,0,0,1.08.46,1.35,1.35,0,0,0,.83-.26A1.65,1.65,0,0,0,17.57,24.26Zm-2.88-1.42h2.89a1.8,1.8,0,0,0-.33-1,1.34,1.34,0,0,0-1.09-.51,1.42,1.42,0,0,0-1,.41A1.57,1.57,0,0,0,14.69,22.84Z" style="fill:#231f20"/><path d="M19.58,25.93V20.75h.79v.73A1.86,1.86,0,0,1,22,20.63a2.25,2.25,0,0,1,.87.17,1.34,1.34,0,0,1,.58.44,1.67,1.67,0,0,1,.28.65,5.26,5.26,0,0,1,.05.85v3.19h-.88V22.78a2.24,2.24,0,0,0-.11-.8.79.79,0,0,0-.36-.43,1.11,1.11,0,0,0-.61-.16,1.4,1.4,0,0,0-1,.36,1.77,1.77,0,0,0-.41,1.35v2.83Z" style="fill:#231f20"/><path d="M28.69,24.26l.91.12a2.21,2.21,0,0,1-.79,1.23,2.44,2.44,0,0,1-1.49.44,2.34,2.34,0,0,1-1.8-.7,2.72,2.72,0,0,1-.67-2,2.9,2.9,0,0,1,.67-2,2.3,2.3,0,0,1,1.75-.72,2.22,2.22,0,0,1,1.7.71,2.8,2.8,0,0,1,.66,2v.23H25.76a2,2,0,0,0,.48,1.31,1.42,1.42,0,0,0,1.09.46,1.34,1.34,0,0,0,.82-.26A1.65,1.65,0,0,0,28.69,24.26Zm-2.88-1.42H28.7a1.8,1.8,0,0,0-.33-1,1.34,1.34,0,0,0-1.09-.51,1.42,1.42,0,0,0-1,.41A1.62,1.62,0,0,0,25.81,22.84Z" style="fill:#231f20"/><path d="M32.62,25.15l.13.77a2.81,2.81,0,0,1-.66.08,1.49,1.49,0,0,1-.74-.15.86.86,0,0,1-.38-.4,3.25,3.25,0,0,1-.1-1v-3h-.65v-.68h.65V19.46l.87-.52v1.81h.88v.68h-.88v3a1.62,1.62,0,0,0,.05.49.4.4,0,0,0,.15.17.61.61,0,0,0,.3.06Z" style="fill:#231f20"/><path d="M33.49,19.79v-1h.88v1Zm0,6.14V20.75h.88v5.18Z" style="fill:#231f20"/><path d="M39.09,24l.86.12a2.18,2.18,0,0,1-.72,1.39,2.11,2.11,0,0,1-1.43.51,2.24,2.24,0,0,1-1.72-.7,2.8,2.8,0,0,1-.64-2,3.54,3.54,0,0,1,.28-1.47,1.89,1.89,0,0,1,.84-.94,2.52,2.52,0,0,1,1.24-.32,2.13,2.13,0,0,1,1.38.43,1.94,1.94,0,0,1,.69,1.21L39,22.4a1.41,1.41,0,0,0-.44-.78,1.08,1.08,0,0,0-.75-.27,1.34,1.34,0,0,0-1.07.48,2.25,2.25,0,0,0-.42,1.51,2.29,2.29,0,0,0,.4,1.51,1.31,1.31,0,0,0,1,.48,1.24,1.24,0,0,0,.86-.32A1.58,1.58,0,0,0,39.09,24Z" style="fill:#231f20"/><path d="M43.48,27.92V20.75h.8v.67a2.08,2.08,0,0,1,.64-.59,1.8,1.8,0,0,1,.87-.2A2,2,0,0,1,47,21a2.14,2.14,0,0,1,.77,1A3.54,3.54,0,0,1,48,23.3a3.45,3.45,0,0,1-.29,1.43,2.17,2.17,0,0,1-.83,1,2.08,2.08,0,0,1-1.14.34,1.57,1.57,0,0,1-.79-.19,1.79,1.79,0,0,1-.58-.46v2.52Zm.8-4.55a2.25,2.25,0,0,0,.41,1.48,1.23,1.23,0,0,0,1,.48,1.27,1.27,0,0,0,1-.5,2.33,2.33,0,0,0,.42-1.53,2.32,2.32,0,0,0-.41-1.49,1.22,1.22,0,0,0-1-.49,1.27,1.27,0,0,0-1,.52A2.34,2.34,0,0,0,44.28,23.37Z" style="fill:#231f20"/><path d="M52.43,25.29a3.21,3.21,0,0,1-.94.59,2.78,2.78,0,0,1-1,.17,1.86,1.86,0,0,1-1.31-.42,1.36,1.36,0,0,1-.46-1.06,1.48,1.48,0,0,1,.17-.7,1.51,1.51,0,0,1,.46-.51,2,2,0,0,1,.63-.28,6.4,6.4,0,0,1,.78-.14,7.64,7.64,0,0,0,1.57-.3v-.23a.93.93,0,0,0-.25-.75,1.46,1.46,0,0,0-1-.3,1.57,1.57,0,0,0-.91.21,1.34,1.34,0,0,0-.44.77l-.86-.11a2.22,2.22,0,0,1,.38-.89,1.74,1.74,0,0,1,.78-.53,3.53,3.53,0,0,1,1.18-.18,3,3,0,0,1,1.08.16,1.4,1.4,0,0,1,.61.39,1.38,1.38,0,0,1,.27.6,5,5,0,0,1,0,.81v1.17a11.65,11.65,0,0,0,.06,1.55,2,2,0,0,0,.22.62H52.6A1.93,1.93,0,0,1,52.43,25.29Zm-.07-2a6.45,6.45,0,0,1-1.44.33,3,3,0,0,0-.77.18.73.73,0,0,0-.34.28.79.79,0,0,0-.12.42.74.74,0,0,0,.26.59,1.19,1.19,0,0,0,.78.23,1.77,1.77,0,0,0,.9-.22,1.31,1.31,0,0,0,.58-.61,2,2,0,0,0,.15-.88Z" style="fill:#231f20"/><path d="M54.6,25.93V20.75h.79v.78a2.1,2.1,0,0,1,.56-.72,1,1,0,0,1,.56-.18,1.66,1.66,0,0,1,.9.28l-.3.82a1.21,1.21,0,0,0-.64-.19.87.87,0,0,0-.52.17,1,1,0,0,0-.33.48,3.42,3.42,0,0,0-.14,1v2.71Z" style="fill:#231f20"/><path d="M59.86,25.15l.12.77a2.75,2.75,0,0,1-.66.08,1.49,1.49,0,0,1-.74-.15.79.79,0,0,1-.37-.4,2.9,2.9,0,0,1-.11-1v-3h-.65v-.68h.65V19.46l.87-.52v1.81h.89v.68H59v3A1.62,1.62,0,0,0,59,25a.4.4,0,0,0,.15.17.61.61,0,0,0,.3.06Z" style="fill:#231f20"/><path d="M60.36,24.39l.87-.14a1.24,1.24,0,0,0,.41.8,1.46,1.46,0,0,0,.94.28,1.31,1.31,0,0,0,.89-.25.73.73,0,0,0,.3-.58.55.55,0,0,0-.26-.47,4.38,4.38,0,0,0-.9-.29,8.85,8.85,0,0,1-1.34-.43,1.31,1.31,0,0,1-.57-.49,1.37,1.37,0,0,1,0-1.34A1.44,1.44,0,0,1,61.1,21a1.62,1.62,0,0,1,.56-.25,2.68,2.68,0,0,1,.76-.11,2.93,2.93,0,0,1,1.07.18,1.36,1.36,0,0,1,.68.47,1.88,1.88,0,0,1,.31.81l-.86.11a1,1,0,0,0-.34-.62,1.27,1.27,0,0,0-.8-.23,1.45,1.45,0,0,0-.86.2.6.6,0,0,0-.26.47.49.49,0,0,0,.11.31.77.77,0,0,0,.33.23c.09,0,.35.11.78.23a8.91,8.91,0,0,1,1.3.41,1.23,1.23,0,0,1,.79,1.21,1.5,1.5,0,0,1-.26.83,1.59,1.59,0,0,1-.74.6,2.68,2.68,0,0,1-1.09.21A2.44,2.44,0,0,1,61,25.63,2,2,0,0,1,60.36,24.39Z" style="fill:#231f20"/><path d="M68.47,25.93V18.77h.88v7.16Z" style="fill:#231f20"/><path d="M70.72,19.79v-1h.88v1Zm0,6.14V20.75h.88v5.18Z" style="fill:#231f20"/><path d="M72.59,24.39l.86-.14a1.24,1.24,0,0,0,.41.8,1.48,1.48,0,0,0,.94.28,1.36,1.36,0,0,0,.9-.25A.75.75,0,0,0,76,24.5a.55.55,0,0,0-.26-.47,4.38,4.38,0,0,0-.9-.29,8.85,8.85,0,0,1-1.34-.43,1.31,1.31,0,0,1-.57-.49,1.38,1.38,0,0,1-.19-.7,1.29,1.29,0,0,1,.16-.64,1.55,1.55,0,0,1,.43-.49,1.72,1.72,0,0,1,.56-.25,2.68,2.68,0,0,1,.76-.11,2.89,2.89,0,0,1,1.07.18,1.36,1.36,0,0,1,.68.47,1.88,1.88,0,0,1,.31.81l-.86.11a.94.94,0,0,0-.34-.62,1.25,1.25,0,0,0-.8-.23,1.45,1.45,0,0,0-.86.2.6.6,0,0,0-.26.47.49.49,0,0,0,.11.31.75.75,0,0,0,.34.23c.08,0,.34.11.77.23a8.91,8.91,0,0,1,1.3.41,1.23,1.23,0,0,1,.79,1.21,1.49,1.49,0,0,1-.25.83,1.7,1.7,0,0,1-.74.6,2.77,2.77,0,0,1-1.1.21,2.44,2.44,0,0,1-1.54-.42A1.91,1.91,0,0,1,72.59,24.39Z" style="fill:#231f20"/><path d="M79.86,25.15l.12.77a2.75,2.75,0,0,1-.66.08,1.49,1.49,0,0,1-.74-.15.79.79,0,0,1-.37-.4,2.9,2.9,0,0,1-.11-1v-3h-.65v-.68h.65V19.46l.87-.52v1.81h.89v.68H79v3A1.62,1.62,0,0,0,79,25a.4.4,0,0,0,.15.17.61.61,0,0,0,.3.06Z" style="fill:#231f20"/><rect x="14.18" y="47.52" width="9.11" height="3.6" style="fill:#9fdcf2"/><rect x="23.29" y="47.52" width="9.11" height="3.6" style="fill:#9fdcf2"/><rect x="32.4" y="47.52" width="9.11" height="3.6" style="fill:#9fdcf2"/><rect x="41.51" y="47.52" width="9.11" height="3.6" style="fill:#9fdcf2"/><rect x="50.62" y="47.52" width="9.11" height="3.6" style="fill:#9fdcf2"/><rect x="59.72" y="47.52" width="9.11" height="3.6" style="fill:#9fdcf2"/><rect x="68.83" y="47.52" width="9.11" height="3.6" style="fill:#9fdcf2"/><rect x="14.18" y="39.92" width="9.11" height="3.6" style="fill:#9fdcf2"/><rect x="23.29" y="39.92" width="9.11" height="3.6" style="fill:#9fdcf2"/><rect x="32.4" y="39.92" width="9.11" height="3.6" style="fill:#9fdcf2"/><rect x="41.51" y="39.92" width="9.11" height="3.6" style="fill:#9fdcf2"/><rect x="50.62" y="39.92" width="9.11" height="3.6" style="fill:#9fdcf2"/><rect x="59.72" y="39.92" width="9.11" height="3.6" style="fill:#9fdcf2"/><rect x="68.83" y="39.92" width="9.11" height="3.6" style="fill:#9fdcf2"/><rect x="14.18" y="77.64" width="9.11" height="3.6" style="fill:#9fdcf2"/><rect x="23.29" y="77.64" width="9.11" height="3.6" style="fill:#9fdcf2"/><rect x="32.4" y="77.64" width="9.11" height="3.6" style="fill:#9fdcf2"/><rect x="41.51" y="77.64" width="9.11" height="3.6" style="fill:#9fdcf2"/><rect x="50.62" y="77.64" width="9.11" height="3.6" style="fill:#9fdcf2"/><rect x="59.72" y="77.64" width="9.11" height="3.6" style="fill:#9fdcf2"/><rect x="68.83" y="77.64" width="9.11" height="3.6" style="fill:#9fdcf2"/><rect x="14.18" y="55.12" width="9.11" height="3.6" style="fill:#9fdcf2"/><rect x="23.29" y="55.12" width="9.11" height="3.6" style="fill:#9fdcf2"/><rect x="32.4" y="55.12" width="9.11" height="3.6" style="fill:#9fdcf2"/><rect x="41.51" y="55.12" width="9.11" height="3.6" style="fill:#9fdcf2"/><rect x="50.62" y="55.12" width="9.11" height="3.6" style="fill:#9fdcf2"/><rect x="59.72" y="55.12" width="9.11" height="3.6" style="fill:#9fdcf2"/><rect x="68.83" y="55.12" width="9.11" height="3.6" style="fill:#9fdcf2"/><circle cx="46.06" cy="68.72" r="0.69" style="fill:#231f20"/><circle cx="46.06" cy="75.16" r="0.69" style="fill:#231f20"/><circle cx="46.06" cy="71.94" r="0.69" style="fill:#231f20"/><path d="M11,43.41V44H7.7a1.05,1.05,0,0,1,.07-.43,2.24,2.24,0,0,1,.4-.67A7,7,0,0,1,9,42.14a6.66,6.66,0,0,0,1.1-1.06,1.22,1.22,0,0,0,.29-.74.82.82,0,0,0-.26-.61,1,1,0,0,0-1.39,0,1,1,0,0,0-.27.74l-.64-.07a1.56,1.56,0,0,1,.49-1.07A1.68,1.68,0,0,1,9.44,39a1.57,1.57,0,0,1,1.14.4,1.29,1.29,0,0,1,.42,1,1.56,1.56,0,0,1-.12.59,2.25,2.25,0,0,1-.41.61,9.15,9.15,0,0,1-1,.88c-.37.31-.6.52-.71.63a2,2,0,0,0-.26.34Z" style="fill:#231f20"/><rect x="14.18" y="32.27" width="9.11" height="3.6" style="fill:#9fdcf2"/><rect x="23.29" y="32.27" width="9.11" height="3.6" style="fill:#9fdcf2"/><rect x="32.4" y="32.27" width="9.11" height="3.6" style="fill:#9fdcf2"/><rect x="41.51" y="32.27" width="9.11" height="3.6" style="fill:#9fdcf2"/><rect x="50.62" y="32.27" width="9.11" height="3.6" style="fill:#9fdcf2"/><rect x="59.72" y="32.27" width="9.11" height="3.6" style="fill:#9fdcf2"/><rect x="68.83" y="32.27" width="9.11" height="3.6" style="fill:#9fdcf2"/><path d="M10.09,36.35H9.48V32.43a3.23,3.23,0,0,1-.58.42,4.28,4.28,0,0,1-.65.32v-.6a3.76,3.76,0,0,0,.9-.58,2.42,2.42,0,0,0,.55-.67h.39Z" style="fill:#231f20"/><path d="M7.78,50.27l.62-.08a1.32,1.32,0,0,0,.36.75.86.86,0,0,0,.62.24,1,1,0,0,0,.73-.3,1,1,0,0,0,.3-.75.93.93,0,0,0-.28-.7,1,1,0,0,0-.7-.27,2.07,2.07,0,0,0-.44.06l.07-.54h.1a1.33,1.33,0,0,0,.71-.2.71.71,0,0,0,.31-.64.73.73,0,0,0-.23-.56.9.9,0,0,0-1.19,0,1.08,1.08,0,0,0-.3.67l-.62-.11a1.6,1.6,0,0,1,.51-1,1.48,1.48,0,0,1,1-.34,1.59,1.59,0,0,1,.75.17,1.3,1.3,0,0,1,.53.48,1.26,1.26,0,0,1,.19.65,1,1,0,0,1-.18.59,1.18,1.18,0,0,1-.51.42,1.19,1.19,0,0,1,.69.43,1.3,1.3,0,0,1,.24.81,1.49,1.49,0,0,1-.48,1.11,1.69,1.69,0,0,1-1.21.45,1.57,1.57,0,0,1-1.09-.39A1.51,1.51,0,0,1,7.78,50.27Z" style="fill:#231f20"/><path d="M9.75,59.2V58H7.58v-.57l2.28-3.24h.5v3.24H11V58h-.68v1.2Zm0-1.77V55.17L8.18,57.43Z" style="fill:#231f20"/><rect x="14.18" y="63.12" width="9.11" height="3.6" style="fill:#9fdcf2"/><rect x="23.29" y="63.12" width="9.11" height="3.6" style="fill:#9fdcf2"/><rect x="32.4" y="63.12" width="9.11" height="3.6" style="fill:#9fdcf2"/><rect x="41.51" y="63.12" width="9.11" height="3.6" style="fill:#9fdcf2"/><rect x="50.62" y="63.12" width="9.11" height="3.6" style="fill:#9fdcf2"/><rect x="59.72" y="63.12" width="9.11" height="3.6" style="fill:#9fdcf2"/><rect x="68.83" y="63.12" width="9.11" height="3.6" style="fill:#9fdcf2"/><path d="M7.78,65.88l.64,0a1.16,1.16,0,0,0,.34.71.88.88,0,0,0,.63.24,1,1,0,0,0,.75-.34,1.28,1.28,0,0,0,.31-.89,1.13,1.13,0,0,0-.3-.83,1,1,0,0,0-.77-.3,1.08,1.08,0,0,0-.54.13,1.16,1.16,0,0,0-.38.35l-.57-.07.48-2.58h2.49v.59h-2l-.27,1.35a1.64,1.64,0,0,1,.95-.32,1.52,1.52,0,0,1,1.11.46,1.58,1.58,0,0,1,.45,1.17,1.79,1.79,0,0,1-.4,1.17,1.57,1.57,0,0,1-1.31.61,1.65,1.65,0,0,1-1.12-.38A1.5,1.5,0,0,1,7.78,65.88Z" style="fill:#231f20"/><path d="M1.85,82.6H1.23V78.68a3.23,3.23,0,0,1-.58.42,4.28,4.28,0,0,1-.65.32v-.6a3.57,3.57,0,0,0,.9-.58,2.42,2.42,0,0,0,.55-.67h.4Z" style="fill:#231f20"/><path d="M3.42,80.13A4.61,4.61,0,0,1,3.6,78.7a1.79,1.79,0,0,1,.55-.84,1.36,1.36,0,0,1,.91-.29,1.45,1.45,0,0,1,.7.16,1.35,1.35,0,0,1,.51.47,2.66,2.66,0,0,1,.31.74,5.28,5.28,0,0,1,.11,1.19,4.63,4.63,0,0,1-.18,1.42,1.8,1.8,0,0,1-.54.84,1.44,1.44,0,0,1-.91.29,1.35,1.35,0,0,1-1.14-.52A3.27,3.27,0,0,1,3.42,80.13Zm.63,0a3.16,3.16,0,0,0,.29,1.64.87.87,0,0,0,.72.41.85.85,0,0,0,.71-.41,4.81,4.81,0,0,0,0-3.29.86.86,0,0,0-.72-.41.8.8,0,0,0-.68.36A3.22,3.22,0,0,0,4.05,80.13Z" style="fill:#231f20"/><path d="M10.61,75.71l-.63.05a1.24,1.24,0,0,0-.24-.54.85.85,0,0,0-.64-.28.9.9,0,0,0-.53.17,1.6,1.6,0,0,0-.47.64,3.59,3.59,0,0,0-.18,1.19,1.5,1.5,0,0,1,.56-.51,1.49,1.49,0,0,1,1.77.29,1.66,1.66,0,0,1,.45,1.21,2,2,0,0,1-.21.9,1.5,1.5,0,0,1-.58.64,1.63,1.63,0,0,1-.83.22,1.67,1.67,0,0,1-1.29-.58,3,3,0,0,1-.5-1.92A3.45,3.45,0,0,1,7.85,75a1.58,1.58,0,0,1,1.29-.58,1.44,1.44,0,0,1,1,.34A1.46,1.46,0,0,1,10.61,75.71ZM8,77.93a1.52,1.52,0,0,0,.14.63,1,1,0,0,0,.39.45.93.93,0,0,0,.52.16.88.88,0,0,0,.69-.33,1.25,1.25,0,0,0,.29-.87,1.21,1.21,0,0,0-.28-.85,1,1,0,0,0-.72-.3,1,1,0,0,0-.73.3A1.13,1.13,0,0,0,8,77.93Z" style="fill:#231f20"/><line x1="405.89" y1="59.96" x2="416" y2="59.96" style="fill:none;stroke:#231f20;stroke-miterlimit:10;stroke-width:1.5px"/><polygon points="413.9 62.74 415.08 59.96 413.9 57.19 420.48 59.96 413.9 62.74" style="fill:#231f20"/><path d="M197.37,11.16H196l-1.93-4.81-1,4.81h-1.37L193.18,4h1.37l1.94,4.79,1-4.79h1.37Z" style="fill:#231f20"/><path d="M200.37,11.16h-1.48L200.39,4h3.18a4,4,0,0,1,1.28.16,1.53,1.53,0,0,1,.74.62,2.08,2.08,0,0,1,.28,1.09,2.13,2.13,0,0,1-.55,1.51,2.62,2.62,0,0,1-1.65.73,3.2,3.2,0,0,1,.53.67,18.5,18.5,0,0,1,1.1,2.37h-1.59c-.12-.4-.37-1-.74-1.89a2.17,2.17,0,0,0-.65-.93,1.41,1.41,0,0,0-.73-.14H201Zm.84-4H202A5.23,5.23,0,0,0,203.57,7a1.26,1.26,0,0,0,.61-.44,1.1,1.1,0,0,0,.22-.64.64.64,0,0,0-.32-.58,1.87,1.87,0,0,0-.84-.12h-1.63Z" style="fill:#231f20"/><path d="M207.56,11.16h-1.48L207.58,4h2.91a3.4,3.4,0,0,1,1.23.18,1.44,1.44,0,0,1,.71.6,1.86,1.86,0,0,1,.27,1,2.82,2.82,0,0,1-.21,1.06,2.46,2.46,0,0,1-.52.82,2.15,2.15,0,0,1-.65.46,3.59,3.59,0,0,1-.95.25,12.51,12.51,0,0,1-1.3,0h-.94Zm.81-3.91h.46a5.16,5.16,0,0,0,1.55-.15,1.27,1.27,0,0,0,.62-.47,1.19,1.19,0,0,0,.22-.71.63.63,0,0,0-.43-.66,3.43,3.43,0,0,0-.93-.08h-1.05Z" style="fill:#231f20"/><path d="M220.35,8.59l1.48.22a3.79,3.79,0,0,1-1.3,1.84,3.33,3.33,0,0,1-2,.64,2.66,2.66,0,0,1-2.05-.79,3.26,3.26,0,0,1-.74-2.3A5,5,0,0,1,216.2,6a3.7,3.7,0,0,1,1.37-1.55,3.62,3.62,0,0,1,1.92-.54,2.76,2.76,0,0,1,1.88.63,2.55,2.55,0,0,1,.84,1.69l-1.41.14a1.54,1.54,0,0,0-.45-.91,1.39,1.39,0,0,0-.89-.28,2,2,0,0,0-1.14.37,2.5,2.5,0,0,0-.85,1.16,4.25,4.25,0,0,0-.32,1.58,2,2,0,0,0,.41,1.33,1.33,1.33,0,0,0,1,.46,1.66,1.66,0,0,0,1-.37A2.17,2.17,0,0,0,220.35,8.59Z" style="fill:#231f20"/><path d="M224.35,7.45,223,7.33a2.06,2.06,0,0,1,.81-1.08,2.76,2.76,0,0,1,1.55-.39,2.26,2.26,0,0,1,1.48.4,1.23,1.23,0,0,1,.48,1,4.57,4.57,0,0,1,0,.5c0,.18-.13.64-.29,1.39a7,7,0,0,0-.21,1.3,2.58,2.58,0,0,0,.12.73h-1.36a2.83,2.83,0,0,1-.11-.58,2.14,2.14,0,0,1-.71.52,1.91,1.91,0,0,1-.8.19,1.45,1.45,0,0,1-1.49-1.51,1.57,1.57,0,0,1,.47-1.19,2.61,2.61,0,0,1,1.64-.54,6,6,0,0,0,1.34-.2,1.65,1.65,0,0,0,.09-.47.46.46,0,0,0-.18-.37.83.83,0,0,0-.54-.15,1,1,0,0,0-.59.15A.78.78,0,0,0,224.35,7.45Zm1.34,1.3-.34.06a3.24,3.24,0,0,0-1.38.37.58.58,0,0,0-.23.47.56.56,0,0,0,.18.42.65.65,0,0,0,.46.17,1.28,1.28,0,0,0,.6-.16,1,1,0,0,0,.42-.39,2.91,2.91,0,0,0,.25-.76Z" style="fill:#231f20"/><path d="M227.93,11.16,229.43,4h1.39l-1.49,7.15Z" style="fill:#231f20"/><path d="M234.23,9.21l1.36.22a2.78,2.78,0,0,1-1,1.38,2.53,2.53,0,0,1-1.53.48,2.09,2.09,0,0,1-1.57-.6,2.19,2.19,0,0,1-.58-1.62,3.66,3.66,0,0,1,.35-1.6,2.69,2.69,0,0,1,1.06-1.18,2.9,2.9,0,0,1,1.55-.43,2.16,2.16,0,0,1,1.47.47A1.85,1.85,0,0,1,236,7.59l-1.33.15a1,1,0,0,0-.27-.64.77.77,0,0,0-.57-.21,1.12,1.12,0,0,0-.75.3,1.89,1.89,0,0,0-.54.91,3.66,3.66,0,0,0-.19,1.13,1,1,0,0,0,.22.71.75.75,0,0,0,.56.25,1,1,0,0,0,.65-.25A1.54,1.54,0,0,0,234.23,9.21Z" style="fill:#231f20"/><path d="M237.35,6h1.4l-.64,3.07a4.22,4.22,0,0,0-.11.69.49.49,0,0,0,.16.38.57.57,0,0,0,.43.16.92.92,0,0,0,.36-.07,1.16,1.16,0,0,0,.37-.21,2.73,2.73,0,0,0,.35-.33,2.19,2.19,0,0,0,.28-.49,4.56,4.56,0,0,0,.2-.73L240.67,6h1.4L241,11.16h-1.3l.14-.7a2.65,2.65,0,0,1-1.87.83,1.35,1.35,0,0,1-1-.37,1.3,1.3,0,0,1-.37-1,6.84,6.84,0,0,1,.17-1.07Z" style="fill:#231f20"/><path d="M242.38,11.16,243.88,4h1.39l-1.49,7.15Z" style="fill:#231f20"/><path d="M247.14,7.45l-1.37-.12a2.07,2.07,0,0,1,.82-1.08,2.76,2.76,0,0,1,1.55-.39,2.27,2.27,0,0,1,1.48.4,1.23,1.23,0,0,1,.48,1,3,3,0,0,1,0,.5c0,.18-.12.64-.29,1.39a7.61,7.61,0,0,0-.2,1.3,2.58,2.58,0,0,0,.12.73h-1.37a2.82,2.82,0,0,1-.1-.58,2.14,2.14,0,0,1-.71.52,1.91,1.91,0,0,1-.8.19,1.45,1.45,0,0,1-1.49-1.51,1.6,1.6,0,0,1,.46-1.19,2.66,2.66,0,0,1,1.65-.54,6,6,0,0,0,1.34-.2,1.65,1.65,0,0,0,.09-.47.46.46,0,0,0-.18-.37.83.83,0,0,0-.54-.15,1,1,0,0,0-.59.15A.73.73,0,0,0,247.14,7.45Zm1.33,1.3-.33.06a3.19,3.19,0,0,0-1.38.37.58.58,0,0,0-.23.47.56.56,0,0,0,.18.42.64.64,0,0,0,.46.17,1.28,1.28,0,0,0,.6-.16,1,1,0,0,0,.42-.39,3.34,3.34,0,0,0,.25-.76Z" style="fill:#231f20"/><path d="M251.08,7l.21-1H252l.17-.83,1.6-1L253.38,6h.85L254,7h-.86l-.46,2.17c-.08.39-.12.62-.12.67a.36.36,0,0,0,.1.26.6.6,0,0,0,.38.09l.46,0-.22,1a3.65,3.65,0,0,1-.74.08,1.64,1.64,0,0,1-1.08-.29,1,1,0,0,1-.34-.79,7.55,7.55,0,0,1,.18-1.11L251.76,7Z" style="fill:#231f20"/><path d="M254.26,9a3.21,3.21,0,0,1,.81-2.3,2.83,2.83,0,0,1,2.14-.85,2.44,2.44,0,0,1,1.79.63,2.28,2.28,0,0,1,.65,1.7,3.18,3.18,0,0,1-.81,2.18,3,3,0,0,1-3.46.62,1.92,1.92,0,0,1-.84-.83A2.41,2.41,0,0,1,254.26,9Zm4-1a1.09,1.09,0,0,0-.3-.8,1,1,0,0,0-.74-.3,1.23,1.23,0,0,0-.81.28,1.85,1.85,0,0,0-.55.82,2.83,2.83,0,0,0-.19,1,1.24,1.24,0,0,0,.3.88,1,1,0,0,0,.76.33,1.18,1.18,0,0,0,1-.49A2.65,2.65,0,0,0,258.26,8Z" style="fill:#231f20"/><path d="M261.17,6h1.31l-.21,1a2,2,0,0,1,1.58-1.12,1.61,1.61,0,0,1,.65.15L264,7.15a1.35,1.35,0,0,0-.41-.06,1.25,1.25,0,0,0-.73.27,1.85,1.85,0,0,0-.59.73,7.52,7.52,0,0,0-.41,1.45l-.34,1.62h-1.4Z" style="fill:#231f20"/><path d="M266.82,11.16,268.32,4h5l-.25,1.19h-3.54l-.36,1.72h3.47l-.25,1.2h-3.47l-.63,3Z" style="fill:#231f20"/><path d="M274,6h1.4l-1.09,5.18h-1.4Zm.41-2h1.4l-.27,1.26h-1.4Z" style="fill:#231f20"/><path d="M276.82,6h1.33l-.13.67a3.83,3.83,0,0,1,.92-.61,2.39,2.39,0,0,1,.92-.18,1.36,1.36,0,0,1,1,.36,1.3,1.3,0,0,1,.37,1,5.81,5.81,0,0,1-.16,1l-.61,2.93h-1.4l.62-2.94a5.93,5.93,0,0,0,.13-.79.54.54,0,0,0-.16-.42.6.6,0,0,0-.44-.15,1.19,1.19,0,0,0-.68.26,1.77,1.77,0,0,0-.59.68A5.39,5.39,0,0,0,277.59,9l-.45,2.13h-1.4Z" style="fill:#231f20"/><path d="M286.62,11.16h-1.33l.12-.56a2.74,2.74,0,0,1-.75.53,2.19,2.19,0,0,1-.83.16,1.7,1.7,0,0,1-1.31-.55,2.37,2.37,0,0,1-.5-1.63,3.82,3.82,0,0,1,.7-2.25,2.17,2.17,0,0,1,1.86-1,1.72,1.72,0,0,1,1.57.83L286.71,4h1.4Zm-3.24-2.11a1.26,1.26,0,0,0,.28.87.9.9,0,0,0,.69.32,1.07,1.07,0,0,0,.71-.27,1.75,1.75,0,0,0,.53-.79,3.07,3.07,0,0,0,.2-1,1.33,1.33,0,0,0-.3-.91.94.94,0,0,0-.7-.35,1.16,1.16,0,0,0-1,.68A2.86,2.86,0,0,0,283.38,9.05Z" style="fill:#231f20"/><path d="M293,9h-3.52v.12a1.16,1.16,0,0,0,.29.84,1,1,0,0,0,.72.31,1.2,1.2,0,0,0,1.09-.72l1.25.21a2.68,2.68,0,0,1-1,1.14,2.6,2.6,0,0,1-1.38.38,2.3,2.3,0,0,1-1.7-.67,2.39,2.39,0,0,1-.65-1.75A3.12,3.12,0,0,1,288.71,7,2.65,2.65,0,0,1,291,5.86a2,2,0,0,1,1.51.58,2.29,2.29,0,0,1,.56,1.65A4.35,4.35,0,0,1,293,9Zm-1.19-.86a.82.82,0,0,0,0-.14,1.31,1.31,0,0,0-.26-.87.88.88,0,0,0-.69-.28,1.13,1.13,0,0,0-.78.32,1.74,1.74,0,0,0-.47,1Z" style="fill:#231f20"/><path d="M294.51,6h1.3l-.21,1a2,2,0,0,1,1.59-1.12,1.65,1.65,0,0,1,.65.15l-.54,1.14a1.29,1.29,0,0,0-.4-.06,1.27,1.27,0,0,0-.74.27,1.83,1.83,0,0,0-.58.73,7.38,7.38,0,0,0-.42,1.45l-.34,1.62h-1.4Z" style="fill:#231f20"/><path d="M304.3,11.16h-1.4l-.26-6-1.14,6h-1.33L301.67,4h2.1L304,9l2.44-5h2.12l-1.5,7.15h-1.34l1.41-5.93Z" style="fill:#231f20"/><path d="M308.7,9a3.22,3.22,0,0,1,.82-2.3,2.79,2.79,0,0,1,2.13-.85,2.47,2.47,0,0,1,1.8.63,2.27,2.27,0,0,1,.64,1.7,3.18,3.18,0,0,1-.81,2.18,2.71,2.71,0,0,1-2.15.92,2.74,2.74,0,0,1-1.3-.3,1.9,1.9,0,0,1-.85-.83A2.54,2.54,0,0,1,308.7,9Zm4-1a1.12,1.12,0,0,0-.29-.8,1,1,0,0,0-.75-.3,1.27,1.27,0,0,0-.81.28,1.84,1.84,0,0,0-.54.82,2.85,2.85,0,0,0-.2,1,1.24,1.24,0,0,0,.3.88,1,1,0,0,0,.77.33,1.18,1.18,0,0,0,1-.49A2.65,2.65,0,0,0,312.7,8Z" style="fill:#231f20"/><path d="M319.4,11.16h-1.33l.12-.56a2.74,2.74,0,0,1-.75.53,2.24,2.24,0,0,1-.84.16,1.7,1.7,0,0,1-1.3-.55,2.32,2.32,0,0,1-.5-1.63,3.82,3.82,0,0,1,.7-2.25,2.17,2.17,0,0,1,1.86-1,1.72,1.72,0,0,1,1.57.83L319.49,4h1.4Zm-3.24-2.11a1.21,1.21,0,0,0,.28.87.9.9,0,0,0,.69.32,1.09,1.09,0,0,0,.71-.27,1.75,1.75,0,0,0,.53-.79,3.07,3.07,0,0,0,.2-1,1.29,1.29,0,0,0-.31-.91.9.9,0,0,0-.69-.35,1.16,1.16,0,0,0-1,.68A2.86,2.86,0,0,0,316.16,9.05Z" style="fill:#231f20"/><path d="M325.77,9h-3.52c0,.05,0,.09,0,.12a1.17,1.17,0,0,0,.3.84,1,1,0,0,0,.72.31,1.2,1.2,0,0,0,1.09-.72l1.25.21a2.63,2.63,0,0,1-1,1.14,2.54,2.54,0,0,1-1.37.38,2.3,2.3,0,0,1-1.7-.67,2.35,2.35,0,0,1-.65-1.75A3.12,3.12,0,0,1,321.49,7a2.64,2.64,0,0,1,2.3-1.12,2,2,0,0,1,1.51.58,2.29,2.29,0,0,1,.56,1.65A4.35,4.35,0,0,1,325.77,9Zm-1.19-.86a.82.82,0,0,0,0-.14,1.31,1.31,0,0,0-.26-.87.88.88,0,0,0-.69-.28,1.13,1.13,0,0,0-.78.32,1.74,1.74,0,0,0-.47,1Z" style="fill:#231f20"/><line x1="210.24" y1="71.48" x2="221.85" y2="71.48" style="fill:none;stroke:#231f20;stroke-miterlimit:10"/><polygon points="220.44 73.33 221.23 71.48 220.44 69.63 224.83 71.48 220.44 73.33" style="fill:#231f20"/><line x1="299.79" y1="71.48" x2="311.39" y2="71.48" style="fill:none;stroke:#231f20;stroke-miterlimit:10"/><polygon points="309.99 73.33 310.77 71.48 309.99 69.63 314.38 71.48 309.99 73.33" style="fill:#231f20"/><path d="M230.78,26.26V22.21h-.69V21.6h.69v-.5a2,2,0,0,1,.09-.7,1,1,0,0,1,.4-.5,1.43,1.43,0,0,1,.81-.19,4.06,4.06,0,0,1,.73.08l-.11.69a2.63,2.63,0,0,0-.47,0,.71.71,0,0,0-.51.15.82.82,0,0,0-.15.58v.43h.91v.61h-.91v4.05Z" style="fill:#231f20"/><path d="M232.8,23.93a2.42,2.42,0,0,1,.72-1.92,2.15,2.15,0,0,1,1.47-.52,2.08,2.08,0,0,1,1.57.63,2.38,2.38,0,0,1,.61,1.74,3.09,3.09,0,0,1-.27,1.42,1.88,1.88,0,0,1-.78.8,2.32,2.32,0,0,1-1.13.29,2.09,2.09,0,0,1-1.58-.63A2.48,2.48,0,0,1,232.8,23.93Zm.81,0a1.93,1.93,0,0,0,.4,1.34,1.23,1.23,0,0,0,1,.45,1.25,1.25,0,0,0,1-.45,2,2,0,0,0,.39-1.37,2,2,0,0,0-.39-1.31,1.24,1.24,0,0,0-1-.44,1.22,1.22,0,0,0-1,.44A1.93,1.93,0,0,0,233.61,23.93Z" style="fill:#231f20"/><path d="M238.09,26.26V21.6h.71v.7a1.88,1.88,0,0,1,.51-.65.83.83,0,0,1,.5-.16,1.58,1.58,0,0,1,.82.26l-.27.73a1.2,1.2,0,0,0-.58-.17.78.78,0,0,0-.47.15.8.8,0,0,0-.29.44,3,3,0,0,0-.14.92v2.44Z" style="fill:#231f20"/><path d="M241.1,26.26V21.6h.71v.65a1.64,1.64,0,0,1,1.41-.76,1.47,1.47,0,0,1,.85.22,1.13,1.13,0,0,1,.47.6,1.67,1.67,0,0,1,1.44-.82,1.42,1.42,0,0,1,1.07.39,1.62,1.62,0,0,1,.37,1.18v3.2h-.78V23.32a2.19,2.19,0,0,0-.08-.68.71.71,0,0,0-.28-.34.92.92,0,0,0-.48-.12,1.12,1.12,0,0,0-.81.32,1.44,1.44,0,0,0-.33,1.05v2.71h-.79v-3a1.34,1.34,0,0,0-.19-.79.73.73,0,0,0-.64-.26,1.1,1.1,0,0,0-.61.17,1,1,0,0,0-.41.52,2.72,2.72,0,0,0-.13,1v2.42Z" style="fill:#231f20"/><path d="M251.65,26.26v-.68a1.71,1.71,0,0,1-1.48.79,1.83,1.83,0,0,1-.77-.16,1.23,1.23,0,0,1-.77-1,3.48,3.48,0,0,1,0-.74V21.6h.79v2.58a3.93,3.93,0,0,0,0,.84.82.82,0,0,0,.31.49,1,1,0,0,0,.6.18,1.32,1.32,0,0,0,.67-.18,1.06,1.06,0,0,0,.44-.5,2.44,2.44,0,0,0,.13-.91V21.6h.79v4.66Z" style="fill:#231f20"/><path d="M253.58,26.26V19.82h.79v6.44Z" style="fill:#231f20"/><path d="M258.65,25.69a3,3,0,0,1-.85.52,2.28,2.28,0,0,1-.87.16,1.67,1.67,0,0,1-1.18-.38,1.23,1.23,0,0,1-.42-1,1.19,1.19,0,0,1,.16-.62,1.3,1.3,0,0,1,.41-.46,1.87,1.87,0,0,1,.57-.26,6.05,6.05,0,0,1,.7-.12,6.48,6.48,0,0,0,1.41-.27v-.21a.88.88,0,0,0-.22-.68,1.31,1.31,0,0,0-.9-.26,1.43,1.43,0,0,0-.83.19,1.26,1.26,0,0,0-.39.69l-.77-.1a1.79,1.79,0,0,1,.35-.8,1.4,1.4,0,0,1,.69-.47,3.14,3.14,0,0,1,1.06-.17,2.85,2.85,0,0,1,1,.14,1.22,1.22,0,0,1,.55.35,1.35,1.35,0,0,1,.25.54,4.11,4.11,0,0,1,0,.73v1.06a12,12,0,0,0,.05,1.39,1.64,1.64,0,0,0,.2.56h-.83A1.59,1.59,0,0,1,258.65,25.69Zm-.07-1.77a5.6,5.6,0,0,1-1.29.3,2.93,2.93,0,0,0-.69.16.62.62,0,0,0-.31.26.6.6,0,0,0-.11.37.68.68,0,0,0,.24.53,1,1,0,0,0,.7.21,1.68,1.68,0,0,0,.81-.2,1.2,1.2,0,0,0,.52-.55,1.82,1.82,0,0,0,.13-.79Z" style="fill:#231f20"/><path d="M262.33,25.56l.12.69a2.84,2.84,0,0,1-.6.07,1.37,1.37,0,0,1-.67-.13.72.72,0,0,1-.33-.36,2.66,2.66,0,0,1-.1-.93V22.21h-.58V21.6h.58V20.44l.79-.47V21.6h.79v.61h-.79v2.73a1.37,1.37,0,0,0,0,.44.33.33,0,0,0,.14.15.48.48,0,0,0,.26.06Z" style="fill:#231f20"/><path d="M266.3,24.76l.82.1A2,2,0,0,1,266.4,26a2.1,2.1,0,0,1-1.33.4,2.14,2.14,0,0,1-1.63-.63,2.46,2.46,0,0,1-.6-1.77,2.55,2.55,0,0,1,.61-1.83,2.06,2.06,0,0,1,1.57-.65,2,2,0,0,1,1.53.64,2.5,2.5,0,0,1,.59,1.79v.21h-3.48a1.81,1.81,0,0,0,.43,1.18,1.31,1.31,0,0,0,1,.41,1.21,1.21,0,0,0,.74-.23A1.49,1.49,0,0,0,266.3,24.76Zm-2.6-1.28h2.61a1.63,1.63,0,0,0-.3-.88,1.2,1.2,0,0,0-1-.46,1.25,1.25,0,0,0-.92.37A1.47,1.47,0,0,0,263.7,23.48Z" style="fill:#231f20"/><path d="M270.47,26.65l.77.11a.74.74,0,0,0,.26.52,1.32,1.32,0,0,0,.81.22,1.41,1.41,0,0,0,.85-.22,1.1,1.1,0,0,0,.4-.61,5.32,5.32,0,0,0,.06-1,1.63,1.63,0,0,1-1.29.61,1.75,1.75,0,0,1-1.49-.69,2.63,2.63,0,0,1-.53-1.67,3.14,3.14,0,0,1,.24-1.23,1.85,1.85,0,0,1,.7-.87,1.88,1.88,0,0,1,1.08-.31,1.66,1.66,0,0,1,1.36.67V21.6h.73v4a3.84,3.84,0,0,1-.22,1.55,1.6,1.6,0,0,1-.7.71,2.41,2.41,0,0,1-1.19.27,2.27,2.27,0,0,1-1.35-.38A1.25,1.25,0,0,1,270.47,26.65Zm.65-2.8a2,2,0,0,0,.37,1.34,1.14,1.14,0,0,0,.91.42,1.16,1.16,0,0,0,.91-.42,2,2,0,0,0,.37-1.32,1.88,1.88,0,0,0-.38-1.29,1.18,1.18,0,0,0-1.81,0A1.9,1.9,0,0,0,271.12,23.85Z" style="fill:#231f20"/><path d="M275.61,26.26V21.6h.71v.7a1.88,1.88,0,0,1,.5-.65.88.88,0,0,1,.51-.16,1.52,1.52,0,0,1,.81.26l-.27.73a1.17,1.17,0,0,0-.58-.17.75.75,0,0,0-.46.15.87.87,0,0,0-.3.44,3,3,0,0,0-.13.92v2.44Z" style="fill:#231f20"/><path d="M281.66,25.69a2.82,2.82,0,0,1-.85.52,2.28,2.28,0,0,1-.87.16,1.69,1.69,0,0,1-1.18-.38,1.22,1.22,0,0,1-.41-1,1.29,1.29,0,0,1,.15-.62,1.4,1.4,0,0,1,.41-.46,2.12,2.12,0,0,1,.57-.26,6.48,6.48,0,0,1,.7-.12,6.48,6.48,0,0,0,1.41-.27c0-.11,0-.18,0-.21a.88.88,0,0,0-.23-.68,1.31,1.31,0,0,0-.9-.26,1.4,1.4,0,0,0-.82.19,1.15,1.15,0,0,0-.39.69l-.78-.1a1.9,1.9,0,0,1,.35-.8,1.38,1.38,0,0,1,.7-.47,3.1,3.1,0,0,1,1.06-.17,2.89,2.89,0,0,1,1,.14,1.28,1.28,0,0,1,.55.35,1.21,1.21,0,0,1,.24.54,4.11,4.11,0,0,1,0,.73v1.06a12,12,0,0,0,.05,1.39,1.88,1.88,0,0,0,.2.56h-.82A1.59,1.59,0,0,1,281.66,25.69Zm-.07-1.77a5.35,5.35,0,0,1-1.29.3,3.22,3.22,0,0,0-.69.16.66.66,0,0,0-.31.26.67.67,0,0,0-.11.37.68.68,0,0,0,.24.53,1,1,0,0,0,.7.21,1.62,1.62,0,0,0,.81-.2,1.28,1.28,0,0,0,.53-.55,2,2,0,0,0,.12-.79Z" style="fill:#231f20"/><path d="M283.62,28.05V21.6h.72v.6a1.81,1.81,0,0,1,.58-.53,1.54,1.54,0,0,1,.77-.18,1.83,1.83,0,0,1,1.06.31,1.89,1.89,0,0,1,.69.87,3.23,3.23,0,0,1,.23,1.22,3,3,0,0,1-.26,1.29,1.9,1.9,0,0,1-.74.88,1.88,1.88,0,0,1-1,.31,1.49,1.49,0,0,1-.71-.17,1.66,1.66,0,0,1-.52-.42v2.27Zm.72-4.09a2.05,2.05,0,0,0,.36,1.33,1.13,1.13,0,0,0,1.79,0,2.13,2.13,0,0,0,.37-1.38,2.12,2.12,0,0,0-.36-1.34,1.13,1.13,0,0,0-.88-.44,1.16,1.16,0,0,0-.9.47A2.2,2.2,0,0,0,284.34,24Z" style="fill:#231f20"/><path d="M288.62,26.26V19.82h.8v2.31a1.73,1.73,0,0,1,1.39-.64,1.93,1.93,0,0,1,.9.2,1.21,1.21,0,0,1,.55.57,2.6,2.6,0,0,1,.17,1v3h-.79v-3a1.24,1.24,0,0,0-.26-.87,1,1,0,0,0-.73-.27,1.31,1.31,0,0,0-.66.18,1.06,1.06,0,0,0-.44.5,2.22,2.22,0,0,0-.13.86v2.55Z" style="fill:#231f20"/><line x1="250.85" y1="89.63" x2="236.12" y2="86.2" style="fill:none;stroke:#ec1c24;stroke-miterlimit:10;stroke-width:0.5px"/><line x1="261.2" y1="100.68" x2="250.85" y2="89.63" style="fill:none;stroke:#ec1c24;stroke-miterlimit:10;stroke-width:0.5px"/><line x1="271.54" y1="89.63" x2="261.2" y2="100.68" style="fill:none;stroke:#ec1c24;stroke-miterlimit:10;stroke-width:0.5px"/><line x1="286.27" y1="86.2" x2="271.54" y2="89.63" style="fill:none;stroke:#ec1c24;stroke-miterlimit:10;stroke-width:0.5px"/><line x1="281.88" y1="71.72" x2="286.27" y2="86.2" style="fill:none;stroke:#ec1c24;stroke-miterlimit:10;stroke-width:0.5px"/><line x1="286.27" y1="57.24" x2="281.88" y2="71.72" style="fill:none;stroke:#ec1c24;stroke-miterlimit:10;stroke-width:0.5px"/><line x1="271.54" y1="53.8" x2="286.27" y2="57.24" style="fill:none;stroke:#ec1c24;stroke-miterlimit:10;stroke-width:0.5px"/><line x1="261.2" y1="42.76" x2="271.54" y2="53.8" style="fill:none;stroke:#ec1c24;stroke-miterlimit:10;stroke-width:0.5px"/><line x1="250.85" y1="53.8" x2="261.2" y2="42.76" style="fill:none;stroke:#ec1c24;stroke-miterlimit:10;stroke-width:0.5px"/><line x1="236.12" y1="57.24" x2="250.85" y2="53.8" style="fill:none;stroke:#ec1c24;stroke-miterlimit:10;stroke-width:0.5px"/><line x1="240.51" y1="71.72" x2="236.12" y2="57.24" style="fill:none;stroke:#ec1c24;stroke-miterlimit:10;stroke-width:0.5px"/><line x1="236.12" y1="86.2" x2="240.51" y2="71.72" style="fill:none;stroke:#ec1c24;stroke-miterlimit:10;stroke-width:0.5px"/><line x1="229.6" y1="89.83" x2="236.12" y2="86.2" style="fill:none;stroke:#ec1c24;stroke-miterlimit:10;stroke-width:0.5px"/><line x1="229.52" y1="53.3" x2="236.21" y2="57.24" style="fill:none;stroke:#ec1c24;stroke-miterlimit:10;stroke-width:0.5px"/><line x1="261.2" y1="42.67" x2="261.2" y2="34.79" style="fill:none;stroke:#ec1c24;stroke-miterlimit:10;stroke-width:0.5px"/><line x1="286.27" y1="57.24" x2="293.41" y2="52.99" style="fill:none;stroke:#ec1c24;stroke-miterlimit:10;stroke-width:0.5px"/><line x1="286.24" y1="86.11" x2="293.41" y2="89.53" style="fill:none;stroke:#ec1c24;stroke-miterlimit:10;stroke-width:0.5px"/><line x1="261.2" y1="108.63" x2="261.2" y2="100.75" style="fill:none;stroke:#ec1c24;stroke-miterlimit:10;stroke-width:0.5px"/><polygon points="255.48 81.61 266.91 81.61 272.62 71.72 266.91 61.82 255.48 61.82 249.77 71.72 255.48 81.61" style="fill:none;stroke:#ec1c24;stroke-miterlimit:10;stroke-width:0.5px"/><line x1="240.51" y1="71.72" x2="249.77" y2="71.72" style="fill:none;stroke:#ec1c24;stroke-miterlimit:10;stroke-width:0.5px"/><line x1="250.85" y1="53.8" x2="255.48" y2="61.82" style="fill:none;stroke:#ec1c24;stroke-miterlimit:10;stroke-width:0.5px"/><line x1="250.85" y1="89.63" x2="255.48" y2="81.61" style="fill:none;stroke:#ec1c24;stroke-miterlimit:10;stroke-width:0.5px"/><line x1="271.54" y1="89.63" x2="266.91" y2="81.61" style="fill:none;stroke:#ec1c24;stroke-miterlimit:10;stroke-width:0.5px"/><line x1="281.88" y1="71.72" x2="272.62" y2="71.72" style="fill:none;stroke:#ec1c24;stroke-miterlimit:10;stroke-width:0.5px"/><line x1="266.91" y1="61.82" x2="271.54" y2="53.8" style="fill:none;stroke:#ec1c24;stroke-miterlimit:10;stroke-width:0.5px"/><circle cx="229.6" cy="89.83" r="1.99" style="fill:#231f20;stroke:#fff;stroke-miterlimit:10;stroke-width:0.5px"/><circle cx="229.64" cy="53.37" r="1.99" style="fill:#231f20;stroke:#fff;stroke-miterlimit:10;stroke-width:0.5px"/><circle cx="261.2" cy="34.79" r="1.99" style="fill:#231f20;stroke:#fff;stroke-miterlimit:10;stroke-width:0.5px"/><circle cx="293.41" cy="52.99" r="1.99" style="fill:#231f20;stroke:#fff;stroke-miterlimit:10;stroke-width:0.5px"/><circle cx="293.41" cy="89.53" r="1.99" style="fill:#231f20;stroke:#fff;stroke-miterlimit:10;stroke-width:0.5px"/><circle cx="261.2" cy="108.63" r="1.99" style="fill:#231f20;stroke:#fff;stroke-miterlimit:10;stroke-width:0.5px"/><circle cx="236.12" cy="86.2" r="1.99" style="fill:#231f20;stroke:#fff;stroke-miterlimit:10;stroke-width:0.5px"/><circle cx="236.21" cy="57.16" r="1.99" style="fill:#231f20;stroke:#fff;stroke-miterlimit:10;stroke-width:0.5px"/><circle cx="261.2" cy="100.68" r="1.99" style="fill:#231f20;stroke:#fff;stroke-miterlimit:10;stroke-width:0.5px"/><circle cx="286.27" cy="86.13" r="1.99" style="fill:#231f20;stroke:#fff;stroke-miterlimit:10;stroke-width:0.5px"/><circle cx="286.31" cy="57.22" r="1.99" style="fill:#231f20;stroke:#fff;stroke-miterlimit:10;stroke-width:0.5px"/><circle cx="261.2" cy="42.76" r="1.99" style="fill:#231f20;stroke:#fff;stroke-miterlimit:10;stroke-width:0.5px"/><circle cx="250.85" cy="89.63" r="1.99" style="fill:#231f20;stroke:#fff;stroke-miterlimit:10;stroke-width:0.5px"/><circle cx="281.88" cy="71.72" r="1.99" style="fill:#231f20;stroke:#fff;stroke-miterlimit:10;stroke-width:0.5px"/><circle cx="271.51" cy="53.86" r="1.99" style="fill:#231f20;stroke:#fff;stroke-miterlimit:10;stroke-width:0.5px"/><circle cx="271.54" cy="89.63" r="1.99" style="fill:#231f20;stroke:#fff;stroke-miterlimit:10;stroke-width:0.5px"/><circle cx="250.85" cy="53.8" r="1.99" style="fill:#231f20;stroke:#fff;stroke-miterlimit:10;stroke-width:0.5px"/><circle cx="240.51" cy="71.72" r="1.99" style="fill:#231f20;stroke:#fff;stroke-miterlimit:10;stroke-width:0.5px"/><circle cx="249.79" cy="71.72" r="1.99" style="fill:#231f20;stroke:#fff;stroke-miterlimit:10;stroke-width:0.5px"/><circle cx="255.48" cy="81.61" r="1.99" style="fill:#231f20;stroke:#fff;stroke-miterlimit:10;stroke-width:0.5px"/><circle cx="272.59" cy="71.72" r="1.99" style="fill:#231f20;stroke:#fff;stroke-miterlimit:10;stroke-width:0.5px"/><circle cx="267.01" cy="61.82" r="1.99" style="fill:#231f20;stroke:#fff;stroke-miterlimit:10;stroke-width:0.5px"/><circle cx="267.01" cy="81.67" r="1.99" style="fill:#231f20;stroke:#fff;stroke-miterlimit:10;stroke-width:0.5px"/><circle cx="255.48" cy="61.82" r="1.99" style="fill:#231f20;stroke:#fff;stroke-miterlimit:10;stroke-width:0.5px"/><path d="M128.33,24.76l.82.1a2,2,0,0,1-.72,1.11,2.42,2.42,0,0,1-3-.23,2.46,2.46,0,0,1-.6-1.77,2.55,2.55,0,0,1,.61-1.83,2,2,0,0,1,1.57-.65,2,2,0,0,1,1.53.64,2.54,2.54,0,0,1,.59,1.79v.21h-3.48a1.81,1.81,0,0,0,.43,1.18,1.31,1.31,0,0,0,1,.41,1.23,1.23,0,0,0,.74-.23A1.56,1.56,0,0,0,128.33,24.76Zm-2.6-1.28h2.61a1.63,1.63,0,0,0-.3-.88,1.2,1.2,0,0,0-1-.46,1.24,1.24,0,0,0-.92.37A1.42,1.42,0,0,0,125.73,23.48Z" style="fill:#231f20"/><path d="M130.12,26.26V19.82h.79v6.44Z" style="fill:#231f20"/><path d="M132.14,20.73v-.91h.79v.91Zm0,5.53V21.6h.79v4.66Z" style="fill:#231f20"/><path d="M134.14,26.26V21.6h.7v.65a1.73,1.73,0,0,1,.59-.55,1.63,1.63,0,0,1,.83-.21,1.47,1.47,0,0,1,.85.22,1.13,1.13,0,0,1,.47.6,1.67,1.67,0,0,1,1.44-.82,1.46,1.46,0,0,1,1.07.38,1.66,1.66,0,0,1,.37,1.19v3.2h-.79V23.32a2.26,2.26,0,0,0-.07-.68.71.71,0,0,0-.28-.34.92.92,0,0,0-.48-.12,1.08,1.08,0,0,0-.81.32,1.44,1.44,0,0,0-.33,1.05v2.71h-.79v-3a1.34,1.34,0,0,0-.19-.79.73.73,0,0,0-.64-.26,1.1,1.1,0,0,0-.61.17,1,1,0,0,0-.41.52,2.72,2.72,0,0,0-.13,1v2.42Z" style="fill:#231f20"/><path d="M141.64,20.73v-.91h.79v.91Zm0,5.53V21.6h.79v4.66Z" style="fill:#231f20"/><path d="M143.63,26.26V21.6h.72v.66a1.67,1.67,0,0,1,1.48-.77,2,2,0,0,1,.78.15,1.3,1.3,0,0,1,.53.4,1.51,1.51,0,0,1,.24.58,4.38,4.38,0,0,1,.05.77v2.87h-.79V23.42a2.13,2.13,0,0,0-.1-.72.74.74,0,0,0-.32-.38,1,1,0,0,0-.56-.14,1.27,1.27,0,0,0-.87.32,1.59,1.59,0,0,0-.37,1.21v2.55Z" style="fill:#231f20"/><path d="M151.68,25.69a2.79,2.79,0,0,1-.84.52,2.28,2.28,0,0,1-.87.16,1.72,1.72,0,0,1-1.19-.38,1.25,1.25,0,0,1-.41-1,1.17,1.17,0,0,1,.16-.62,1.3,1.3,0,0,1,.41-.46,1.92,1.92,0,0,1,.56-.26,6.31,6.31,0,0,1,.71-.12,6.48,6.48,0,0,0,1.41-.27v-.21a.87.87,0,0,0-.22-.68,1.31,1.31,0,0,0-.9-.27,1.43,1.43,0,0,0-.83.2,1.26,1.26,0,0,0-.39.69l-.77-.1a2,2,0,0,1,.34-.81,1.53,1.53,0,0,1,.7-.46,3.41,3.41,0,0,1,2,0,1.22,1.22,0,0,1,.55.35,1.35,1.35,0,0,1,.25.54,4.11,4.11,0,0,1,0,.73v1.06a12,12,0,0,0,.05,1.39,1.64,1.64,0,0,0,.2.56h-.83A1.82,1.82,0,0,1,151.68,25.69Zm-.06-1.77a5.6,5.6,0,0,1-1.29.3,2.93,2.93,0,0,0-.69.16.65.65,0,0,0-.43.63.68.68,0,0,0,.24.53,1.06,1.06,0,0,0,.71.21,1.68,1.68,0,0,0,.81-.2,1.2,1.2,0,0,0,.52-.55,1.82,1.82,0,0,0,.13-.79Z" style="fill:#231f20"/><path d="M155.37,25.55l.12.7a2.84,2.84,0,0,1-.6.07,1.37,1.37,0,0,1-.67-.13.72.72,0,0,1-.33-.36,2.66,2.66,0,0,1-.1-.93V22.21h-.58V21.6h.58V20.44l.79-.47V21.6h.79v.61h-.79v2.73a1.26,1.26,0,0,0,0,.43.34.34,0,0,0,.13.16.54.54,0,0,0,.27.06A1.7,1.7,0,0,0,155.37,25.55Z" style="fill:#231f20"/><path d="M159.34,24.76l.82.1a2,2,0,0,1-.72,1.11,2.42,2.42,0,0,1-3-.23,2.46,2.46,0,0,1-.6-1.77,2.55,2.55,0,0,1,.61-1.83,2.06,2.06,0,0,1,1.57-.65,2,2,0,0,1,1.53.64,2.5,2.5,0,0,1,.59,1.79v.21H156.7a1.81,1.81,0,0,0,.43,1.18,1.31,1.31,0,0,0,1,.41,1.21,1.21,0,0,0,.74-.23A1.49,1.49,0,0,0,159.34,24.76Zm-2.6-1.28h2.61a1.63,1.63,0,0,0-.3-.88,1.2,1.2,0,0,0-1-.46,1.25,1.25,0,0,0-.92.37A1.47,1.47,0,0,0,156.74,23.48Z" style="fill:#231f20"/><path d="M163.65,28.05V21.6h.72v.6a1.7,1.7,0,0,1,.58-.53,1.55,1.55,0,0,1,.78-.18,1.8,1.8,0,0,1,1.05.31,1.89,1.89,0,0,1,.69.87,3,3,0,0,1,.23,1.22,3.13,3.13,0,0,1-.25,1.29,2,2,0,0,1-.75.88,1.88,1.88,0,0,1-1,.31,1.49,1.49,0,0,1-.71-.17,1.66,1.66,0,0,1-.52-.42v2.27Zm.72-4.09a2.05,2.05,0,0,0,.36,1.33,1.16,1.16,0,0,0,.89.43,1.14,1.14,0,0,0,.9-.45,2.13,2.13,0,0,0,.37-1.38,2.1,2.1,0,0,0-.36-1.34,1.09,1.09,0,0,0-1.77,0A2.12,2.12,0,0,0,164.37,24Z" style="fill:#231f20"/><path d="M171.7,25.69a2.79,2.79,0,0,1-.84.52,2.37,2.37,0,0,1-.88.16A1.71,1.71,0,0,1,168.8,26a1.34,1.34,0,0,1-.26-1.58A1.4,1.4,0,0,1,169,24a2.12,2.12,0,0,1,.57-.26,6.31,6.31,0,0,1,.71-.12,6.75,6.75,0,0,0,1.41-.27v-.21a.87.87,0,0,0-.22-.68,1.34,1.34,0,0,0-.9-.27,1.41,1.41,0,0,0-.83.2,1.15,1.15,0,0,0-.39.69l-.78-.1a2,2,0,0,1,.35-.81,1.48,1.48,0,0,1,.7-.46,3.41,3.41,0,0,1,2,0,1.28,1.28,0,0,1,.55.35,1.35,1.35,0,0,1,.25.54,5.41,5.41,0,0,1,0,.73v1.06a10,10,0,0,0,.05,1.39,1.64,1.64,0,0,0,.2.56h-.83A1.82,1.82,0,0,1,171.7,25.69Zm-.06-1.77a5.58,5.58,0,0,1-1.3.3,3.22,3.22,0,0,0-.69.16.76.76,0,0,0-.31.25.73.73,0,0,0-.11.38.68.68,0,0,0,.24.53,1,1,0,0,0,.7.21,1.69,1.69,0,0,0,.82-.2,1.25,1.25,0,0,0,.52-.55,2,2,0,0,0,.13-.79Z" style="fill:#231f20"/><path d="M173.65,26.26V21.6h.71v.7a1.88,1.88,0,0,1,.51-.65.84.84,0,0,1,.51-.16,1.55,1.55,0,0,1,.81.25l-.27.74a1.1,1.1,0,0,0-.58-.17.78.78,0,0,0-.47.15.8.8,0,0,0-.29.44,3,3,0,0,0-.14.92v2.44Z" style="fill:#231f20"/><path d="M178.39,25.55l.11.7a2.7,2.7,0,0,1-.6.07,1.4,1.4,0,0,1-.67-.13.76.76,0,0,1-.33-.36,2.93,2.93,0,0,1-.1-.93V22.21h-.58V21.6h.58V20.44l.79-.47V21.6h.8v.61h-.8v2.73a1.26,1.26,0,0,0,0,.43.36.36,0,0,0,.14.16.49.49,0,0,0,.27.06A1.77,1.77,0,0,0,178.39,25.55Z" style="fill:#231f20"/><path d="M178.84,24.87l.79-.12a1.09,1.09,0,0,0,.36.72,1.31,1.31,0,0,0,.84.25,1.26,1.26,0,0,0,.81-.22.68.68,0,0,0,.27-.53.49.49,0,0,0-.24-.42,3.56,3.56,0,0,0-.81-.27,7.41,7.41,0,0,1-1.2-.37,1.13,1.13,0,0,1-.51-.45,1.16,1.16,0,0,1-.18-.63,1.13,1.13,0,0,1,.15-.57,1.1,1.1,0,0,1,.39-.44,1.55,1.55,0,0,1,.5-.24,2.48,2.48,0,0,1,.68-.09,2.63,2.63,0,0,1,1,.16,1.29,1.29,0,0,1,.61.43,1.69,1.69,0,0,1,.27.72l-.77.11a.87.87,0,0,0-.31-.57,1.11,1.11,0,0,0-.71-.2,1.32,1.32,0,0,0-.78.18.53.53,0,0,0-.23.42.4.4,0,0,0,.1.28.72.72,0,0,0,.3.21c.08,0,.31.1.7.2a8.77,8.77,0,0,1,1.17.37,1.18,1.18,0,0,1,.52.41,1.16,1.16,0,0,1,.19.68,1.38,1.38,0,0,1-.23.75,1.58,1.58,0,0,1-.67.54,2.55,2.55,0,0,1-1,.19,2.21,2.21,0,0,1-1.39-.38A1.77,1.77,0,0,1,178.84,24.87Z" style="fill:#231f20"/><path d="M187,26.26l-1.43-4.66h.82l.74,2.69.28,1q0-.08.24-1l.74-2.73h.82l.7,2.7.23.89.27-.9.8-2.69H192l-1.46,4.66h-.83L189,23.47l-.18-.8-.94,3.59Z" style="fill:#231f20"/><path d="M192.66,20.73v-.91h.79v.91Zm0,5.53V21.6h.79v4.66Z" style="fill:#231f20"/><path d="M196.39,25.55l.11.7a2.7,2.7,0,0,1-.6.07,1.4,1.4,0,0,1-.67-.13.76.76,0,0,1-.33-.36,2.93,2.93,0,0,1-.1-.93V22.21h-.58V21.6h.58V20.44l.79-.47V21.6h.8v.61h-.8v2.73a1.26,1.26,0,0,0,0,.43.36.36,0,0,0,.14.16.49.49,0,0,0,.27.06A1.77,1.77,0,0,0,196.39,25.55Z" style="fill:#231f20"/><path d="M197.16,26.26V19.82H198v2.31a1.77,1.77,0,0,1,1.4-.64,2,2,0,0,1,.9.2,1.26,1.26,0,0,1,.55.57,2.6,2.6,0,0,1,.16,1v3h-.79v-3a1.23,1.23,0,0,0-.26-.86.94.94,0,0,0-.72-.27,1.32,1.32,0,0,0-.67.18,1.12,1.12,0,0,0-.44.5,2.22,2.22,0,0,0-.13.86v2.55Z" style="fill:#231f20"/><path d="M132.63,31.53v-.91h.8v.91Zm0,5.53V32.4h.8v4.66Z" style="fill:#231f20"/><path d="M134.63,37.06V32.4h.71v.66a1.69,1.69,0,0,1,1.49-.77,1.92,1.92,0,0,1,.77.15,1.24,1.24,0,0,1,.53.4,1.53,1.53,0,0,1,.25.58,4.66,4.66,0,0,1,0,.77v2.87h-.79V34.22a2.17,2.17,0,0,0-.09-.72.72.72,0,0,0-.33-.38,1,1,0,0,0-.55-.14,1.23,1.23,0,0,0-.87.32,1.55,1.55,0,0,0-.37,1.21v2.55Z" style="fill:#231f20"/><path d="M141.36,36.35l.12.7a2.84,2.84,0,0,1-.6.07,1.37,1.37,0,0,1-.67-.13.72.72,0,0,1-.33-.36,2.66,2.66,0,0,1-.1-.93V33h-.58V32.4h.58V31.24l.79-.48V32.4h.79V33h-.79v2.73a1.26,1.26,0,0,0,0,.43.34.34,0,0,0,.13.16.54.54,0,0,0,.27.06A1.7,1.7,0,0,0,141.36,36.35Z" style="fill:#231f20"/><path d="M145.33,35.56l.82.1a2,2,0,0,1-.72,1.11,2.1,2.1,0,0,1-1.33.4,2.14,2.14,0,0,1-1.63-.63,2.46,2.46,0,0,1-.6-1.77,2.55,2.55,0,0,1,.61-1.83,2.06,2.06,0,0,1,1.57-.65,2,2,0,0,1,1.53.64,2.5,2.5,0,0,1,.59,1.79v.21h-3.48a1.81,1.81,0,0,0,.43,1.18,1.31,1.31,0,0,0,1,.41,1.21,1.21,0,0,0,.74-.23A1.49,1.49,0,0,0,145.33,35.56Zm-2.6-1.28h2.61a1.63,1.63,0,0,0-.3-.88,1.2,1.2,0,0,0-1-.46,1.28,1.28,0,0,0-.92.36A1.52,1.52,0,0,0,142.73,34.28Z" style="fill:#231f20"/><path d="M147.13,37.06V32.4h.71v.7a1.88,1.88,0,0,1,.51-.65.83.83,0,0,1,.5-.16,1.56,1.56,0,0,1,.82.25l-.27.74a1.11,1.11,0,0,0-.59-.17.77.77,0,0,0-.46.15.87.87,0,0,0-.3.44,3.3,3.3,0,0,0-.13.92v2.44Z" style="fill:#231f20"/><path d="M150.14,37.06V32.4h.71v.66a1.68,1.68,0,0,1,1.48-.77,2,2,0,0,1,.78.15,1.24,1.24,0,0,1,.53.4,1.53,1.53,0,0,1,.25.58,4.66,4.66,0,0,1,0,.77v2.87h-.79V34.22a2.17,2.17,0,0,0-.09-.72.72.72,0,0,0-.33-.38,1,1,0,0,0-.55-.14,1.23,1.23,0,0,0-.87.32,1.55,1.55,0,0,0-.37,1.21v2.55Z" style="fill:#231f20"/><path d="M158.19,36.49a2.82,2.82,0,0,1-.85.52,2.28,2.28,0,0,1-.87.16,1.69,1.69,0,0,1-1.18-.38,1.22,1.22,0,0,1-.41-1,1.26,1.26,0,0,1,.15-.62,1.3,1.3,0,0,1,.41-.46,2.12,2.12,0,0,1,.57-.26,6.05,6.05,0,0,1,.7-.12,6.48,6.48,0,0,0,1.41-.27c0-.11,0-.18,0-.21a.87.87,0,0,0-.23-.68,1.31,1.31,0,0,0-.9-.27,1.37,1.37,0,0,0-.82.2,1.21,1.21,0,0,0-.4.69l-.77-.1a2,2,0,0,1,.35-.81,1.52,1.52,0,0,1,.7-.47,3.07,3.07,0,0,1,1.06-.16,2.93,2.93,0,0,1,1,.14,1.28,1.28,0,0,1,.55.35,1.33,1.33,0,0,1,.24.54,4.11,4.11,0,0,1,0,.73v1.06A12,12,0,0,0,159,36.5a1.88,1.88,0,0,0,.2.56h-.82A1.41,1.41,0,0,1,158.19,36.49Zm-.07-1.77a5.47,5.47,0,0,1-1.29.3,3.22,3.22,0,0,0-.69.16.7.7,0,0,0-.31.25.73.73,0,0,0-.11.38.68.68,0,0,0,.24.53,1,1,0,0,0,.7.21,1.68,1.68,0,0,0,.81-.2,1.28,1.28,0,0,0,.53-.55,2,2,0,0,0,.12-.79Z" style="fill:#231f20"/><path d="M160.13,37.06V30.62h.79v6.44Z" style="fill:#231f20"/><path d="M164.64,37.06V32.4h.71v.7a1.88,1.88,0,0,1,.5-.65.88.88,0,0,1,.51-.16,1.56,1.56,0,0,1,.82.25l-.28.74a1.05,1.05,0,0,0-.58-.17.75.75,0,0,0-.46.15.87.87,0,0,0-.3.44,3,3,0,0,0-.13.92v2.44Z" style="fill:#231f20"/><path d="M170.84,35.56l.82.1a2,2,0,0,1-.72,1.11,2.1,2.1,0,0,1-1.33.4,2.14,2.14,0,0,1-1.63-.63,2.46,2.46,0,0,1-.6-1.77,2.55,2.55,0,0,1,.61-1.83,2.06,2.06,0,0,1,1.57-.65,2,2,0,0,1,1.53.64,2.5,2.5,0,0,1,.59,1.79v.21H168.2a1.81,1.81,0,0,0,.43,1.18,1.33,1.33,0,0,0,1,.41,1.21,1.21,0,0,0,.74-.23A1.49,1.49,0,0,0,170.84,35.56Zm-2.6-1.28h2.61a1.63,1.63,0,0,0-.3-.88,1.2,1.2,0,0,0-1-.46,1.28,1.28,0,0,0-.92.36A1.52,1.52,0,0,0,168.24,34.28Z" style="fill:#231f20"/><path d="M172.65,38.85V32.4h.72V33a1.7,1.7,0,0,1,.58-.53,1.55,1.55,0,0,1,.78-.18,1.8,1.8,0,0,1,1.05.31,1.89,1.89,0,0,1,.69.87,3,3,0,0,1,.23,1.22,3.13,3.13,0,0,1-.25,1.29,2,2,0,0,1-.75.88,1.88,1.88,0,0,1-1,.31A1.49,1.49,0,0,1,174,37a1.66,1.66,0,0,1-.52-.42v2.27Zm.72-4.09a2.05,2.05,0,0,0,.36,1.33,1.16,1.16,0,0,0,.89.43,1.14,1.14,0,0,0,.9-.45,2.13,2.13,0,0,0,.37-1.38,2.1,2.1,0,0,0-.36-1.34,1.09,1.09,0,0,0-1.77,0A2.12,2.12,0,0,0,173.37,34.76Z" style="fill:#231f20"/><path d="M180.85,35.56l.82.1a2,2,0,0,1-.72,1.11,2.1,2.1,0,0,1-1.33.4,2.14,2.14,0,0,1-1.63-.63,2.46,2.46,0,0,1-.6-1.77,2.55,2.55,0,0,1,.61-1.83,2.06,2.06,0,0,1,1.57-.65,2,2,0,0,1,1.53.64,2.5,2.5,0,0,1,.59,1.79v.21h-3.48a1.76,1.76,0,0,0,.44,1.18,1.29,1.29,0,0,0,1,.41,1.21,1.21,0,0,0,.74-.23A1.49,1.49,0,0,0,180.85,35.56Zm-2.6-1.28h2.61a1.55,1.55,0,0,0-.3-.88,1.2,1.2,0,0,0-1-.46,1.28,1.28,0,0,0-.92.36A1.52,1.52,0,0,0,178.25,34.28Z" style="fill:#231f20"/><path d="M185.71,36.49a3,3,0,0,1-.85.52,2.28,2.28,0,0,1-.87.16,1.69,1.69,0,0,1-1.18-.38,1.23,1.23,0,0,1-.42-1,1.27,1.27,0,0,1,.16-.62,1.3,1.3,0,0,1,.41-.46,2.12,2.12,0,0,1,.57-.26,6.05,6.05,0,0,1,.7-.12,6.48,6.48,0,0,0,1.41-.27c0-.11,0-.18,0-.21a.87.87,0,0,0-.23-.68,1.31,1.31,0,0,0-.9-.27,1.37,1.37,0,0,0-.82.2,1.21,1.21,0,0,0-.4.69l-.77-.1a2,2,0,0,1,.35-.81,1.52,1.52,0,0,1,.7-.47,3.05,3.05,0,0,1,1-.16,3,3,0,0,1,1,.14,1.34,1.34,0,0,1,.55.35,1.48,1.48,0,0,1,.24.54,4.11,4.11,0,0,1,0,.73v1.06a12,12,0,0,0,.05,1.39,1.64,1.64,0,0,0,.2.56h-.82A1.41,1.41,0,0,1,185.71,36.49Zm-.07-1.77a5.6,5.6,0,0,1-1.29.3,2.93,2.93,0,0,0-.69.16.66.66,0,0,0-.42.63.68.68,0,0,0,.24.53,1,1,0,0,0,.7.21,1.68,1.68,0,0,0,.81-.2,1.2,1.2,0,0,0,.52-.55,1.82,1.82,0,0,0,.13-.79Z" style="fill:#231f20"/><path d="M189.39,36.35l.12.7a2.7,2.7,0,0,1-.6.07,1.37,1.37,0,0,1-.67-.13.72.72,0,0,1-.33-.36,2.66,2.66,0,0,1-.1-.93V33h-.58V32.4h.58V31.24l.79-.48V32.4h.79V33h-.79v2.73a1.26,1.26,0,0,0,0,.43.31.31,0,0,0,.14.16.49.49,0,0,0,.27.06A1.69,1.69,0,0,0,189.39,36.35Z" style="fill:#231f20"/><path d="M189.85,35.67l.78-.12a1.14,1.14,0,0,0,.37.72,1.31,1.31,0,0,0,.84.25,1.28,1.28,0,0,0,.81-.22.67.67,0,0,0,.26-.53.48.48,0,0,0-.23-.42,3.56,3.56,0,0,0-.81-.27,6.32,6.32,0,0,1-1.2-.38,1.06,1.06,0,0,1-.51-.44,1.16,1.16,0,0,1-.18-.63,1.13,1.13,0,0,1,.15-.57,1.16,1.16,0,0,1,.38-.44,1.73,1.73,0,0,1,.51-.24,2.48,2.48,0,0,1,.68-.09,2.63,2.63,0,0,1,1,.16,1.29,1.29,0,0,1,.61.43,1.69,1.69,0,0,1,.27.72l-.77.1a.87.87,0,0,0-.31-.56,1.13,1.13,0,0,0-.71-.2,1.32,1.32,0,0,0-.78.18.53.53,0,0,0-.23.42.47.47,0,0,0,.09.28.84.84,0,0,0,.31.21c.08,0,.31.1.7.2a8.77,8.77,0,0,1,1.17.37,1.18,1.18,0,0,1,.52.41,1.24,1.24,0,0,1,.19.68,1.4,1.4,0,0,1-.23.75,1.58,1.58,0,0,1-.67.54,2.55,2.55,0,0,1-1,.19,2.21,2.21,0,0,1-1.39-.38A1.77,1.77,0,0,1,189.85,35.67Z" style="fill:#231f20"/><rect x="131.18" y="47.14" width="9.11" height="3.6" style="fill:#9fdcf2"/><rect x="140.29" y="47.14" width="9.11" height="3.6" style="fill:#9fdcf2"/><rect x="149.39" y="47.14" width="9.11" height="3.6" style="fill:#9fdcf2"/><rect x="158.5" y="47.14" width="9.11" height="3.6" style="fill:#9fdcf2"/><rect x="167.61" y="47.14" width="9.11" height="3.6" style="fill:#9fdcf2"/><rect x="176.72" y="47.14" width="9.11" height="3.6" style="fill:#9fdcf2"/><rect x="185.83" y="47.14" width="9.11" height="3.6" style="fill:#9fdcf2"/><path d="M127.09,51.22h-.62V47.3a2.9,2.9,0,0,1-.58.42,4.28,4.28,0,0,1-.65.32v-.59a4,4,0,0,0,.91-.59,2.37,2.37,0,0,0,.54-.67h.4Z" style="fill:#231f20"/><rect x="131.18" y="62.39" width="9.11" height="3.6" style="fill:#9fdcf2;opacity:0.1"/><rect x="140.29" y="62.39" width="9.11" height="3.6" style="fill:#ec1c24;opacity:0.1"/><rect x="149.39" y="62.39" width="9.11" height="3.6" style="fill:#9fdcf2;opacity:0.1"/><rect x="158.5" y="62.39" width="9.11" height="3.6" style="fill:#9fdcf2;opacity:0.1"/><rect x="167.61" y="62.39" width="9.11" height="3.6" style="fill:#9fdcf2;opacity:0.1"/><rect x="176.72" y="62.39" width="9.11" height="3.6" style="fill:#ec1c24;opacity:0.1"/><rect x="185.83" y="62.39" width="9.11" height="3.6" style="fill:#9fdcf2;opacity:0.1"/><rect x="131.18" y="54.79" width="9.11" height="3.6" style="fill:#9fdcf2"/><rect x="140.29" y="54.79" width="9.11" height="3.6" style="fill:#9fdcf2"/><rect x="149.39" y="54.79" width="9.11" height="3.6" style="fill:#9fdcf2"/><rect x="158.5" y="54.79" width="9.11" height="3.6" style="fill:#9fdcf2"/><rect x="167.61" y="54.79" width="9.11" height="3.6" style="fill:#9fdcf2"/><rect x="176.72" y="54.79" width="9.11" height="3.6" style="fill:#9fdcf2"/><rect x="185.83" y="54.79" width="9.11" height="3.6" style="fill:#9fdcf2"/><rect x="131.18" y="92.51" width="9.11" height="3.6" style="fill:#9fdcf2"/><rect x="140.29" y="92.51" width="9.11" height="3.6" style="fill:#9fdcf2"/><rect x="149.39" y="92.51" width="9.11" height="3.6" style="fill:#9fdcf2"/><rect x="158.5" y="92.51" width="9.11" height="3.6" style="fill:#9fdcf2"/><rect x="167.61" y="92.51" width="9.11" height="3.6" style="fill:#9fdcf2"/><rect x="176.72" y="92.51" width="9.11" height="3.6" style="fill:#9fdcf2"/><rect x="185.83" y="92.51" width="9.11" height="3.6" style="fill:#9fdcf2"/><rect x="131.18" y="69.99" width="9.11" height="3.6" style="fill:#9fdcf2"/><rect x="140.29" y="69.99" width="9.11" height="3.6" style="fill:#9fdcf2"/><rect x="149.39" y="69.99" width="9.11" height="3.6" style="fill:#9fdcf2"/><rect x="158.5" y="69.99" width="9.11" height="3.6" style="fill:#9fdcf2"/><rect x="167.61" y="69.99" width="9.11" height="3.6" style="fill:#9fdcf2"/><rect x="176.72" y="69.99" width="9.11" height="3.6" style="fill:#9fdcf2"/><rect x="185.83" y="69.99" width="9.11" height="3.6" style="fill:#9fdcf2"/><circle cx="163.06" cy="83.59" r="0.69" style="fill:#231f20"/><circle cx="163.06" cy="90.03" r="0.69" style="fill:#231f20"/><circle cx="163.06" cy="86.81" r="0.69" style="fill:#231f20"/><path d="M128,58.27v.6h-3.31a1.25,1.25,0,0,1,.07-.43,2.29,2.29,0,0,1,.41-.67A6.75,6.75,0,0,1,126,57,6.42,6.42,0,0,0,127.08,56a1.29,1.29,0,0,0,.29-.74.79.79,0,0,0-.27-.61.93.93,0,0,0-.68-.26,1,1,0,0,0-.71.27,1,1,0,0,0-.27.74l-.63-.07a1.52,1.52,0,0,1,.49-1.07,1.65,1.65,0,0,1,1.14-.38,1.61,1.61,0,0,1,1.14.4,1.33,1.33,0,0,1,.42,1,1.56,1.56,0,0,1-.12.59,2.71,2.71,0,0,1-.41.61,10.35,10.35,0,0,1-1,.88,9.44,9.44,0,0,0-.71.63,1.87,1.87,0,0,0-.26.33Z" style="fill:#231f20"/><g style="opacity:0.1"><path d="M124.77,65.14l.62-.08a1.32,1.32,0,0,0,.36.75.88.88,0,0,0,.62.24,1,1,0,0,0,.73-.31,1,1,0,0,0,.3-.74,1,1,0,0,0-.27-.7,1,1,0,0,0-.71-.27,2,2,0,0,0-.43.06l.07-.54h.1a1.3,1.3,0,0,0,.7-.2.72.72,0,0,0,.32-.64.77.77,0,0,0-.23-.56.8.8,0,0,0-.59-.22.85.85,0,0,0-.6.23,1.14,1.14,0,0,0-.31.67l-.61-.11a1.55,1.55,0,0,1,.51-1,1.52,1.52,0,0,1,1-.34,1.61,1.61,0,0,1,.76.18,1.3,1.3,0,0,1,.53.48,1.25,1.25,0,0,1,.18.65,1.12,1.12,0,0,1-.17.59,1.16,1.16,0,0,1-.52.42,1.13,1.13,0,0,1,.69.43,1.3,1.3,0,0,1,.25.81,1.49,1.49,0,0,1-.48,1.11,1.69,1.69,0,0,1-1.21.45,1.59,1.59,0,0,1-1.1-.39A1.56,1.56,0,0,1,124.77,65.14Z" style="fill:#231f20"/></g><path d="M126.74,74.07v-1.2h-2.17V72.3l2.29-3.25h.5V72.3H128v.57h-.68v1.2Zm0-1.77V70l-1.57,2.26Z" style="fill:#231f20"/><rect x="131.18" y="77.99" width="9.11" height="3.6" style="fill:#9fdcf2;opacity:0.1"/><rect x="140.29" y="77.99" width="9.11" height="3.6" style="fill:#9fdcf2;opacity:0.1"/><rect x="149.39" y="77.99" width="9.11" height="3.6" style="fill:#ec1c24;opacity:0.1"/><rect x="158.5" y="77.99" width="9.11" height="3.6" style="fill:#9fdcf2;opacity:0.1"/><rect x="167.61" y="77.99" width="9.11" height="3.6" style="fill:#ec1c24;opacity:0.1"/><rect x="176.72" y="77.99" width="9.11" height="3.6" style="fill:#9fdcf2;opacity:0.1"/><rect x="185.83" y="77.99" width="9.11" height="3.6" style="fill:#9fdcf2;opacity:0.1"/><g style="opacity:0.1"><path d="M124.77,80.75l.65,0a1.21,1.21,0,0,0,.33.71.92.92,0,0,0,.63.24,1,1,0,0,0,.75-.34,1.24,1.24,0,0,0,.31-.89,1.16,1.16,0,0,0-.29-.83,1.06,1.06,0,0,0-.78-.3,1.08,1.08,0,0,0-.54.13,1,1,0,0,0-.37.35l-.58-.07.49-2.58h2.49v.59h-2l-.27,1.35a1.62,1.62,0,0,1,1-.32,1.47,1.47,0,0,1,1.1.46,1.58,1.58,0,0,1,.45,1.17,1.83,1.83,0,0,1-.39,1.17,1.58,1.58,0,0,1-1.32.61,1.62,1.62,0,0,1-1.11-.38A1.49,1.49,0,0,1,124.77,80.75Z" style="fill:#231f20"/></g><path d="M118.84,97.47h-.61V93.55a3.34,3.34,0,0,1-.59.42,3.87,3.87,0,0,1-.65.32v-.6a3.4,3.4,0,0,0,.91-.59,2.12,2.12,0,0,0,.54-.67h.4Z" style="fill:#231f20"/><path d="M120.42,95a4.73,4.73,0,0,1,.18-1.44,1.77,1.77,0,0,1,.54-.83,1.39,1.39,0,0,1,.91-.3,1.49,1.49,0,0,1,.71.17,1.32,1.32,0,0,1,.5.47,2.39,2.39,0,0,1,.31.74,4.75,4.75,0,0,1,.11,1.19,4.63,4.63,0,0,1-.18,1.42,1.8,1.8,0,0,1-.54.84,1.42,1.42,0,0,1-.91.29,1.38,1.38,0,0,1-1.14-.52A3.27,3.27,0,0,1,120.42,95Zm.63,0a3.05,3.05,0,0,0,.29,1.64.82.82,0,0,0,1.42,0,4.81,4.81,0,0,0,0-3.29.86.86,0,0,0-.72-.41.77.77,0,0,0-.67.36A3.12,3.12,0,0,0,121.05,95Z" style="fill:#231f20"/><path d="M127.6,90.58l-.63,0a1,1,0,0,0-.24-.54.81.81,0,0,0-.63-.28.88.88,0,0,0-.53.17,1.43,1.43,0,0,0-.47.64,3.13,3.13,0,0,0-.18,1.19,1.54,1.54,0,0,1,.56-.52,1.52,1.52,0,0,1,.69-.16,1.44,1.44,0,0,1,1.08.46,1.7,1.7,0,0,1,.44,1.21,2,2,0,0,1-.21.9,1.61,1.61,0,0,1-.57.64,1.66,1.66,0,0,1-.83.22,1.61,1.61,0,0,1-1.29-.59,2.92,2.92,0,0,1-.5-1.91,3.41,3.41,0,0,1,.55-2.17,1.57,1.57,0,0,1,1.3-.6,1.39,1.39,0,0,1,1.46,1.29ZM125,92.8a1.38,1.38,0,0,0,.14.63,1,1,0,0,0,.91.61.89.89,0,0,0,.69-.33,1.28,1.28,0,0,0,.29-.88,1.21,1.21,0,0,0-.29-.84,1,1,0,0,0-.72-.31,1,1,0,0,0-.72.31A1.13,1.13,0,0,0,125,92.8Z" style="fill:#231f20"/><circle cx="200.72" cy="56.59" r="2.49" style="fill:#231f20;stroke:#fff;stroke-miterlimit:10;stroke-width:0.5px"/><circle cx="200.72" cy="48.94" r="2.49" style="fill:#231f20;stroke:#fff;stroke-miterlimit:10;stroke-width:0.5px"/><circle cx="200.72" cy="71.79" r="2.49" style="fill:#231f20;stroke:#fff;stroke-miterlimit:10;stroke-width:0.5px"/><circle cx="200.72" cy="94.31" r="2.49" style="fill:#231f20;stroke:#fff;stroke-miterlimit:10;stroke-width:0.5px"/><path d="M319.48,26.26v-.59a1.43,1.43,0,0,1-1.3.7,1.81,1.81,0,0,1-1-.31,2,2,0,0,1-.72-.86,3,3,0,0,1-.26-1.27,3.4,3.4,0,0,1,.23-1.26,1.93,1.93,0,0,1,.7-.88,1.89,1.89,0,0,1,1-.3,1.55,1.55,0,0,1,.76.18,1.68,1.68,0,0,1,.53.46V19.82h.79v6.44ZM317,23.93a2,2,0,0,0,.38,1.34,1.13,1.13,0,0,0,.89.45,1.09,1.09,0,0,0,.88-.43A1.89,1.89,0,0,0,319.5,24a2.24,2.24,0,0,0-.37-1.41,1.14,1.14,0,0,0-.91-.45,1.09,1.09,0,0,0-.88.44A2.08,2.08,0,0,0,317,23.93Z" style="fill:#231f20"/><path d="M324.66,24.76l.81.1a1.91,1.91,0,0,1-.71,1.11,2.42,2.42,0,0,1-3-.23,2.46,2.46,0,0,1-.6-1.77,2.59,2.59,0,0,1,.6-1.83,2.08,2.08,0,0,1,1.58-.65,2,2,0,0,1,1.53.64,2.54,2.54,0,0,1,.59,1.79v.21H322a1.75,1.75,0,0,0,.43,1.18,1.31,1.31,0,0,0,1,.41,1.23,1.23,0,0,0,.74-.23A1.56,1.56,0,0,0,324.66,24.76Zm-2.6-1.28h2.61a1.63,1.63,0,0,0-.3-.88,1.21,1.21,0,0,0-1-.46,1.24,1.24,0,0,0-.92.37A1.42,1.42,0,0,0,322.06,23.48Z" style="fill:#231f20"/><path d="M326.45,26.26V19.82h.79v6.44Z" style="fill:#231f20"/><path d="M331.66,24.76l.82.1a2,2,0,0,1-.72,1.11,2.1,2.1,0,0,1-1.33.4,2.14,2.14,0,0,1-1.63-.63,2.46,2.46,0,0,1-.6-1.77,2.55,2.55,0,0,1,.61-1.83,2.06,2.06,0,0,1,1.57-.65,2,2,0,0,1,1.53.64,2.5,2.5,0,0,1,.6,1.79s0,.12,0,.21H329a1.76,1.76,0,0,0,.44,1.18,1.29,1.29,0,0,0,1,.41,1.21,1.21,0,0,0,.74-.23A1.49,1.49,0,0,0,331.66,24.76Zm-2.6-1.28h2.61a1.48,1.48,0,0,0-.3-.88,1.2,1.2,0,0,0-1-.46,1.21,1.21,0,0,0-.91.37A1.43,1.43,0,0,0,329.06,23.48Z" style="fill:#231f20"/><path d="M335.2,25.55l.11.7a2.68,2.68,0,0,1-.59.07,1.37,1.37,0,0,1-.67-.13.79.79,0,0,1-.34-.36,3,3,0,0,1-.09-.93V22.21H333V21.6h.58V20.44l.78-.47V21.6h.8v.61h-.8v2.73a1.6,1.6,0,0,0,0,.43.36.36,0,0,0,.14.16.49.49,0,0,0,.27.06A1.7,1.7,0,0,0,335.2,25.55Z" style="fill:#231f20"/><path d="M339.17,24.76l.81.1a1.91,1.91,0,0,1-.71,1.11,2.42,2.42,0,0,1-3-.23,2.46,2.46,0,0,1-.6-1.77,2.59,2.59,0,0,1,.6-1.83,2.08,2.08,0,0,1,1.58-.65,2,2,0,0,1,1.53.64,2.54,2.54,0,0,1,.59,1.79v.21h-3.48a1.81,1.81,0,0,0,.43,1.18,1.31,1.31,0,0,0,1,.41,1.23,1.23,0,0,0,.74-.23A1.56,1.56,0,0,0,339.17,24.76Zm-2.6-1.28h2.61a1.63,1.63,0,0,0-.3-.88,1.2,1.2,0,0,0-1-.46,1.24,1.24,0,0,0-.92.37A1.42,1.42,0,0,0,336.57,23.48Z" style="fill:#231f20"/><path d="M344.77,26.26,343,21.6h.83l1,2.79c.1.3.2.62.3.94.07-.25.16-.54.29-.89l1-2.84h.81l-1.77,4.66Z" style="fill:#231f20"/><path d="M351.17,24.76l.82.1a2,2,0,0,1-.72,1.11,2.09,2.09,0,0,1-1.33.4,2.15,2.15,0,0,1-1.63-.63,2.46,2.46,0,0,1-.6-1.77,2.59,2.59,0,0,1,.61-1.83,2.07,2.07,0,0,1,1.57-.65,2,2,0,0,1,1.53.64,2.5,2.5,0,0,1,.6,1.79,1.79,1.79,0,0,1,0,.21h-3.48a1.81,1.81,0,0,0,.44,1.18,1.29,1.29,0,0,0,1,.41,1.26,1.26,0,0,0,.75-.23A1.55,1.55,0,0,0,351.17,24.76Zm-2.59-1.28h2.6a1.48,1.48,0,0,0-.3-.88,1.2,1.2,0,0,0-1-.46,1.21,1.21,0,0,0-.91.37A1.38,1.38,0,0,0,348.58,23.48Z" style="fill:#231f20"/><path d="M353,26.26V21.6h.71v.7a1.88,1.88,0,0,1,.5-.65.84.84,0,0,1,.51-.16,1.55,1.55,0,0,1,.81.25l-.27.74a1.1,1.1,0,0,0-.58-.17.78.78,0,0,0-.47.15.86.86,0,0,0-.29.44,3,3,0,0,0-.13.92v2.44Z" style="fill:#231f20"/><path d="M357.71,25.55l.11.7a2.7,2.7,0,0,1-.6.07,1.33,1.33,0,0,1-.66-.13.79.79,0,0,1-.34-.36,3,3,0,0,1-.09-.93V22.21h-.58V21.6h.58V20.44l.78-.47V21.6h.8v.61h-.8v2.73a1.6,1.6,0,0,0,0,.43.36.36,0,0,0,.14.16.49.49,0,0,0,.27.06A1.77,1.77,0,0,0,357.71,25.55Z" style="fill:#231f20"/><path d="M361.68,24.76l.81.1a2,2,0,0,1-.71,1.11,2.42,2.42,0,0,1-3-.23,2.46,2.46,0,0,1-.6-1.77,2.59,2.59,0,0,1,.6-1.83,2.08,2.08,0,0,1,1.58-.65,2,2,0,0,1,1.53.64,2.54,2.54,0,0,1,.59,1.79v.21H359a1.81,1.81,0,0,0,.44,1.18,1.31,1.31,0,0,0,1,.41,1.23,1.23,0,0,0,.74-.23A1.56,1.56,0,0,0,361.68,24.76Zm-2.6-1.28h2.61a1.63,1.63,0,0,0-.3-.88,1.21,1.21,0,0,0-1-.46,1.24,1.24,0,0,0-.92.37A1.38,1.38,0,0,0,359.08,23.48Z" style="fill:#231f20"/><path d="M363,26.26l1.7-2.42-1.57-2.24h1l.71,1.09c.14.21.24.38.33.52.13-.19.24-.36.35-.51l.79-1.1h.94l-1.61,2.19,1.74,2.47h-1l-1-1.45-.26-.39-1.22,1.84Z" style="fill:#231f20"/><path d="M373.53,24.55l.78.1a2,2,0,0,1-.65,1.26,1.87,1.87,0,0,1-1.29.46,2,2,0,0,1-1.54-.63,2.52,2.52,0,0,1-.58-1.79,3.22,3.22,0,0,1,.25-1.33,1.75,1.75,0,0,1,.76-.85,2.23,2.23,0,0,1,1.11-.28,2,2,0,0,1,1.25.38,1.78,1.78,0,0,1,.62,1.1l-.77.12a1.35,1.35,0,0,0-.39-.71,1,1,0,0,0-.68-.24,1.21,1.21,0,0,0-1,.43,2,2,0,0,0-.37,1.35,2.1,2.1,0,0,0,.36,1.37,1.15,1.15,0,0,0,.94.43,1.12,1.12,0,0,0,.78-.29A1.37,1.37,0,0,0,373.53,24.55Z" style="fill:#231f20"/><path d="M374.69,23.93a2.39,2.39,0,0,1,.72-1.92,2.15,2.15,0,0,1,1.47-.52,2.08,2.08,0,0,1,1.57.63,2.38,2.38,0,0,1,.61,1.74,3.1,3.1,0,0,1-.26,1.42,2,2,0,0,1-.79.8,2.32,2.32,0,0,1-1.13.29,2.09,2.09,0,0,1-1.58-.63A2.48,2.48,0,0,1,374.69,23.93Zm.82,0a2,2,0,0,0,.39,1.34,1.29,1.29,0,0,0,2,0,2.05,2.05,0,0,0,.39-1.37,2,2,0,0,0-.39-1.31,1.29,1.29,0,0,0-2,0A2,2,0,0,0,375.51,23.93Z" style="fill:#231f20"/><path d="M381.29,26.26l-1.78-4.66h.84l1,2.79c.11.3.21.62.3.94.07-.25.17-.54.29-.89l1-2.84h.81L382,26.26Z" style="fill:#231f20"/><path d="M387.69,24.76l.81.1a1.91,1.91,0,0,1-.71,1.11,2.42,2.42,0,0,1-3-.23,2.46,2.46,0,0,1-.6-1.77,2.55,2.55,0,0,1,.61-1.83,2,2,0,0,1,1.57-.65,2,2,0,0,1,1.53.64,2.54,2.54,0,0,1,.59,1.79v.21h-3.48a1.81,1.81,0,0,0,.43,1.18,1.31,1.31,0,0,0,1,.41,1.23,1.23,0,0,0,.74-.23A1.56,1.56,0,0,0,387.69,24.76Zm-2.6-1.28h2.61a1.63,1.63,0,0,0-.3-.88,1.2,1.2,0,0,0-1-.46,1.24,1.24,0,0,0-.92.37A1.42,1.42,0,0,0,385.09,23.48Z" style="fill:#231f20"/><path d="M389.49,26.26V21.6h.71v.7a1.88,1.88,0,0,1,.5-.65.88.88,0,0,1,.51-.16,1.5,1.5,0,0,1,.81.25l-.27.74a1.05,1.05,0,0,0-.58-.17.75.75,0,0,0-.46.15.87.87,0,0,0-.3.44,3,3,0,0,0-.13.92v2.44Z" style="fill:#231f20"/><g style="opacity:0.1"><line x1="333.09" y1="71.17" x2="328.7" y2="56.69" style="fill:none;stroke:#ec1c24;stroke-miterlimit:10;stroke-width:0.5px"/><line x1="328.7" y1="85.65" x2="333.09" y2="71.17" style="fill:none;stroke:#ec1c24;stroke-miterlimit:10;stroke-width:0.5px"/><line x1="343.43" y1="89.08" x2="328.7" y2="85.65" style="fill:none;stroke:#ec1c24;stroke-miterlimit:10;stroke-width:0.5px"/><line x1="353.78" y1="100.12" x2="343.43" y2="89.08" style="fill:none;stroke:#ec1c24;stroke-miterlimit:10;stroke-width:0.5px"/><line x1="364.12" y1="89.08" x2="353.78" y2="100.12" style="fill:none;stroke:#ec1c24;stroke-miterlimit:10;stroke-width:0.5px"/><line x1="378.86" y1="85.65" x2="364.12" y2="89.08" style="fill:none;stroke:#ec1c24;stroke-miterlimit:10;stroke-width:0.5px"/><line x1="374.46" y1="71.17" x2="378.86" y2="85.65" style="fill:none;stroke:#ec1c24;stroke-miterlimit:10;stroke-width:0.5px"/><line x1="378.86" y1="56.69" x2="374.46" y2="71.17" style="fill:none;stroke:#ec1c24;stroke-miterlimit:10;stroke-width:0.5px"/><line x1="364.12" y1="53.25" x2="378.86" y2="56.69" style="fill:none;stroke:#ec1c24;stroke-miterlimit:10;stroke-width:0.5px"/><line x1="353.78" y1="42.21" x2="364.12" y2="53.25" style="fill:none;stroke:#ec1c24;stroke-miterlimit:10;stroke-width:0.5px"/><line x1="343.43" y1="53.25" x2="353.78" y2="42.21" style="fill:none;stroke:#ec1c24;stroke-miterlimit:10;stroke-width:0.5px"/><line x1="328.7" y1="56.69" x2="343.43" y2="53.25" style="fill:none;stroke:#ec1c24;stroke-miterlimit:10;stroke-width:0.5px"/><line x1="322.3" y1="52.86" x2="328.7" y2="56.69" style="fill:none;stroke:#ec1c24;stroke-miterlimit:10;stroke-width:0.5px"/><line x1="353.89" y1="34.52" x2="353.82" y2="42.29" style="fill:none;stroke:#ec1c24;stroke-miterlimit:10;stroke-width:0.5px"/><line x1="378.93" y1="56.64" x2="385.75" y2="52.7" style="fill:none;stroke:#ec1c24;stroke-miterlimit:10;stroke-width:0.5px"/><line x1="378.86" y1="85.65" x2="386.1" y2="89.7" style="fill:none;stroke:#ec1c24;stroke-miterlimit:10;stroke-width:0.5px"/><line x1="353.83" y1="100.05" x2="354.45" y2="107.97" style="fill:none;stroke:#ec1c24;stroke-miterlimit:10;stroke-width:0.5px"/><line x1="321.81" y1="89.63" x2="328.63" y2="85.68" style="fill:none;stroke:#ec1c24;stroke-miterlimit:10;stroke-width:0.5px"/><polygon points="342.35 71.17 348.06 81.06 359.49 81.06 365.2 71.17 359.49 61.27 348.06 61.27 342.35 71.17" style="fill:none;stroke:#ec1c24;stroke-miterlimit:10;stroke-width:0.5px"/><line x1="343.43" y1="53.25" x2="348.06" y2="61.27" style="fill:none;stroke:#ec1c24;stroke-miterlimit:10;stroke-width:0.5px"/><line x1="364.12" y1="53.25" x2="359.49" y2="61.27" style="fill:none;stroke:#ec1c24;stroke-miterlimit:10;stroke-width:0.5px"/><line x1="333.09" y1="71.17" x2="342.35" y2="71.17" style="fill:none;stroke:#ec1c24;stroke-miterlimit:10;stroke-width:0.5px"/><line x1="343.43" y1="89.08" x2="348.06" y2="81.06" style="fill:none;stroke:#ec1c24;stroke-miterlimit:10;stroke-width:0.5px"/><line x1="364.12" y1="89.08" x2="359.49" y2="81.06" style="fill:none;stroke:#ec1c24;stroke-miterlimit:10;stroke-width:0.5px"/><line x1="365.21" y1="71.17" x2="374.46" y2="71.17" style="fill:none;stroke:#ec1c24;stroke-miterlimit:10;stroke-width:0.5px"/></g><circle cx="322.3" cy="52.86" r="1.99" style="fill:#231f20;stroke:#fff;stroke-miterlimit:10;stroke-width:0.5px"/><circle cx="353.89" cy="34.66" r="1.99" style="fill:#231f20;stroke:#fff;stroke-miterlimit:10;stroke-width:0.5px"/><circle cx="385.75" cy="52.7" r="1.99" style="fill:#231f20;stroke:#fff;stroke-miterlimit:10;stroke-width:0.5px"/><circle cx="386.1" cy="89.7" r="1.99" style="fill:#231f20;stroke:#fff;stroke-miterlimit:10;stroke-width:0.5px"/><circle cx="354.45" cy="107.97" r="1.99" style="fill:#231f20;stroke:#fff;stroke-miterlimit:10;stroke-width:0.5px"/><circle cx="321.81" cy="89.63" r="1.99" style="fill:#231f20;stroke:#fff;stroke-miterlimit:10;stroke-width:0.5px"/><circle cx="328.7" cy="56.69" r="1.99" style="fill:#231f20;stroke:#bbbdbf;stroke-miterlimit:10;stroke-width:0.5px;opacity:0.1"/><circle cx="353.89" cy="42.25" r="1.99" style="fill:#231f20;stroke:#fff;stroke-miterlimit:10;stroke-width:0.5px;opacity:0.1"/><circle cx="328.7" cy="85.65" r="1.99" style="fill:#231f20;stroke:#fff;stroke-miterlimit:10;stroke-width:0.5px;opacity:0.1"/><circle cx="353.84" cy="100.09" r="1.99" style="fill:#231f20;stroke:#fff;stroke-miterlimit:10;stroke-width:0.5px;opacity:0.1"/><circle cx="378.89" cy="85.66" r="1.99" style="fill:#231f20;stroke:#fff;stroke-miterlimit:10;stroke-width:0.5px;opacity:0.1"/><circle cx="378.86" cy="56.69" r="1.99" style="fill:#231f20;stroke:#fff;stroke-miterlimit:10;stroke-width:0.5px;opacity:0.1"/><circle cx="333.09" cy="71.17" r="1.99" style="fill:#231f20;stroke:#fff;stroke-miterlimit:10;stroke-width:0.5px"/><circle cx="364.12" cy="89.08" r="1.99" style="fill:#231f20;stroke:#fff;stroke-miterlimit:10;stroke-width:0.5px"/><circle cx="374.4" cy="71.17" r="1.99" style="fill:#231f20;stroke:#fff;stroke-miterlimit:10;stroke-width:0.5px"/><circle cx="343.43" cy="89.08" r="1.99" style="fill:#231f20;stroke:#fff;stroke-miterlimit:10;stroke-width:0.5px"/><circle cx="364.12" cy="53.25" r="1.99" style="fill:#231f20;stroke:#fff;stroke-miterlimit:10;stroke-width:0.5px"/><circle cx="343.43" cy="53.25" r="1.99" style="fill:#231f20;stroke:#fff;stroke-miterlimit:10;stroke-width:0.5px"/><circle cx="348.08" cy="61.29" r="1.99" style="fill:#231f20;stroke:#fff;stroke-miterlimit:10;stroke-width:0.5px;opacity:0.1"/><circle cx="342.35" cy="71.17" r="1.99" style="fill:#231f20;stroke:#fff;stroke-miterlimit:10;stroke-width:0.5px;opacity:0.1"/><circle cx="359.47" cy="81.04" r="1.99" style="fill:#231f20;stroke:#fff;stroke-miterlimit:10;stroke-width:0.5px;opacity:0.1"/><circle cx="365.26" cy="71.26" r="1.99" style="fill:#231f20;stroke:#fff;stroke-miterlimit:10;stroke-width:0.5px;opacity:0.1"/><circle cx="348.06" cy="81.18" r="1.99" style="fill:#231f20;stroke:#fff;stroke-miterlimit:10;stroke-width:0.5px;opacity:0.1"/><circle cx="359.49" cy="61.27" r="1.99" style="fill:#231f20;stroke:#fff;stroke-miterlimit:10;stroke-width:0.5px;opacity:0.1"/><path d="M447.55,13.94V8.76h.79v.73A1.87,1.87,0,0,1,450,8.64a2.08,2.08,0,0,1,.87.17,1.34,1.34,0,0,1,.58.44,1.67,1.67,0,0,1,.28.65,5.26,5.26,0,0,1,0,.85v3.19h-.88V10.79a2.67,2.67,0,0,0-.1-.81.83.83,0,0,0-.37-.42,1.11,1.11,0,0,0-.61-.16,1.4,1.4,0,0,0-1,.36,1.75,1.75,0,0,0-.41,1.35v2.83Z" style="fill:#231f20"/><path d="M452.79,11.35a2.68,2.68,0,0,1,.8-2.14,2.42,2.42,0,0,1,1.63-.57,2.34,2.34,0,0,1,1.75.7,2.68,2.68,0,0,1,.68,1.94,3.43,3.43,0,0,1-.3,1.57,2.16,2.16,0,0,1-.88.89,2.55,2.55,0,0,1-1.25.32,2.31,2.31,0,0,1-1.76-.7A2.79,2.79,0,0,1,452.79,11.35Zm.9,0a2.21,2.21,0,0,0,.44,1.49,1.38,1.38,0,0,0,1.09.5,1.4,1.4,0,0,0,1.09-.5,2.26,2.26,0,0,0,.43-1.52,2.16,2.16,0,0,0-.43-1.46,1.41,1.41,0,0,0-1.09-.49,1.37,1.37,0,0,0-1.09.49A2.19,2.19,0,0,0,453.69,11.35Z" style="fill:#231f20"/><path d="M458.68,13.94V8.76h.79v.73a1.86,1.86,0,0,1,1.65-.85,2,2,0,0,1,.86.17,1.37,1.37,0,0,1,.59.44,1.66,1.66,0,0,1,.27.65,5.26,5.26,0,0,1,.05.85v3.19H462V10.79a2.38,2.38,0,0,0-.1-.81.83.83,0,0,0-.37-.42,1.09,1.09,0,0,0-.61-.16,1.42,1.42,0,0,0-1,.36,1.75,1.75,0,0,0-.4,1.35v2.83Z" style="fill:#231f20"/><path d="M463.9,11.79v-.88h2.7v.88Z" style="fill:#231f20"/><path d="M467.56,13.94V8.76h.79v.78a2.16,2.16,0,0,1,.56-.73,1,1,0,0,1,.56-.17,1.72,1.72,0,0,1,.91.28l-.31.82a1.21,1.21,0,0,0-.64-.19.81.81,0,0,0-.52.17,1,1,0,0,0-.33.48,3.72,3.72,0,0,0-.14,1v2.71Z" style="fill:#231f20"/><path d="M474.45,12.27l.91.11a2.25,2.25,0,0,1-.8,1.24,2.7,2.7,0,0,1-3.29-.26,2.76,2.76,0,0,1-.67-2,2.86,2.86,0,0,1,.68-2A2.28,2.28,0,0,1,473,8.64a2.2,2.2,0,0,1,1.7.71,2.8,2.8,0,0,1,.66,2c0,.05,0,.13,0,.23h-3.87a2,2,0,0,0,.49,1.31,1.45,1.45,0,0,0,1.08.46,1.37,1.37,0,0,0,.83-.26A1.8,1.8,0,0,0,474.45,12.27Zm-2.89-1.42h2.9a1.77,1.77,0,0,0-.33-1A1.36,1.36,0,0,0,473,9.36a1.39,1.39,0,0,0-1,.41A1.58,1.58,0,0,0,471.56,10.85Z" style="fill:#231f20"/><path d="M476.46,15.93V8.76h.8v.67a2,2,0,0,1,.64-.59,1.68,1.68,0,0,1,.86-.2,2,2,0,0,1,1.18.34,2.15,2.15,0,0,1,.76,1,3.59,3.59,0,0,1,.26,1.37,3.44,3.44,0,0,1-.28,1.43,2.23,2.23,0,0,1-.83,1,2.13,2.13,0,0,1-1.15.34,1.62,1.62,0,0,1-.79-.19,1.75,1.75,0,0,1-.57-.47v2.53Zm.8-4.55a2.26,2.26,0,0,0,.4,1.48,1.24,1.24,0,0,0,1,.48,1.29,1.29,0,0,0,1-.5,2.4,2.4,0,0,0,.41-1.54,2.23,2.23,0,0,0-.41-1.48,1.21,1.21,0,0,0-1-.49,1.26,1.26,0,0,0-1,.52A2.34,2.34,0,0,0,477.26,11.38Z" style="fill:#231f20"/><path d="M485.57,12.27l.91.11a2.2,2.2,0,0,1-.8,1.24,2.39,2.39,0,0,1-1.48.44,2.42,2.42,0,0,1-1.81-.7,2.76,2.76,0,0,1-.66-2,2.86,2.86,0,0,1,.67-2,2.28,2.28,0,0,1,1.75-.72,2.2,2.2,0,0,1,1.7.71,2.8,2.8,0,0,1,.66,2,2.2,2.2,0,0,1,0,.23h-3.86a2,2,0,0,0,.48,1.31,1.45,1.45,0,0,0,1.08.46,1.35,1.35,0,0,0,.83-.26A1.65,1.65,0,0,0,485.57,12.27Zm-2.88-1.42h2.89a1.77,1.77,0,0,0-.33-1,1.36,1.36,0,0,0-1.09-.51,1.42,1.42,0,0,0-1,.41A1.57,1.57,0,0,0,482.69,10.85Z" style="fill:#231f20"/><path d="M489.5,13.16l.13.77A3.47,3.47,0,0,1,489,14a1.54,1.54,0,0,1-.74-.15.89.89,0,0,1-.37-.4,3.16,3.16,0,0,1-.11-1v-3h-.64V8.76h.64V7.47l.88-.53V8.76h.88v.68h-.88v3a1.6,1.6,0,0,0,0,.48.44.44,0,0,0,.15.18.66.66,0,0,0,.31.06Z" style="fill:#231f20"/><path d="M490.37,7.79v-1h.87v1Zm0,6.15V8.76h.87v5.18Z" style="fill:#231f20"/><path d="M494.5,13.16l.13.77A3.47,3.47,0,0,1,494,14a1.54,1.54,0,0,1-.74-.15.89.89,0,0,1-.37-.4,3.16,3.16,0,0,1-.11-1v-3h-.64V8.76h.64V7.47l.88-.53V8.76h.88v.68h-.88v3a1.6,1.6,0,0,0,0,.48.44.44,0,0,0,.15.18.66.66,0,0,0,.31.06Z" style="fill:#231f20"/><path d="M495.37,7.79v-1h.87v1Zm0,6.15V8.76h.87v5.18Z" style="fill:#231f20"/><path d="M499,13.94l-2-5.18H498l1.11,3.1c.12.34.23.68.33,1.05q.12-.42.33-1l1.15-3.16h.91l-2,5.18Z" style="fill:#231f20"/><path d="M506.13,12.27l.91.11a2.2,2.2,0,0,1-.8,1.24,2.68,2.68,0,0,1-3.28-.26,2.72,2.72,0,0,1-.67-2,2.86,2.86,0,0,1,.67-2,2.28,2.28,0,0,1,1.75-.72,2.2,2.2,0,0,1,1.7.71,2.8,2.8,0,0,1,.66,2,2.2,2.2,0,0,1,0,.23H503.2a2,2,0,0,0,.48,1.31,1.46,1.46,0,0,0,1.09.46,1.34,1.34,0,0,0,.82-.26A1.65,1.65,0,0,0,506.13,12.27Zm-2.88-1.42h2.89a1.77,1.77,0,0,0-.33-1,1.34,1.34,0,0,0-1.09-.51,1.42,1.42,0,0,0-1,.41A1.62,1.62,0,0,0,503.25,10.85Z" style="fill:#231f20"/><path d="M441.56,26.37l.85.13a.83.83,0,0,0,.3.57,1.42,1.42,0,0,0,.89.25,1.54,1.54,0,0,0,.95-.25,1.21,1.21,0,0,0,.45-.68,6.51,6.51,0,0,0,.06-1.13,1.78,1.78,0,0,1-1.44.68,2,2,0,0,1-1.65-.77,3,3,0,0,1-.59-1.85,3.42,3.42,0,0,1,.27-1.37,2.16,2.16,0,0,1,.78-1,2.09,2.09,0,0,1,1.2-.34,1.86,1.86,0,0,1,1.51.74v-.62H446v4.48a4.29,4.29,0,0,1-.24,1.71,1.82,1.82,0,0,1-.78.8,2.68,2.68,0,0,1-1.32.3,2.47,2.47,0,0,1-1.5-.42A1.43,1.43,0,0,1,441.56,26.37Zm.73-3.11a2.22,2.22,0,0,0,.4,1.48,1.27,1.27,0,0,0,1,.47,1.28,1.28,0,0,0,1-.46,2.15,2.15,0,0,0,.41-1.47,2.12,2.12,0,0,0-.42-1.43,1.31,1.31,0,0,0-1-.48,1.24,1.24,0,0,0-1,.47A2.09,2.09,0,0,0,442.29,23.26Z" style="fill:#231f20"/><path d="M450.83,24.27l.91.11a2.2,2.2,0,0,1-.8,1.24,2.68,2.68,0,0,1-3.28-.26,2.72,2.72,0,0,1-.67-2,2.86,2.86,0,0,1,.67-2,2.28,2.28,0,0,1,1.75-.72,2.2,2.2,0,0,1,1.7.71,2.8,2.8,0,0,1,.66,2,2.2,2.2,0,0,1,0,.23H447.9a2,2,0,0,0,.48,1.31,1.45,1.45,0,0,0,1.08.46,1.35,1.35,0,0,0,.83-.26A1.65,1.65,0,0,0,450.83,24.27ZM448,22.85h2.89a1.77,1.77,0,0,0-.33-1,1.34,1.34,0,0,0-1.09-.51,1.42,1.42,0,0,0-1,.41A1.62,1.62,0,0,0,448,22.85Z" style="fill:#231f20"/><path d="M452.84,25.94V20.76h.79v.73a1.88,1.88,0,0,1,1.65-.85,2.08,2.08,0,0,1,.87.17,1.34,1.34,0,0,1,.58.44,1.53,1.53,0,0,1,.28.65,5.26,5.26,0,0,1,.05.85v3.19h-.88V22.79a2.67,2.67,0,0,0-.1-.81.83.83,0,0,0-.37-.42,1.11,1.11,0,0,0-.61-.16,1.42,1.42,0,0,0-1,.36,1.75,1.75,0,0,0-.41,1.35v2.83Z" style="fill:#231f20"/><path d="M462,24.27l.91.11a2.23,2.23,0,0,1-.79,1.24,2.42,2.42,0,0,1-1.49.44,2.38,2.38,0,0,1-1.8-.7,2.72,2.72,0,0,1-.67-2,2.86,2.86,0,0,1,.68-2,2.26,2.26,0,0,1,1.74-.72,2.18,2.18,0,0,1,1.7.71,2.8,2.8,0,0,1,.66,2v.23H459a2,2,0,0,0,.48,1.31,1.46,1.46,0,0,0,1.09.46,1.32,1.32,0,0,0,.82-.26A1.65,1.65,0,0,0,462,24.27Zm-2.88-1.42H462a1.7,1.7,0,0,0-.33-1,1.34,1.34,0,0,0-1.09-.51,1.38,1.38,0,0,0-1,.41A1.58,1.58,0,0,0,459.07,22.85Z" style="fill:#231f20"/><path d="M465.89,25.16l.12.77a3.37,3.37,0,0,1-.66.08,1.49,1.49,0,0,1-.74-.15.91.91,0,0,1-.38-.4,3.25,3.25,0,0,1-.1-1v-3h-.65v-.68h.65V19.47l.87-.53v1.82h.89v.68H465v3a1.49,1.49,0,0,0,.05.48.38.38,0,0,0,.15.18.61.61,0,0,0,.3.06Z" style="fill:#231f20"/><path d="M466.75,19.79v-1h.88v1Zm0,6.15V20.76h.88v5.18Z" style="fill:#231f20"/><path d="M472.35,24l.86.11a2.19,2.19,0,0,1-.72,1.4,2.11,2.11,0,0,1-1.43.51,2.2,2.2,0,0,1-1.71-.7,2.78,2.78,0,0,1-.65-2A3.54,3.54,0,0,1,469,21.9a1.91,1.91,0,0,1,.84-.95,2.54,2.54,0,0,1,1.24-.31,2.11,2.11,0,0,1,1.38.43,1.94,1.94,0,0,1,.69,1.21l-.85.13a1.47,1.47,0,0,0-.43-.79,1.16,1.16,0,0,0-.75-.26,1.34,1.34,0,0,0-1.08.48,2.22,2.22,0,0,0-.42,1.5,2.31,2.31,0,0,0,.4,1.52,1.31,1.31,0,0,0,1.05.48,1.24,1.24,0,0,0,.86-.32A1.58,1.58,0,0,0,472.35,24Z" style="fill:#231f20"/><path d="M476.74,27.93V20.76h.81v.67a1.88,1.88,0,0,1,.64-.59,1.64,1.64,0,0,1,.86-.2,2,2,0,0,1,1.17.34,2.1,2.1,0,0,1,.77,1,3.59,3.59,0,0,1,.26,1.37,3.45,3.45,0,0,1-.29,1.43,2.17,2.17,0,0,1-.83,1,2.08,2.08,0,0,1-1.14.34,1.57,1.57,0,0,1-.79-.19,1.69,1.69,0,0,1-.58-.47v2.53Zm.8-4.55a2.25,2.25,0,0,0,.41,1.48,1.23,1.23,0,0,0,1,.48,1.27,1.27,0,0,0,1-.5,2.34,2.34,0,0,0,.42-1.54,2.29,2.29,0,0,0-.41-1.48,1.22,1.22,0,0,0-1-.49,1.27,1.27,0,0,0-1,.52A2.4,2.4,0,0,0,477.54,23.38Z" style="fill:#231f20"/><path d="M485.69,25.3a3.44,3.44,0,0,1-.94.59,2.78,2.78,0,0,1-1,.17,1.86,1.86,0,0,1-1.31-.42,1.36,1.36,0,0,1-.46-1.07,1.47,1.47,0,0,1,.17-.69,1.51,1.51,0,0,1,.46-.51,2.28,2.28,0,0,1,.63-.29c.17,0,.43-.08.78-.13a7.64,7.64,0,0,0,1.57-.3v-.23a1,1,0,0,0-.25-.76,1.51,1.51,0,0,0-1-.29,1.57,1.57,0,0,0-.91.21,1.3,1.3,0,0,0-.44.77l-.86-.11a2.19,2.19,0,0,1,.39-.9,1.7,1.7,0,0,1,.77-.52,3.53,3.53,0,0,1,1.18-.18,3.26,3.26,0,0,1,1.08.15,1.51,1.51,0,0,1,.61.4,1.38,1.38,0,0,1,.27.6,4.68,4.68,0,0,1,.05.81v1.17a12.39,12.39,0,0,0,.05,1.55,2.09,2.09,0,0,0,.22.62h-.91A1.72,1.72,0,0,1,485.69,25.3Zm-.07-2a6.45,6.45,0,0,1-1.44.33,3,3,0,0,0-.77.18.74.74,0,0,0-.46.7.75.75,0,0,0,.26.59,1.19,1.19,0,0,0,.78.23,1.77,1.77,0,0,0,.9-.22,1.39,1.39,0,0,0,.59-.61,2.2,2.2,0,0,0,.14-.88Z" style="fill:#231f20"/><path d="M487.86,25.94V20.76h.79v.78a2.16,2.16,0,0,1,.56-.73,1,1,0,0,1,.56-.17,1.72,1.72,0,0,1,.91.28l-.31.82a1.21,1.21,0,0,0-.64-.19.81.81,0,0,0-.52.17,1,1,0,0,0-.33.48,3.72,3.72,0,0,0-.14,1v2.71Z" style="fill:#231f20"/><path d="M493.12,25.16l.12.77a3.37,3.37,0,0,1-.66.08,1.49,1.49,0,0,1-.74-.15.84.84,0,0,1-.37-.4,3.16,3.16,0,0,1-.11-1v-3h-.65v-.68h.65V19.47l.87-.53v1.82h.89v.68h-.89v3a1.49,1.49,0,0,0,0,.48.38.38,0,0,0,.15.18.61.61,0,0,0,.3.06Z" style="fill:#231f20"/><path d="M493.62,24.39l.87-.13a1.26,1.26,0,0,0,.41.8,1.46,1.46,0,0,0,.94.28,1.37,1.37,0,0,0,.89-.25.74.74,0,0,0,.3-.58.55.55,0,0,0-.26-.47,3.66,3.66,0,0,0-.9-.3,8,8,0,0,1-1.34-.42,1.31,1.31,0,0,1-.57-.49,1.38,1.38,0,0,1-.19-.7,1.29,1.29,0,0,1,.16-.64,1.45,1.45,0,0,1,.43-.49,2,2,0,0,1,.56-.26,2.68,2.68,0,0,1,.76-.1,3.16,3.16,0,0,1,1.07.17,1.43,1.43,0,0,1,.68.48,1.89,1.89,0,0,1,.31.8l-.86.12a1,1,0,0,0-.34-.62,1.25,1.25,0,0,0-.8-.23,1.45,1.45,0,0,0-.86.2.59.59,0,0,0-.26.47.51.51,0,0,0,.11.31.77.77,0,0,0,.33.23l.78.23a10.85,10.85,0,0,1,1.3.4,1.29,1.29,0,0,1,.58.47,1.28,1.28,0,0,1,.21.75,1.49,1.49,0,0,1-.25.83,1.85,1.85,0,0,1-.74.6,2.77,2.77,0,0,1-1.1.21,2.44,2.44,0,0,1-1.54-.42A2,2,0,0,1,493.62,24.39Z" style="fill:#231f20"/><path d="M501.73,25.94V18.78h.88v7.16Z" style="fill:#231f20"/><path d="M504,19.79v-1h.88v1Zm0,6.15V20.76h.88v5.18Z" style="fill:#231f20"/><path d="M505.85,24.39l.87-.13a1.21,1.21,0,0,0,.4.8,1.48,1.48,0,0,0,.94.28,1.42,1.42,0,0,0,.9-.25.76.76,0,0,0,.29-.58A.55.55,0,0,0,509,24a3.66,3.66,0,0,0-.9-.3,8,8,0,0,1-1.34-.42,1.23,1.23,0,0,1-.56-.49,1.3,1.3,0,0,1-.2-.7,1.41,1.41,0,0,1,.16-.64,1.45,1.45,0,0,1,.43-.49,2,2,0,0,1,.56-.26,2.68,2.68,0,0,1,.76-.1,3.12,3.12,0,0,1,1.07.17,1.43,1.43,0,0,1,.68.48,1.89,1.89,0,0,1,.31.8l-.86.12a.92.92,0,0,0-.34-.62,1.24,1.24,0,0,0-.79-.23,1.46,1.46,0,0,0-.87.2.59.59,0,0,0-.26.47.51.51,0,0,0,.11.31.75.75,0,0,0,.34.23l.77.23a10.27,10.27,0,0,1,1.3.4,1.29,1.29,0,0,1,.58.47,1.28,1.28,0,0,1,.21.75,1.49,1.49,0,0,1-.25.83,1.79,1.79,0,0,1-.74.6,2.77,2.77,0,0,1-1.1.21,2.46,2.46,0,0,1-1.54-.42A1.94,1.94,0,0,1,505.85,24.39Z" style="fill:#231f20"/><path d="M513.12,25.16l.12.77a3.37,3.37,0,0,1-.66.08,1.49,1.49,0,0,1-.74-.15.84.84,0,0,1-.37-.4,3.16,3.16,0,0,1-.11-1v-3h-.65v-.68h.65V19.47l.87-.53v1.82h.89v.68h-.89v3a1.49,1.49,0,0,0,0,.48.38.38,0,0,0,.15.18.61.61,0,0,0,.3.06Z" style="fill:#231f20"/><rect x="445.31" y="34.95" width="9.11" height="3.6" style="fill:#9fdcf2"/><rect x="454.42" y="34.95" width="9.11" height="3.6" style="fill:#9fdcf2"/><rect x="463.53" y="34.95" width="9.11" height="3.6" style="fill:#9fdcf2"/><rect x="472.64" y="34.95" width="9.11" height="3.6" style="fill:#9fdcf2"/><rect x="481.74" y="34.95" width="9.11" height="3.6" style="fill:#9fdcf2"/><rect x="490.85" y="34.95" width="9.11" height="3.6" style="fill:#9fdcf2"/><rect x="499.96" y="34.95" width="9.11" height="3.6" style="fill:#9fdcf2"/><path d="M441.22,39h-.61V35.11a3.34,3.34,0,0,1-.59.42,3.45,3.45,0,0,1-.64.32v-.59a3.79,3.79,0,0,0,.9-.59,2.29,2.29,0,0,0,.55-.67h.39Z" style="fill:#231f20"/><path d="M433,85.28h-.61V81.36a3.23,3.23,0,0,1-.58.42,4.79,4.79,0,0,1-.65.32v-.59a4.12,4.12,0,0,0,.9-.59,2.42,2.42,0,0,0,.55-.67H433Z" style="fill:#231f20"/><path d="M434.55,82.81a4.66,4.66,0,0,1,.18-1.43,1.8,1.8,0,0,1,.54-.84,1.61,1.61,0,0,1,1.62-.13,1.4,1.4,0,0,1,.5.47,2.39,2.39,0,0,1,.31.74,4.74,4.74,0,0,1,.12,1.19,4.59,4.59,0,0,1-.18,1.42,1.82,1.82,0,0,1-.55.84,1.36,1.36,0,0,1-.91.29,1.4,1.4,0,0,1-1.14-.51A3.33,3.33,0,0,1,434.55,82.81Zm.63,0a3.16,3.16,0,0,0,.29,1.64.85.85,0,0,0,.71.41.87.87,0,0,0,.72-.41,5,5,0,0,0,0-3.29.87.87,0,0,0-.72-.4.79.79,0,0,0-.68.36A3.18,3.18,0,0,0,435.18,82.81Z" style="fill:#231f20"/><path d="M441.73,78.39l-.63,0a1.14,1.14,0,0,0-.23-.54.87.87,0,0,0-.64-.27.82.82,0,0,0-.53.17,1.42,1.42,0,0,0-.47.63,3.59,3.59,0,0,0-.18,1.19,1.43,1.43,0,0,1,.56-.51,1.53,1.53,0,0,1,.69-.17,1.43,1.43,0,0,1,1.08.46,1.69,1.69,0,0,1,.45,1.21,2,2,0,0,1-.21.9,1.5,1.5,0,0,1-.58.64,1.54,1.54,0,0,1-.83.22,1.61,1.61,0,0,1-1.29-.58,3,3,0,0,1-.5-1.92A3.47,3.47,0,0,1,439,77.7a1.59,1.59,0,0,1,1.3-.59,1.37,1.37,0,0,1,1.46,1.28Zm-2.58,2.22a1.52,1.52,0,0,0,.14.63,1,1,0,0,0,.39.45.91.91,0,0,0,1.21-.16,1.3,1.3,0,0,0,.29-.88,1.17,1.17,0,0,0-.29-.84.9.9,0,0,0-.71-.31,1,1,0,0,0-.73.31A1.09,1.09,0,0,0,439.15,80.61Z" style="fill:#231f20"/><rect x="445.31" y="50.2" width="9.11" height="3.6" style="fill:#9fdcf2"/><rect x="454.42" y="50.2" width="9.11" height="3.6" style="fill:#9fdcf2"/><rect x="463.53" y="50.2" width="9.11" height="3.6" style="fill:#9fdcf2"/><rect x="472.64" y="50.2" width="9.11" height="3.6" style="fill:#9fdcf2"/><rect x="481.74" y="50.2" width="9.11" height="3.6" style="fill:#9fdcf2"/><rect x="490.85" y="50.2" width="9.11" height="3.6" style="fill:#9fdcf2"/><rect x="499.96" y="50.2" width="9.11" height="3.6" style="fill:#9fdcf2"/><rect x="445.31" y="42.6" width="9.11" height="3.6" style="fill:#9fdcf2"/><rect x="454.42" y="42.6" width="9.11" height="3.6" style="fill:#9fdcf2"/><rect x="463.53" y="42.6" width="9.11" height="3.6" style="fill:#9fdcf2"/><rect x="472.64" y="42.6" width="9.11" height="3.6" style="fill:#9fdcf2"/><rect x="481.74" y="42.6" width="9.11" height="3.6" style="fill:#9fdcf2"/><rect x="490.85" y="42.6" width="9.11" height="3.6" style="fill:#9fdcf2"/><rect x="499.96" y="42.6" width="9.11" height="3.6" style="fill:#9fdcf2"/><rect x="445.31" y="80.33" width="9.11" height="3.6" style="fill:#9fdcf2"/><rect x="454.42" y="80.33" width="9.11" height="3.6" style="fill:#9fdcf2"/><rect x="463.53" y="80.33" width="9.11" height="3.6" style="fill:#9fdcf2"/><rect x="472.64" y="80.33" width="9.11" height="3.6" style="fill:#9fdcf2"/><rect x="481.74" y="80.33" width="9.11" height="3.6" style="fill:#9fdcf2"/><rect x="490.85" y="80.33" width="9.11" height="3.6" style="fill:#9fdcf2"/><rect x="499.96" y="80.33" width="9.11" height="3.6" style="fill:#9fdcf2"/><rect x="445.31" y="57.8" width="9.11" height="3.6" style="fill:#9fdcf2"/><rect x="454.42" y="57.8" width="9.11" height="3.6" style="fill:#9fdcf2"/><rect x="463.53" y="57.8" width="9.11" height="3.6" style="fill:#9fdcf2"/><rect x="472.64" y="57.8" width="9.11" height="3.6" style="fill:#9fdcf2"/><rect x="481.74" y="57.8" width="9.11" height="3.6" style="fill:#9fdcf2"/><rect x="490.85" y="57.8" width="9.11" height="3.6" style="fill:#9fdcf2"/><rect x="499.96" y="57.8" width="9.11" height="3.6" style="fill:#9fdcf2"/><circle cx="477.19" cy="71.4" r="0.69" style="fill:#231f20"/><circle cx="477.19" cy="77.84" r="0.69" style="fill:#231f20"/><circle cx="477.19" cy="74.62" r="0.69" style="fill:#231f20"/><path d="M442.14,46.09v.59h-3.31a1.05,1.05,0,0,1,.07-.43,2.2,2.2,0,0,1,.4-.66,6.2,6.2,0,0,1,.81-.76,6.62,6.62,0,0,0,1.1-1.07,1.26,1.26,0,0,0,.29-.73.84.84,0,0,0-.26-.62.94.94,0,0,0-.68-.25,1,1,0,0,0-.72.26,1.09,1.09,0,0,0-.27.74l-.63-.06a1.61,1.61,0,0,1,.49-1.08,1.65,1.65,0,0,1,1.14-.37,1.57,1.57,0,0,1,1.14.4,1.29,1.29,0,0,1,.42,1,1.52,1.52,0,0,1-.12.59,2.25,2.25,0,0,1-.41.61,9.1,9.1,0,0,1-1,.88c-.37.31-.6.52-.71.63a3.44,3.44,0,0,0-.26.34Z" style="fill:#231f20"/><path d="M437.36,54.28h-.62V50.36a2.9,2.9,0,0,1-.58.42,4.28,4.28,0,0,1-.65.32v-.59a4,4,0,0,0,.91-.59,2.56,2.56,0,0,0,.54-.67h.4Z" style="fill:#231f20"/><path d="M439,49.92v-.59h3.24v.48a6.54,6.54,0,0,0-1,1.36,9,9,0,0,0-.73,1.73,6.41,6.41,0,0,0-.23,1.38h-.63a5.74,5.74,0,0,1,.23-1.43,7.21,7.21,0,0,1,.64-1.61,6.88,6.88,0,0,1,.88-1.32Z" style="fill:#231f20"/><path d="M430.31,60.56l.61-.09a1.39,1.39,0,0,0,.36.76.91.91,0,0,0,.62.23,1,1,0,0,0,1-1.05.94.94,0,0,0-.28-.69.93.93,0,0,0-.7-.28,1.59,1.59,0,0,0-.44.07l.07-.54h.1a1.25,1.25,0,0,0,.71-.2.8.8,0,0,0,.08-1.19.81.81,0,0,0-.59-.23.85.85,0,0,0-.6.23,1.17,1.17,0,0,0-.31.68l-.61-.11a1.58,1.58,0,0,1,.51-1,1.48,1.48,0,0,1,1-.34,1.72,1.72,0,0,1,.75.17,1.3,1.3,0,0,1,.53.48,1.28,1.28,0,0,1,.18.65,1,1,0,0,1-.17.59,1.24,1.24,0,0,1-.52.43,1.12,1.12,0,0,1,.69.42,1.28,1.28,0,0,1,.25.81,1.46,1.46,0,0,1-.48,1.11,1.66,1.66,0,0,1-1.21.46,1.52,1.52,0,0,1-1.59-1.41Z" style="fill:#231f20"/><path d="M434.29,60.72l.59,0a1,1,0,0,0,.29.6.76.76,0,0,0,.54.19.91.91,0,0,0,.5-.13,1.06,1.06,0,0,0,.35-.35,2,2,0,0,0,.23-.58,3.22,3.22,0,0,0,.09-.76v-.12a1.39,1.39,0,0,1-.51.48,1.37,1.37,0,0,1-.69.18,1.41,1.41,0,0,1-1.05-.45,1.64,1.64,0,0,1-.43-1.19,1.69,1.69,0,0,1,.45-1.23,1.49,1.49,0,0,1,1.12-.46,1.66,1.66,0,0,1,.9.26,1.68,1.68,0,0,1,.61.75,3.74,3.74,0,0,1,.21,1.41,4.54,4.54,0,0,1-.21,1.53,1.72,1.72,0,0,1-.62.87,1.57,1.57,0,0,1-1,.3,1.33,1.33,0,0,1-1.41-1.25Zm2.52-2.21a1.2,1.2,0,0,0-.28-.84.89.89,0,0,0-.68-.31,1,1,0,0,0-.72.33,1.28,1.28,0,0,0-.3.87,1.09,1.09,0,0,0,.29.78.94.94,0,0,0,.71.3.89.89,0,0,0,.7-.3A1.16,1.16,0,0,0,436.81,58.51Z" style="fill:#231f20"/><path d="M438.09,59.41a4.66,4.66,0,0,1,.18-1.43,1.9,1.9,0,0,1,.55-.84,1.42,1.42,0,0,1,.91-.29,1.37,1.37,0,0,1,1.21.63,2.66,2.66,0,0,1,.31.74,5.34,5.34,0,0,1,.11,1.19,4.59,4.59,0,0,1-.18,1.42,1.8,1.8,0,0,1-.54.84,1.52,1.52,0,0,1-2.05-.22A3.32,3.32,0,0,1,438.09,59.41Zm.63,0a3.16,3.16,0,0,0,.29,1.64.86.86,0,0,0,.72.41.87.87,0,0,0,.71-.41,3.16,3.16,0,0,0,.29-1.64,3.2,3.2,0,0,0-.29-1.65.86.86,0,0,0-.72-.4.8.8,0,0,0-.68.36A3.18,3.18,0,0,0,438.72,59.41Z" style="fill:#231f20"/><rect x="445.31" y="65.8" width="9.11" height="3.6" style="fill:#9fdcf2"/><rect x="454.42" y="65.8" width="9.11" height="3.6" style="fill:#9fdcf2"/><rect x="463.53" y="65.8" width="9.11" height="3.6" style="fill:#9fdcf2"/><rect x="472.64" y="65.8" width="9.11" height="3.6" style="fill:#9fdcf2"/><rect x="481.74" y="65.8" width="9.11" height="3.6" style="fill:#9fdcf2"/><rect x="490.85" y="65.8" width="9.11" height="3.6" style="fill:#9fdcf2"/><rect x="499.96" y="65.8" width="9.11" height="3.6" style="fill:#9fdcf2"/><path d="M429.22,69.88v-1.2h-2.17v-.56l2.29-3.25h.5v3.25h.67v.56h-.67v1.2Zm0-1.76V65.86l-1.57,2.26Z" style="fill:#231f20"/><path d="M431.18,65.53v-.6h3.25v.48a6.54,6.54,0,0,0-.95,1.36,8.38,8.38,0,0,0-.73,1.73,6.41,6.41,0,0,0-.23,1.38h-.63a5.74,5.74,0,0,1,.23-1.43,7.21,7.21,0,0,1,.64-1.61,6.49,6.49,0,0,1,.88-1.31Z" style="fill:#231f20"/><path d="M435.08,65.53v-.6h3.24v.48a6.94,6.94,0,0,0-.95,1.36,8.34,8.34,0,0,0-.72,1.73,5.84,5.84,0,0,0-.24,1.38h-.63a5.74,5.74,0,0,1,.23-1.43,7.21,7.21,0,0,1,.64-1.61,6.49,6.49,0,0,1,.88-1.31Z" style="fill:#231f20"/><path d="M439,65.53v-.6h3.24v.48a6.94,6.94,0,0,0-.94,1.36,7.87,7.87,0,0,0-.73,1.73,7.08,7.08,0,0,0-.24,1.38h-.63a6.85,6.85,0,0,1,.23-1.43,7.21,7.21,0,0,1,.64-1.61,6.93,6.93,0,0,1,.88-1.31Z" style="fill:#231f20"/><rect x="37.74" y="104.63" width="19.62" height="8.51" rx="3.06" style="fill:#e6e7e8"/><path d="M39.79,110.39l1.05-5h.67l-.93,4.45h2.6l-.12.56Z"/><path d="M43.63,112.39l.79-3.75H45l.38,2.43c0,.32.08.63.09.92a10.4,10.4,0,0,1,.53-1l1.31-2.32H48l-.78,3.75h-.5l.39-1.82a13.53,13.53,0,0,1,.39-1.42,7.28,7.28,0,0,1-.4.78l-1.4,2.46H45.2L44.82,110a7.3,7.3,0,0,1-.07-.77c0,.33-.09.59-.13.79l-.5,2.39Z"/><path d="M47.67,112.39l2.13-3.75h.59l.62,3.75h-.49l-.18-1.08H48.82l-.6,1.08ZM49,110.92h1.24l-.15-.94c-.05-.37-.09-.69-.1-.93a6.67,6.67,0,0,1-.38.76Z"/><path d="M51.11,112.39l1.79-1.9-1.06-1.85h.55l.49.85.22.39c0,.08.09.18.14.3a7.86,7.86,0,0,1,.59-.68l.82-.86h.66l-1.82,1.94,1,1.81H54l-.61-1.1c-.06-.1-.13-.24-.21-.41a3.62,3.62,0,0,1-.34.39l-1,1.12Z"/></svg>