<?xml version="1.0" encoding="UTF-8"?><svg id="Layer_1" xmlns="http://www.w3.org/2000/svg" viewBox="0 0 309.07 24.2"><defs><style>.cls-1{fill:#ff1d25;}.cls-2{stroke:#fff;stroke-width:.25px;}</style></defs><path class="cls-2" d="M11.36,3.4h-1.85v-1.54h5.43v1.54h-1.85v15.12h-1.79L3.77,5.52h-.06v11.45h1.85v1.54H.12v-1.54h1.85V3.4H.12v-1.54h3.7l7.47,12.84h.06V3.4Z"/><path class="cls-2" d="M16.95,12.56c0-1.95.48-3.51,1.44-4.66.96-1.15,2.17-1.73,3.63-1.73s2.63.54,3.5,1.6c.87,1.07,1.31,2.57,1.31,4.51s-.46,3.56-1.39,4.75-2.14,1.79-3.64,1.79-2.66-.57-3.53-1.71c-.88-1.14-1.31-2.66-1.31-4.55ZM18.89,12.28c0,1.63.26,2.87.79,3.72.52.85,1.28,1.28,2.27,1.28.93,0,1.65-.4,2.16-1.19.51-.79.77-2,.77-3.63,0-3.17-1.01-4.75-3.02-4.75-.97,0-1.7.37-2.21,1.1-.5.73-.76,1.89-.76,3.47Z"/><path class="cls-2" d="M28.83,16.98h1.54v-8.95h-1.54v-1.54h3.27l.09,1.6h.03c1.11-1.28,2.39-1.91,3.83-1.91,1.03,0,1.78.29,2.25.88.47.59.71,1.41.71,2.48v7.44h1.54v1.54h-4.63v-1.54h1.23v-7.19c0-.82-.14-1.37-.43-1.65-.29-.28-.69-.42-1.2-.42-1.19,0-2.29.64-3.3,1.91v7.35h1.23v1.54h-4.63v-1.54Z"/><path class="cls-2" d="M41.79,11.42h4.63v1.54h-4.63v-1.54Z"/><path class="cls-2" d="M51.98,16.98h1.85v1.54h-5.56v-1.54h1.85V3.4h-1.64v-1.54h5.37c1.91,0,3.31.35,4.2,1.05.88.7,1.33,1.74,1.33,3.12,0,2.45-1.3,3.95-3.89,4.51v.06c.29.17.6.42.93.76.33.34.74.97,1.23,1.9l2.04,3.73h1.54v1.54h-2.96c-.25-.56-.48-1.05-.71-1.48s-.44-.83-.65-1.2l-1.14-2.13c-.41-.72-.74-1.27-.99-1.64-.25-.37-.52-.68-.83-.93-.31-.23-.71-.34-1.2-.34h-.77v6.17ZM53.46,9.26c1.32,0,2.31-.24,2.98-.73.67-.48,1-1.26,1-2.33s-.3-1.78-.91-2.19c-.61-.41-1.56-.62-2.85-.62h-1.7v5.86h1.48Z"/><path class="cls-2" d="M71.11,16.2v1.67c-1.03.64-2.23.96-3.61.96-1.63,0-2.9-.54-3.81-1.64-.92-1.09-1.37-2.61-1.37-4.57s.48-3.6,1.45-4.74c.97-1.14,2.18-1.71,3.64-1.71,1.19,0,2.16.47,2.9,1.42s1.11,2.29,1.11,4.04v.96h-7.19c.04,1.44.32,2.56.85,3.36.52.8,1.36,1.22,2.52,1.27,1.28,0,2.45-.34,3.52-1.02ZM69.57,11.11c0-1.17-.22-2.03-.65-2.58-.43-.54-1.04-.82-1.82-.82s-1.4.28-1.91.85c-.51.57-.82,1.42-.93,2.55h5.31Z"/><path class="cls-2" d="M76.42,6.48l.09.99h.06c.93-.86,1.96-1.3,3.12-1.3,1.32,0,2.38.54,3.18,1.62.8,1.08,1.2,2.5,1.2,4.27,0,2.02-.49,3.65-1.47,4.89-.98,1.25-2.22,1.87-3.72,1.87-.78,0-1.55-.19-2.31-.56l-.06.03v4.23h1.85v1.54h-5.25v-1.54h1.54v-14.51h-1.54v-1.54h3.3ZM76.51,16.82c.62.31,1.34.46,2.16.46,1.09,0,1.94-.4,2.55-1.2.61-.8.91-2.04.91-3.7s-.27-2.78-.8-3.53c-.54-.75-1.26-1.13-2.16-1.13-.99,0-1.87.44-2.65,1.33v7.78Z"/><path class="cls-2" d="M95.19,16.2v1.67c-1.03.64-2.23.96-3.61.96-1.63,0-2.9-.54-3.81-1.64-.92-1.09-1.37-2.61-1.37-4.57s.48-3.6,1.45-4.74c.97-1.14,2.18-1.71,3.64-1.71,1.19,0,2.16.47,2.9,1.42s1.11,2.29,1.11,4.04v.96h-7.19c.04,1.44.32,2.56.85,3.36.52.8,1.36,1.22,2.52,1.27,1.28,0,2.45-.34,3.52-1.02ZM93.64,11.11c0-1.17-.22-2.03-.65-2.58-.43-.54-1.04-.82-1.82-.82s-1.4.28-1.91.85c-.51.57-.82,1.42-.93,2.55h5.31Z"/><path class="cls-2" d="M101.45,18.83c-.88,0-1.58-.23-2.1-.69-.51-.46-.77-1.15-.77-2.05v-8.06h-1.54v-1.54h1.54v-2.78l1.85-.34v3.12h2.78v1.54h-2.78v7.75c0,.6.12,1,.35,1.2.24.21.55.31.94.31.49,0,.99-.12,1.48-.37v1.51c-.56.27-1.14.4-1.76.4Z"/><path class="cls-2" d="M104.75,16.98h1.54v-8.95h-1.54v-1.54h3.4v10.49h1.54v1.54h-4.94v-1.54ZM105.77,3.21c0-.43.12-.77.35-1s.56-.35.97-.35.71.12.96.35c.25.24.37.55.37.94,0,.41-.12.74-.37.97-.25.24-.58.35-.99.35s-.71-.12-.94-.35c-.24-.24-.35-.54-.35-.91Z"/><path class="cls-2" d="M115.34,18.83c-.88,0-1.58-.23-2.1-.69-.51-.46-.77-1.15-.77-2.05v-8.06h-1.54v-1.54h1.54v-2.78l1.85-.34v3.12h2.78v1.54h-2.78v7.75c0,.6.12,1,.35,1.2.24.21.55.31.94.31.49,0,.99-.12,1.48-.37v1.51c-.56.27-1.14.4-1.76.4Z"/><path class="cls-2" d="M118.64,16.98h1.54v-8.95h-1.54v-1.54h3.4v10.49h1.54v1.54h-4.94v-1.54ZM119.66,3.21c0-.43.12-.77.35-1s.56-.35.97-.35.71.12.96.35c.25.24.37.55.37.94,0,.41-.12.74-.37.97-.25.24-.58.35-.99.35s-.71-.12-.94-.35c-.24-.24-.35-.54-.35-.91Z"/><path class="cls-2" d="M130.93,18.67h-1.76l-3.58-10.65h-1.39v-1.54h4.63v1.54h-1.36l2.69,8.27h.06l2.78-8.27h-1.39v-1.54h4.63v1.54h-1.54l-3.77,10.65Z"/><path class="cls-2" d="M146.11,16.2v1.67c-1.03.64-2.23.96-3.61.96-1.63,0-2.9-.54-3.81-1.64-.92-1.09-1.37-2.61-1.37-4.57s.48-3.6,1.45-4.74c.97-1.14,2.18-1.71,3.64-1.71,1.19,0,2.16.47,2.9,1.42s1.11,2.29,1.11,4.04v.96h-7.19c.04,1.44.32,2.56.85,3.36.52.8,1.36,1.22,2.52,1.27,1.28,0,2.45-.34,3.52-1.02ZM144.57,11.11c0-1.17-.22-2.03-.65-2.58-.43-.54-1.04-.82-1.82-.82s-1.4.28-1.91.85c-.51.57-.82,1.42-.93,2.55h5.31Z"/><path class="cls-2" d="M156.6,11.73v5.25h2.16v1.54h-5.86v-1.54h1.85V3.4h-1.85v-1.54h5.59c1.81,0,3.15.4,4.01,1.19.86.79,1.3,1.94,1.3,3.44,0,1.71-.49,3.01-1.47,3.9-.98.9-2.4,1.34-4.27,1.34h-1.45ZM158.15,10.19c1.19,0,2.11-.27,2.75-.82.64-.54.96-1.44.96-2.67s-.29-2.12-.86-2.59c-.58-.47-1.47-.71-2.69-.71h-1.7v6.79h1.54Z"/><path class="cls-2" d="M165.86,7.38c1.42-.8,2.87-1.2,4.35-1.2,1.28,0,2.26.29,2.95.88.69.59,1.03,1.52,1.03,2.79v7.13h1.54v1.54h-3.21l-.09-1.39-.06-.03c-.99,1.15-2.2,1.73-3.64,1.73-1.07,0-1.92-.31-2.55-.94-.63-.63-.94-1.42-.94-2.39,0-1.3.56-2.26,1.68-2.9s2.75-.96,4.89-.96h.52v-1.82c0-.76-.18-1.3-.54-1.62-.36-.32-.96-.48-1.81-.48-1.01,0-1.85.16-2.53.49v1.67h-1.6v-2.5ZM171.6,12.96c-1.42,0-2.51.18-3.27.54-.76.36-1.14.99-1.14,1.9,0,.66.19,1.14.56,1.44.37.3.84.45,1.42.45,1.23,0,2.29-.5,3.18-1.51v-2.81h-.74Z"/><path class="cls-2" d="M176.97,16.98h1.54v-8.95h-1.54v-1.54h3.3l.09,1.73h.06c.39-.66.82-1.14,1.3-1.45.47-.31,1.04-.46,1.7-.46.25,0,.46.02.65.06v1.94c-.31-.06-.63-.09-.96-.09-.6,0-1.12.14-1.56.42-.44.28-.84.73-1.19,1.34v7.01h1.85v1.54h-5.25v-1.54Z"/><path class="cls-2" d="M189.41,18.83c-.88,0-1.58-.23-2.1-.69-.51-.46-.77-1.15-.77-2.05v-8.06h-1.54v-1.54h1.54v-2.78l1.85-.34v3.12h2.78v1.54h-2.78v7.75c0,.6.12,1,.35,1.2.24.21.55.31.94.31.49,0,.99-.12,1.48-.37v1.51c-.56.27-1.14.4-1.76.4Z"/><path class="cls-2" d="M196.54,18.83c-1.28,0-2.45-.25-3.52-.76v-2.67h1.6v1.6c.62.19,1.3.28,2.04.28.93,0,1.58-.16,1.96-.47.38-.32.57-.76.57-1.33,0-.53-.23-.95-.68-1.27-.45-.32-1.16-.65-2.13-1-1.36-.49-2.28-1.02-2.78-1.59-.49-.57-.74-1.23-.74-1.99,0-1.01.4-1.84,1.2-2.48.8-.65,1.83-.97,3.09-.97,1.15,0,2.24.25,3.27.74v2.65h-1.6v-1.64c-.47-.19-1.06-.28-1.76-.28-.78,0-1.37.16-1.76.48-.39.32-.59.73-.59,1.25s.21.92.63,1.21c.42.3,1.08.61,1.99.94,1.3.45,2.24.96,2.82,1.52s.88,1.3.88,2.23c0,1.07-.41,1.93-1.23,2.58-.82.65-1.91.97-3.27.97Z"/><path class="cls-1" d="M219.57,17.59c-1.52.82-3.07,1.23-4.63,1.23-2.2,0-3.94-.77-5.2-2.3-1.27-1.53-1.9-3.65-1.9-6.34s.65-4.78,1.94-6.33c1.3-1.54,3.02-2.31,5.19-2.31,1.5,0,3.03.33,4.6.99v3.64h-1.7v-2.44c-.82-.33-1.81-.49-2.96-.49-1.65,0-2.91.56-3.8,1.68-.89,1.12-1.33,2.83-1.33,5.14s.46,4.19,1.39,5.34,2.21,1.73,3.86,1.73c1.38,0,2.89-.41,4.54-1.23v1.7Z"/><path class="cls-1" d="M222.34,7.38c1.42-.8,2.87-1.2,4.35-1.2,1.28,0,2.26.29,2.95.88.69.59,1.03,1.52,1.03,2.79v7.13h1.54v1.54h-3.21l-.09-1.39-.06-.03c-.99,1.15-2.2,1.73-3.64,1.73-1.07,0-1.92-.31-2.55-.94-.63-.63-.94-1.42-.94-2.39,0-1.3.56-2.26,1.68-2.9s2.75-.96,4.89-.96h.52v-1.82c0-.76-.18-1.3-.54-1.62-.36-.32-.96-.48-1.81-.48-1.01,0-1.85.16-2.53.49v1.67h-1.6v-2.5ZM228.08,12.96c-1.42,0-2.51.18-3.27.54-.76.36-1.14.99-1.14,1.9,0,.66.19,1.14.56,1.44.37.3.84.45,1.42.45,1.23,0,2.29-.5,3.18-1.51v-2.81h-.74Z"/><path class="cls-1" d="M233.45,16.98h1.54V1.54h-1.54V0h3.4v16.98h1.54v1.54h-4.94v-1.54Z"/><path class="cls-1" d="M248.89,18.06c-.99.51-2.07.77-3.24.77-1.67,0-2.98-.53-3.95-1.6-.97-1.07-1.45-2.6-1.45-4.6s.51-3.6,1.53-4.74,2.34-1.71,3.97-1.71c1.13,0,2.18.24,3.15.71v2.99h-1.64v-1.88c-.45-.19-1.01-.28-1.67-.28-1.15,0-2.01.37-2.56,1.1-.56.73-.83,1.89-.83,3.47,0,1.69.3,2.93.9,3.73.6.8,1.46,1.2,2.59,1.2s2.18-.28,3.21-.83v1.67Z"/><path class="cls-1" d="M259.07,8.02h-1.54v-1.54h3.4v10.49h1.54v1.54h-3.24l-.09-1.33h-.06c-.91,1.09-2.05,1.64-3.43,1.64-1.09,0-1.92-.29-2.5-.86-.58-.58-.86-1.41-.86-2.5v-7.44h-1.54v-1.54h3.4v8.67c0,.82.18,1.38.54,1.68.36.3.85.45,1.47.45,1.19,0,2.17-.48,2.93-1.45v-7.81Z"/><path class="cls-1" d="M264.01,16.98h1.54V1.54h-1.54V0h3.4v16.98h1.54v1.54h-4.94v-1.54Z"/><path class="cls-1" d="M271.42,7.38c1.42-.8,2.87-1.2,4.35-1.2,1.28,0,2.26.29,2.95.88.69.59,1.03,1.52,1.03,2.79v7.13h1.54v1.54h-3.21l-.09-1.39-.06-.03c-.99,1.15-2.2,1.73-3.64,1.73-1.07,0-1.92-.31-2.55-.94-.63-.63-.94-1.42-.94-2.39,0-1.3.56-2.26,1.68-2.9s2.75-.96,4.89-.96h.52v-1.82c0-.76-.18-1.3-.54-1.62-.36-.32-.96-.48-1.81-.48-1.01,0-1.85.16-2.53.49v1.67h-1.6v-2.5ZM277.16,12.96c-1.42,0-2.51.18-3.27.54-.76.36-1.14.99-1.14,1.9,0,.66.19,1.14.56,1.44.37.3.84.45,1.42.45,1.23,0,2.29-.5,3.18-1.51v-2.81h-.74Z"/><path class="cls-1" d="M286.63,18.83c-.88,0-1.58-.23-2.1-.69-.51-.46-.77-1.15-.77-2.05v-8.06h-1.54v-1.54h1.54v-2.78l1.85-.34v3.12h2.78v1.54h-2.78v7.75c0,.6.12,1,.35,1.2.24.21.55.31.94.31.49,0,.99-.12,1.48-.37v1.51c-.56.27-1.14.4-1.76.4Z"/><path class="cls-1" d="M290.09,12.56c0-1.95.48-3.51,1.44-4.66.96-1.15,2.17-1.73,3.63-1.73s2.63.54,3.5,1.6c.87,1.07,1.31,2.57,1.31,4.51s-.46,3.56-1.39,4.75-2.14,1.79-3.64,1.79-2.66-.57-3.53-1.71c-.88-1.14-1.31-2.66-1.31-4.55ZM292.03,12.28c0,1.63.26,2.87.79,3.72.52.85,1.28,1.28,2.27,1.28.93,0,1.65-.4,2.16-1.19.51-.79.77-2,.77-3.63,0-3.17-1.01-4.75-3.02-4.75-.97,0-1.7.37-2.21,1.1-.5.73-.76,1.89-.76,3.47Z"/><path class="cls-1" d="M301.97,16.98h1.54v-8.95h-1.54v-1.54h3.3l.09,1.73h.06c.39-.66.82-1.14,1.3-1.45.47-.31,1.04-.46,1.7-.46.25,0,.46.02.65.06v1.94c-.31-.06-.63-.09-.96-.09-.6,0-1.12.14-1.56.42-.44.28-.84.73-1.19,1.34v7.01h1.85v1.54h-5.25v-1.54Z"/></svg>